<?xml version="1.0" encoding="utf-8"?>
<!-- Generator: Adobe Illustrator 23.0.1, SVG Export Plug-In . SVG Version: 6.00 Build 0)  -->
<svg version="1.1" id="Layer_1" xmlns="http://www.w3.org/2000/svg" xmlns:xlink="http://www.w3.org/1999/xlink" x="0px" y="0px"
	 viewBox="0 0 144 144" style="enable-background:new 0 0 144 144;" xml:space="preserve">
<style type="text/css">
	.st0{fill:#F7F7F7;}
	.st1{fill:#329044;}
</style>
<path class="st0" d="M73.1,142.03c-1.3,0-2.73-0.06-4.39-0.18c-11.81-0.98-22.43-5.15-31.59-12.41c-9.3-7.4-15.83-16.89-19.39-28.2
	c-1.07-3.34-1.81-6.8-2.2-10.27c-0.1-0.78-0.16-1.59-0.22-2.42l-0.13-1.65l-0.1-0.42v-4.95l0.05-0.37l0.11-1.35
	c0.55-8.09,2.68-15.68,6.31-22.55c7.62-14.44,19.4-24.22,35.01-29.09c0.5-0.15,0.99-0.29,1.47-0.42c0.12-0.38,0.46-1.4,0.46-1.4
	L58.95,25c0.53-1.61,1.17-3.54,1.87-5.44c0.68-1.87,1.8-3.43,2.59-4.44c0.67-0.88,1.37-1.71,2.09-2.46
	c1.05-1.05,2.26-1.94,3.73-2.76c1.27-0.75,2.39-1.33,3.46-1.81c1.12-0.51,2.27-0.92,3.28-1.27l0.5-0.18
	c1.59-0.55,3.15-1.04,4.72-1.54l1.02-0.33c0.87-0.28,1.75-0.41,2.71-0.41c0.53,0,1.03,0.05,1.5,0.1c0.25,0.02,0.51,0.05,0.76,0.09
	c0.43,0.07,0.67,0.09,0.81,0.1l0.17-0.01c0.68-0.01,1.39-0.13,2.11-0.26c0.8-0.15,1.6-0.31,2.39-0.5l1.37-0.29
	c0.53-0.11,0.99-0.16,1.46-0.16c1.86,0,4.33,0.78,5.47,4.52c0.48,1.54,0.63,3.94-1.46,6.56c-0.89,1.12-1.94,2.07-3.27,2.97
	c-0.17,0.35-0.43,0.85-0.81,1.36c-0.78,1.02-1.61,2.06-2.57,3.21c0,0-1.18,1.42-1.49,1.78c0,0.14,0.15,4.89,0.15,4.89
	c6.03,1.98,11.62,4.92,16.63,8.73c11.28,8.61,18.62,19.95,21.8,33.71c1.11,4.86,1.57,9.78,1.36,14.64
	c-0.48,13.23-4.97,25.09-13.37,35.22c-7.94,9.56-18.11,16.02-30.25,19.2c-3.01,0.8-6.21,1.33-9.51,1.59
	c-1.63,0.15-3.34,0.23-5.07,0.23H73.1z"/>
<path d="M86.57,22.11c0.81-0.96,1.73-2.04,2.63-3.12c0.82-0.99,1.64-2,2.42-3.03c0.26-0.34,0.42-0.78,0.65-1.18
	c0.11-0.2,0.19-0.42,0.34-0.58c0.17-0.19,0.38-0.32,0.59-0.45c0.96-0.61,1.85-1.31,2.56-2.22c0.4-0.49,0.7-1.03,0.7-1.64
	c-0.05,0.56-0.34,1.04-0.7,1.51c-0.71,0.91-1.61,1.6-2.56,2.22c-0.21,0.15-0.44,0.26-0.59,0.45c-0.16,0.16-0.25,0.38-0.36,0.58
	c-0.21,0.4-0.37,0.82-0.63,1.18c-0.78,1.03-1.6,2.04-2.42,3.03c-0.9,1.08-1.82,2.15-2.63,3.12C86.57,22.02,86.57,22.07,86.57,22.11z
	 M20.38,91.51c-0.05-0.4-0.11-0.79-0.15-1.19c-0.15-1.36-0.22-2.74-0.34-4.1c-0.01-0.12-0.04-0.24-0.07-0.36c0,0.04,0,0.08,0,0.13
	c0.03,0.12,0.05,0.24,0.07,0.36c0.12,1.36,0.2,2.74,0.34,4.1C20.28,90.81,20.33,91.16,20.38,91.51z M20.4,91.64
	c0.38,2.79,1,5.5,1.86,8.18c3.29,10.43,9.24,19.1,17.8,25.9c8.5,6.74,18.19,10.49,28.98,11.39c2.92,0.22,5.84,0.2,8.75-0.05
	c2.93-0.24,5.83-0.71,8.68-1.45c11.13-2.93,20.43-8.79,27.79-17.64c7.31-8.8,11.33-18.9,12.15-30.17
	c-0.86,11.22-4.88,21.26-12.15,30.04c-7.36,8.85-16.67,14.71-27.81,17.63c-2.84,0.75-5.74,1.22-8.67,1.47
	c-2.92,0.25-5.83,0.28-8.75,0.04c-10.8-0.89-20.49-4.64-28.97-11.38c-8.58-6.81-14.51-15.48-17.83-25.92
	C21.42,97.05,20.79,94.36,20.4,91.64z M127.83,71.64c1.06,4.63,1.51,9.36,1.31,14.06c-0.46,12.78-4.8,24.19-12.87,33.93
	c-7.64,9.2-17.43,15.42-29.13,18.49c-2.91,0.77-5.97,1.28-9.13,1.53c-1.63,0.15-3.29,0.22-4.9,0.22c-0.01,0-0.01,0-0.01,0
	c-1.41,0-2.84-0.07-4.24-0.17c-11.37-0.94-21.58-4.96-30.4-11.95c-8.93-7.1-15.23-16.23-18.67-27.16c-1.03-3.22-1.74-6.54-2.11-9.86
	c-0.11-0.89-0.17-1.78-0.24-2.7c-0.04-0.49-0.08-0.98-0.12-1.47l-0.08-0.33v-4.56l0.03-0.24c0.04-0.49,0.08-0.95,0.12-1.44
	c0.53-7.78,2.56-15.09,6.07-21.71c7.35-13.92,18.7-23.35,33.74-28.04c0.86-0.26,1.69-0.48,2.52-0.67c0.26-0.85,0.54-1.68,0.82-2.52
	L61,25.69c0.58-1.77,1.19-3.59,1.85-5.38c0.59-1.61,1.59-2.99,2.27-3.87c0.62-0.82,1.28-1.6,1.94-2.29
	c0.89-0.89,1.93-1.65,3.22-2.37c0.99-0.58,2.1-1.19,3.29-1.72c1.24-0.56,2.54-1,3.63-1.39c1.55-0.53,3.09-1.02,4.64-1.51l1.04-0.34
	c0.63-0.2,1.3-0.3,2.04-0.3c0.44,0,0.87,0.04,1.32,0.09c0.21,0.01,0.42,0.04,0.63,0.07c0.44,0.07,0.85,0.12,1.18,0.12l0.13-0.01
	c0.86-0.01,1.69-0.15,2.47-0.29c0.85-0.16,1.68-0.33,2.5-0.52c0.44-0.09,0.87-0.19,1.31-0.28c0.38-0.08,0.71-0.12,1.03-0.12
	c2.48,0,3.15,2.17,3.4,2.99c0.48,1.53,0.12,3.08-1.08,4.59c-0.81,1.02-1.82,1.92-3.2,2.79c-0.01,0.01-0.03,0.01-0.03,0.01
	c-0.01,0.04-0.13,0.26-0.19,0.36c-0.16,0.34-0.37,0.78-0.7,1.22c-0.81,1.06-1.65,2.1-2.5,3.12c-0.56,0.67-1.12,1.35-1.68,2.01
	l-0.32,0.37c0,0,0.01,0.87,0.03,1.27c0.05,1.82,0.11,3.63,0.16,5.43c0.01,0.2,0.03,0.38,0.04,0.58c6.34,1.9,12.21,4.88,17.41,8.84
	C117.71,47.46,124.77,58.39,127.83,71.64z M125.07,87.66c0.26-3.21,0.19-6.42-0.17-9.62c-0.36-3.29-1.02-6.52-2-9.67
	c-5.14-16.71-18.53-29.79-35.39-34.63c-0.11-0.03-0.21-0.04-0.36-0.08c0.13,1.03,0.22,2.01,0.38,2.97c0.16,0.98,0.34,1.94,0.58,2.91
	c0.13,0.57,0.16,1.18,0.59,1.67c0.58,0.62,1.14,1.31,1.36,2.14c0.28,1.03,0.45,2.09,0.63,3.13c0.05,0.34,0.16,0.59,0.41,0.82
	c0.33,0.29,0.58,0.62,0.65,1.07c0.16,0.99,0.32,1.98,0.49,2.97c0.13,0.71,0.48,1.35,0.9,1.96c0.05,0.08,0,0.28-0.08,0.37
	c-0.22,0.3-0.33,0.62-0.21,1c0.34,1.07,0.73,2.15,0.86,3.29c0.04,0.46-0.12,0.82-0.46,1.1c-0.21,0.16-0.48,0.24-0.74,0.37
	c0.03,0.11,0.05,0.22,0.09,0.34c0.29,0.78,0.34,1.6,0.29,2.43c-0.03,0.58-0.05,0.58-0.63,0.59c-0.33,0-0.53,0.09-0.58,0.46
	c-0.01,0.21-0.12,0.41-0.22,0.59c-0.25,0.41-0.4,0.41-0.67,0c-0.04,0.04-0.07,0.07-0.08,0.11c-0.3,0.79-0.58,1.6-0.9,2.39
	c-0.09,0.22-0.04,0.4,0.12,0.56c0.09,0.09,0.21,0.16,0.29,0.26c0.38,0.5,0.53,0.62,0.12,0.98c-0.41,0.36-0.42,0.73-0.32,1.18
	c0.03,0.13-0.01,0.28,0.01,0.4c0.04,0.19,0.08,0.4,0.17,0.54c0.48,0.73,0.82,1.51,0.87,2.38c0.01,0.34,0.09,0.65,0.25,0.96
	c0.45,0.91,0.82,1.85,1.23,2.78c0.4,0.87,0.77,1.76,1.23,2.59c0.52,0.91,1.12,1.78,1.72,2.64c0.78,1.14,1.61,2.22,2.39,3.36
	c0.4,0.58,0.73,1.23,1.06,1.86c0.05,0.09-0.01,0.25-0.04,0.38c-0.12-0.03-0.25-0.03-0.36-0.07c-0.37-0.12-0.73-0.25-1.08-0.38
	c-0.03,0.03-0.04,0.07-0.07,0.09c0.04,0.12,0.08,0.22,0.12,0.34c0.16,0.4,0.36,0.78,0.48,1.19c0.26,0.89,0.46,1.81,0.73,2.7
	c0.45,1.53,0.7,3.08,0.74,4.67c0.01,0.57-0.01,1.14-0.04,1.7c0,0.15-0.09,0.28-0.15,0.41c-0.08-0.11-0.2-0.21-0.25-0.33
	c-0.21-0.4-0.38-0.79-0.58-1.19c-0.04,0-0.09,0.01-0.13,0.03c-0.05,0.62-0.12,1.24-0.12,1.86c-0.01,0.4,0.08,0.81,0.12,1.18
	c0.11,0.12,0.26,0.24,0.36,0.38c0.2,0.33,0.37,0.69,0.58,1.02c0.49,0.79,1.02,1.56,1.52,2.34c0.65,1.02,1.28,2.04,1.9,3.07
	c0.24,0.38,0.38,0.82,0.62,1.2c0.74,1.26,1.49,2.51,2.27,3.74c0.56,0.89,1.15,1.74,1.73,2.6c0.32,0.46,3.19,3.71,4.3,5.05
	c-0.12,0.12-0.22,0.24-0.32,0.34c-1.4-1.78-5.42-6.86-6.01-7.76c-0.74-1.12-1.43-2.29-2.15-3.42c-0.38-0.59-0.79-1.16-1.18-1.76
	c-0.46-0.74-0.93-1.51-1.37-2.27c-0.7-1.19-1.6-2.23-2.54-3.3c-0.03,0.13-0.04,0.24-0.07,0.34c-0.13,0.63-0.22,1.27-0.41,1.88
	c-0.56,1.92-1.33,3.74-2.27,5.48c-0.86,1.59-1.84,3.12-2.7,4.7c-0.98,1.78-2.33,3.25-3.69,4.72c-0.17,0.17-0.33,0.36-0.5,0.5
	c-0.99,0.87-2,1.73-3,2.58c-0.77,0.65-1.51,1.32-2.06,2.17c-0.38,0.57-0.79,1.12-1.22,1.67c-0.11,0.15-0.3,0.22-0.46,0.34
	c-0.07-0.12-0.15-0.24-0.2-0.37c-0.09-0.26-0.2-0.54-0.26-0.83c-0.07-0.25-0.08-0.52-0.12-0.78c-0.03-0.01-0.05-0.01-0.08-0.03
	c-0.32,0.42-0.67,0.81-0.91,1.27c-0.82,1.48-1.59,2.97-2.38,4.47c-0.12,0.21-0.24,0.44-0.41,0.61c-0.19,0.19-0.4,0.17-0.56-0.09
	c-0.08-0.13-0.19-0.26-0.32-0.34c-0.93-0.59-1.84-1.26-2.83-1.74c-1.61-0.81-3.26-1.51-4.9-2.25c-0.73-0.33-1.48-0.59-2.18-0.98
	c-1.28-0.73-2.55-1.52-3.79-2.31c-1.16-0.73-2.18-1.61-2.97-2.75c-0.28-0.4-0.56-0.79-0.83-1.16c-0.2,0.96-0.4,1.93-0.58,2.89
	c-0.16-0.01-0.3-0.04-0.4-0.05c-0.13-0.52-0.21-1.03-0.4-1.52c-0.17-0.48-0.38-0.96-0.67-1.39c-0.29-0.44-0.37-1.06-1.02-1.24
	c-0.13-0.04-0.21-0.28-0.32-0.42c-0.87-1.4-1.77-2.79-2.62-4.2c-0.81-1.35-1.41-2.79-1.86-4.28c-0.49-1.6-0.86-3.22-1.32-4.82
	c-0.62-2.14-0.85-4.32-0.74-6.54c0-0.11-0.09-0.22-0.15-0.33c-0.09,0.08-0.21,0.15-0.28,0.24c-0.19,0.2-0.33,0.42-0.53,0.67
	c-0.3-0.66-0.58-1.23-0.85-1.81c0.19,1.18,0.44,2.33,0.62,3.48c0.13,0.9,0.3,1.77-0.25,2.67c-0.53,0.83-1.14,1.43-2.1,1.63
	c-0.71,0.15-1.43,0.33-2.14,0.5c-0.17,0.04-0.26,0.11-0.19,0.3c0.2,0.45,0.29,0.96,0.57,1.36c0.77,1.06,1.56,2.09,2.42,3.07
	c0.5,0.59,1.18,1.04,1.73,1.6c0.53,0.53,0.95,1.16,1.1,1.93c0.03,0.13,0,0.25,0,0.38c-0.22-0.34-0.36-0.69-0.53-1.02
	c-0.37-0.75-0.99-1.28-1.67-1.78c-0.34-0.25-0.67-0.53-1.04-0.83c0.24,0.49,0.45,0.93,0.65,1.37c0.63,1.43,0.75,2.87,0.12,4.32
	c-0.12,0.29-0.37,0.57-0.63,0.75c-0.32,0.24-0.75,0.04-0.89-0.33c0.04,0,0.07,0,0.11,0.01c0.62,0.2,0.79,0.15,1.08-0.45
	c0.53-1.11,0.49-2.26,0.12-3.4c-0.48-1.49-1.47-2.72-2.23-4.06c-0.42-0.75-0.83-1.52-1.2-2.3c-0.12-0.24-0.22-0.33-0.46-0.32
	c-0.37,0.03-0.75,0.07-1.11,0.03c-0.83-0.12-1.67-0.26-2.5-0.44c-1.68-0.36-3.32-0.9-4.84-1.73c-0.46-0.25-0.89-0.57-1.33-0.86
	c-0.21-0.13-0.45-0.21-0.65-0.36c-0.66-0.49-1.32-0.96-1.96-1.48c-1.12-0.87-2.3-1.68-3.21-2.8c-0.41-0.52-0.81-1.04-0.96-1.69
	c-0.22-0.93-0.41-1.85-0.62-2.78c-0.04-0.2-0.09-0.41-0.15-0.69c-0.2,0.12-0.38,0.17-0.48,0.3c-0.54,0.77-0.95,1.63-1.08,2.55
	c-0.13,0.91-0.16,1.84-0.17,2.76c-0.01,0.77-0.07,1.57,0.15,2.27c3.67,11.78,10.61,21.16,20.83,28.06
	c8.14,5.5,17.15,8.37,26.97,8.75c4.77,0.19,9.5-0.25,14.14-1.39c10.15-2.5,18.81-7.53,25.89-15.17c0.17,0.22,0.3,0.41,0.38,0.52
	c0.3,0.41-0.03-0.66,0.37-0.33c-0.07-0.09-0.21-0.28-0.44-0.53c0.11-0.12,0.21-0.24,0.33-0.37
	C119.78,109.69,124.13,99.38,125.07,87.66z M98.62,94.89c0.04-0.01,0.09-0.2,0.09-0.29c-0.05-0.59-0.07-1.19-0.17-1.78
	c-0.37-2.13-1.08-4.15-1.89-6.15c-0.05-0.15-0.11-0.4-0.03-0.46c0.11-0.09,0.32-0.11,0.48-0.08c0.29,0.05,0.58,0.17,0.91,0.26
	c-0.03-0.09-0.04-0.15-0.05-0.17c-0.34-0.44-0.7-0.86-1.03-1.32c-0.42-0.59-0.83-1.19-1.23-1.81c-0.49-0.77-0.99-1.52-1.44-2.31
	c-0.66-1.18-1.3-2.37-1.93-3.56c-0.33-0.63-0.63-1.28-0.94-1.93c-0.16-0.33-0.29-0.67-0.46-1.07c-0.11,0.16-0.16,0.26-0.24,0.34
	c-0.26,0.34-0.54,0.67-0.83,1c-0.2,0.21-0.45,0.38-0.65,0.61c-0.19,0.21-0.36,0.4-0.67,0.3c0.24,0.38,0.48,0.78,0.71,1.16
	c0.5,0.87,1.03,1.74,1.51,2.63c0.44,0.83,0.91,1.63,1.63,2.26c0.28,0.24,0.61,0.52,1.02,0.42c0.15-0.04,0.25-0.26,0.38-0.42
	c0.01,0.01,0.08,0.05,0.08,0.09c-0.03,0.19-0.01,0.41-0.12,0.53c-0.11,0.11-0.36,0.17-0.52,0.13c-0.71-0.15-1.24-0.61-1.67-1.18
	c-0.4-0.54-0.74-1.11-1.12-1.64c-0.82-1.12-1.64-2.22-2.47-3.33c-0.28-0.36-0.57-0.7-0.87-1.02c-0.05-0.07-0.25-0.08-0.32-0.03
	c-0.26,0.19-0.53,0.4-0.74,0.63c-0.37,0.44-0.89,0.56-1.4,0.54c-0.89-0.01-1.77-0.09-2.66-0.17c-1.33-0.12-2.68-0.21-4.02-0.4
	c-0.44-0.07-0.99-0.12-1.18-0.69c-0.2-0.63-0.65-0.93-1.28-0.96c-0.46-0.04-0.94-0.03-1.41-0.01c-0.28,0.01-0.4-0.09-0.48-0.36
	c-0.09-0.28-0.21-0.54-0.32-0.78c-0.29,0.09-0.54,0.17-0.77,0.26c-0.41,0.16-0.86,0.28-1.2,0.52c-0.86,0.61-1.69,1.24-2.48,1.92
	c-0.56,0.48-1.1,0.99-1.53,1.56c-0.67,0.9-1.26,1.86-1.88,2.8c-0.7,1.06-1.39,2.11-2.37,2.93c-0.42,0.37-0.89,0.62-1.41,0.62
	c-0.2,0-0.4-0.03-0.61-0.11c-0.3-0.11-0.48-0.33-0.57-0.71c0.12,0.05,0.17,0.07,0.2,0.09c0.5,0.58,1.08,0.49,1.69,0.21
	c0.77-0.34,1.2-1.03,1.7-1.64c0.13-0.16,0.01-0.22-0.13-0.29c-0.96-0.37-1.92-0.71-2.68-1.45c-0.24-0.22-0.54-0.41-0.83-0.56
	c-0.57-0.29-1.18-0.52-1.73-0.82c-1.43-0.81-2.74-1.76-3.9-2.92c-0.21-0.21-0.42-0.41-0.59-0.63c-0.07-0.08-0.03-0.22-0.04-0.33
	c0.09,0.03,0.21,0.03,0.28,0.08c0.37,0.33,0.73,0.67,1.1,1c0.26,0.22,0.54,0.45,0.87,0.71c-0.95-3.87-0.83-7.71-0.73-11.56
	c-0.58,0.29-1.14,0.57-1.69,0.83c-0.42,0.21-0.86,0.4-1.3,0.58c-0.19,0.08-0.38,0.17-0.57,0.26c-0.28,0.12-0.54,0.24-0.83,0.3
	c-0.78,0.19-1.6,0.22-2.29,0.7c-0.01,0.01-0.04,0.03-0.07,0.03c-1.11,0.49-2.01,1.19-2.47,2.35c-0.05,0.15-0.07,0.36,0,0.49
	c0.41,0.9,0.85,1.77,1.26,2.66c0.36,0.78,0.66,1.57,1.02,2.35c0.28,0.62,0.66,1.15,1.35,1.37c0.29,0.09,0.53,0.08,0.7-0.2
	c0.22-0.4,0.5-0.77,0.67-1.18c0.52-1.2,1-2.42,1.47-3.65c0.33-0.9,0.41-1.85,0.17-2.79c-0.19-0.69-0.17-1.49-0.96-1.93
	c0.07-0.04,0.12-0.08,0.17-0.11c0.04-0.03,0.08-0.05,0.12-0.07c0.7,0.66,1.08,1.56,1.14,2.5c0.07,1.37-0.25,2.68-0.77,3.94
	c-0.45,1.08-0.96,2.15-1.45,3.22c-0.91,2-2.17,3.77-3.56,5.45c-0.21,0.24-0.44,0.48-0.66,0.7c0.03,0.03,0.04,0.05,0.07,0.08
	c0.86-0.52,1.7-1.04,2.54-1.55c0.04,0.19,0.12,0.34,0.09,0.48c-0.07,0.22-0.15,0.49-0.3,0.63c-0.81,0.75-1.11,1.77-1.49,2.76
	c-0.81,2.13-1.04,4.3-0.61,6.53c0.19,0.99,0.36,1.97,0.54,2.96c0.03,0.12,0.12,0.24,0.21,0.4c0.16-0.17,0.26-0.3,0.37-0.44
	c0.17-0.21,0.34-0.45,0.53-0.65c0.08-0.08,0.21-0.15,0.3-0.13c0.05,0,0.12,0.16,0.15,0.25c0.04,0.13,0.07,0.28,0.07,0.42
	c0.03,1.16,0.04,2.33,0.09,3.48c0.03,0.81,0.04,1.61,0.21,2.38c0.34,1.56,0.77,3.08,1.18,4.61c0.48,1.72,1.1,3.4,1.86,5
	c0.46,0.98,1.07,1.89,1.64,2.83c0.25,0.4,0.56,0.78,0.83,1.15c0.21-0.08,0.38-0.15,0.53-0.2c-0.01,0.22-0.07,0.44-0.03,0.62
	c0.04,0.2,0.17,0.38,0.29,0.57c0.49,0.78,0.99,1.55,1.47,2.33c0.17,0.28,0.25,0.59,0.4,0.94c0.07-0.11,0.11-0.15,0.12-0.2
	c0.11-0.63,0.22-1.27,0.32-1.9c0.03-0.09-0.01-0.2-0.05-0.29c-0.26-0.63-0.56-1.28-0.81-1.93c-0.09-0.22-0.12-0.46-0.17-0.7
	c0.04-0.01,0.08-0.03,0.12-0.04c0.09,0.16,0.2,0.3,0.28,0.48c0.56,1.12,1.11,2.26,1.67,3.38c0.16,0.32,0.32,0.63,0.52,0.9
	c1,1.28,2.29,2.25,3.58,3.2c0.58,0.41,1.24,0.71,1.88,1.04c0.91,0.48,1.82,0.93,2.75,1.37c0.74,0.36,1.51,0.7,2.26,1.04
	c0.67,0.29,1.35,0.61,2.05,0.87c1.12,0.44,2.15,1.03,3.11,1.8c0.44,0.36,0.89,0.7,1.36,1.08c0.12-0.26,0.21-0.5,0.34-0.74
	c0.67-1.27,1.36-2.54,2.04-3.81c0.83-1.57,1.86-3,3-4.36c0.63-0.73,1.16-1.53,1.39-2.51c0.15-0.65,0.36-1.28,0.54-1.92
	c0.03-0.11,0.15-0.17,0.22-0.25c0.04,0.11,0.11,0.21,0.11,0.32c-0.01,0.19-0.07,0.38-0.12,0.56c-0.16,0.53-0.44,1.06-0.46,1.59
	c-0.03,0.59-0.34,0.99-0.63,1.41c-0.63,0.93-1.28,1.84-1.92,2.78c-0.09,0.15-0.15,0.36-0.12,0.53c0.05,0.42,0.17,0.85,0.26,1.26
	c0.01,0.08,0.07,0.15,0.12,0.28c0.11-0.15,0.17-0.24,0.24-0.32c0.37-0.48,0.74-0.96,1.12-1.43c0.13-0.16,0.32-0.29,0.46-0.45
	c0.32-0.33,0.62-0.7,0.96-1.02c1.06-0.96,2.18-1.85,3.17-2.88c1.18-1.22,2.31-2.48,3.33-3.85c1.23-1.67,2.3-3.46,3.21-5.34
	c0.91-1.89,1.65-3.82,2.29-5.8c0.83-2.6,1.23-5.27,1.26-8.01c0-0.11,0.05-0.22,0.08-0.33c0.12,0.04,0.24,0.08,0.36,0.12
	C98.4,94.84,98.52,94.9,98.62,94.89z M96.11,9.24c0.05-0.4-0.57-0.78-0.94-0.63c-0.33,0.12-0.65,0.25-0.99,0.34
	c-1.85,0.52-3.77,0.65-5.67,0.82c-1.04,0.09-2.11,0.01-3.17-0.05c-0.75-0.04-1.47,0.04-2.19,0.25c-2.07,0.63-4.16,1.27-6.17,2.1
	c-0.86,0.36-1.76,0.66-2.59,1.06c-1.12,0.53-2.29,0.98-3.26,1.76c-0.69,0.56-1.45,1.04-2.02,1.7c-1.12,1.28-2.09,2.68-2.8,4.24
	c-0.56,1.22-1.14,2.43-1.59,3.69c-0.59,1.67-1.06,3.4-1.6,5.09c-0.3,0.93-0.66,1.84-1,2.75c-0.85,2.26-1.68,4.52-2.52,6.77
	c-0.48,1.27-0.98,2.52-1.47,3.78c-0.26,0.66-0.52,1.33-0.79,2.04c0.11-0.01,0.16-0.01,0.21-0.03c0.44-0.21,0.87-0.42,1.31-0.62
	c1.48-0.66,2.95-1.35,4.44-1.97c1.3-0.54,2.62-1.06,3.95-1.48c0.95-0.29,1.96-0.4,2.93-0.61c1.74-0.36,3.52-0.5,5.27-0.46
	c1.69,0.04,3.37,0.36,4.97,0.93c1.41,0.52,2.79,1.15,4.12,1.9c1.92,1.08,3.62,2.45,5.25,3.93c0.07,0.07,0.16,0.12,0.25,0.17
	c0.04-0.01,0.07-0.03,0.11-0.04c-0.11-0.65-0.16-1.32-0.36-1.94c-0.24-0.74-0.59-1.45-0.95-2.15c-0.24-0.45-0.49-0.94-0.86-1.28
	c-0.79-0.75-1.64-1.48-2.52-2.13c-1-0.74-2.05-1.45-3.15-2.06c-1.11-0.63-2.29-1.15-3.46-1.67c-0.81-0.34-1.67-0.59-2.51-0.86
	c-1.14-0.36-2.31-0.52-3.49-0.54C71.63,34,70.42,34,69.2,33.99c-0.12-0.01-0.24-0.05-0.34-0.08c0-0.04,0.01-0.07,0.01-0.11
	c2.89-0.19,5.79-0.12,8.6,0.63c2.82,0.75,5.33,2.17,7.72,3.79c0.01-0.05,0-0.09-0.01-0.12c-1.04-1.2-1.73-2.62-2.38-4.06
	c-0.5-1.1-1.15-2.1-1.94-3.01c-0.07-0.08-0.12-0.17-0.19-0.25c0.03-0.03,0.05-0.04,0.07-0.07c0.09,0.08,0.19,0.15,0.28,0.22
	c0.82,0.75,1.39,1.67,1.9,2.64c0.53,0.99,1.04,1.98,1.64,2.93c0.34,0.54,0.81,0.99,1.24,1.47c0.54,0.59,1.1,1.16,1.65,1.76
	c0.04-0.03,0.07-0.05,0.11-0.07c-0.03-0.11-0.05-0.2-0.08-0.3c-0.28-1.15-0.65-2.27-0.82-3.44c-0.24-1.59-0.34-3.19-0.44-4.77
	c-0.08-1.26-0.08-2.5-0.09-3.75c-0.01-1.23-0.09-2.48,0.03-3.7c0.07-0.69-0.01-1.15-0.53-1.59c-0.48-0.4-0.83-0.91-1.3-1.32
	c-0.65-0.58-1.48-0.85-2.27-1.15c-0.16-0.07-0.32-0.16-0.48-0.24c0-0.05,0.01-0.11,0.03-0.15c0.36,0,0.75-0.09,1.07,0.01
	c1.12,0.36,1.98,1.12,2.87,1.85c0.45,0.37,0.45,0.4,0.83-0.05c0.67-0.79,1.37-1.56,2.06-2.35c0.67-0.78,1.35-1.57,2.01-2.37
	c0.25-0.29,0.5-0.61,0.74-0.91c0.09-0.13,0.19-0.28,0.22-0.44c0.25-1,0.73-1.92,1.31-2.76c0.07-0.08,0.16-0.13,0.25-0.2
	c0.01,0.01,0.04,0.04,0.07,0.07c-0.22,0.42-0.45,0.86-0.67,1.28c0.03,0.03,0.07,0.05,0.09,0.08c0.12-0.09,0.22-0.17,0.34-0.26
	c0.45-0.37,0.9-0.74,1.35-1.11c0.62-0.5,1.24-0.99,1.6-1.72C95.93,10.03,96.06,9.63,96.11,9.24z M92.55,58.98
	c0.5-0.32,0.63-0.62,0.5-1.32c-0.41-1.96-0.93-3.87-2.18-5.5c-0.81-1.06-1.68-2.02-2.82-2.72c-0.7-0.44-1.45-0.79-2.19-1.18
	c-0.2-0.12-0.4-0.25-0.59-0.37c0.03-0.05,0.05-0.11,0.08-0.15c1.49,0.53,2.85,1.31,4.1,2.33c0.03-0.04,0.07-0.08,0.09-0.12
	c-0.56-0.56-1.11-1.1-1.67-1.64c0.04-0.03,0.08-0.07,0.12-0.11c2.01,1.32,3.09,3.4,4.28,5.39c0.01-0.16,0-0.3-0.04-0.44
	c-0.19-0.56-0.41-1.1-0.56-1.65c-0.13-0.58-0.2-1.18-0.25-1.77c-0.08-0.82-0.5-1.51-1.02-2.04c-0.9-0.95-1.9-1.81-2.92-2.64
	c-0.82-0.66-1.72-1.22-2.59-1.8c-1-0.69-2.13-1.15-3.24-1.6c-0.82-0.34-1.69-0.61-2.54-0.91c-1.06-0.37-2.14-0.58-3.26-0.63
	c-2.23-0.12-4.43,0.22-6.62,0.57c-1.4,0.22-2.74,0.71-4.06,1.23c-2.06,0.81-4.14,1.55-6.09,2.59c-1.03,0.57-2.04,1.18-3.05,1.8
	c-0.15,0.08-0.29,0.26-0.33,0.42c-0.29,0.98-0.54,1.96-0.81,2.92c-0.05,0.17-0.11,0.33-0.16,0.5c0.03,0.03,0.07,0.05,0.09,0.09
	c1.67-1.28,3.26-2.64,5.14-3.61c0.01,0.03,0.04,0.07,0.07,0.09c-1.1,0.82-2.19,1.65-3.28,2.47c0.01,0.03,0.03,0.05,0.04,0.08
	c0.12-0.03,0.24-0.05,0.34-0.11c1.18-0.49,2.35-0.96,3.53-1.47c0.33-0.13,0.58-0.05,0.82,0.19c0.07,0.05,0.12,0.12,0.16,0.17
	c0.19-0.09,0.33-0.2,0.5-0.26c0.93-0.33,1.86-0.62,2.75-1.02c0.81-0.37,1.64-0.62,2.5-0.79c0.38-0.08,0.71-0.01,0.99,0.17
	c0.15,0.09,0.26,0.3,0.29,0.48c0.01,0.01,0.01,0.03,0.01,0.04c0.07,0.45-0.24,0.78-0.48,1.11c-0.15,0.22-0.32,0.44-0.52,0.61
	c-0.21,0.2-0.5,0.32-0.69,0.53c-0.63,0.71-1.45,1.12-2.33,1.43c-0.53,0.17-1.03,0.01-1.52-0.15c-0.08-0.04-0.15-0.15-0.28-0.28
	c0.17,0.01,0.24,0.01,0.3,0.03c0.86,0.25,1.69,0.19,2.41-0.36c0.74-0.56,1.43-1.16,2.11-1.77c0.25-0.24,0.46-0.53,0.65-0.82
	c0.2-0.3,0.12-0.53-0.22-0.61c-0.3-0.08-0.66-0.13-0.95-0.04c-1.8,0.62-3.59,1.3-5.29,1.92c-0.13,0.45-0.15,0.86-0.34,1.18
	c-0.65,1.1-1.61,1.9-2.75,2.42c-0.89,0.38-1.64,0.91-2.39,1.48c-0.71,0.52-1.39,1.07-2.07,1.63c-0.61,0.48-1.31,0.62-2.05,0.7
	c-0.12,0.01-0.24-0.03-0.37-0.04c0-0.03,0-0.04,0.01-0.07c0.45-0.11,0.91-0.21,1.37-0.33c-0.22-0.16-0.53-0.09-0.75-0.4
	c0.21,0.03,0.32,0.05,0.42,0.05c0.59,0.01,1.18-0.05,1.67-0.44c0.59-0.46,1.19-0.95,1.78-1.43c0.25-0.21,0.5-0.42,0.77-0.65
	c-0.15-0.08-0.26-0.15-0.38-0.21c0.16-0.07,0.29-0.07,0.42-0.08c0.13-0.03,0.26-0.05,0.4-0.09c1.36-0.49,2.55-1.22,3.44-2.41
	c0.17-0.22,0.32-0.48,0.42-0.75c0.17-0.45-0.22-0.89-0.67-0.75c-0.5,0.15-0.99,0.36-1.48,0.57c-1.53,0.66-3.04,1.39-4.6,2
	c-2.25,0.89-4.41,1.88-6.42,3.21c-0.42,0.29-0.66,0.65-0.75,1.14c-0.04,0.21-0.12,0.42-0.17,0.62c-0.04,0-0.09,0-0.13,0
	c0-0.29,0-0.57,0-0.89c-0.3,0.11-0.41,0.22-0.34,0.48c0.05,0.22,0.04,0.46,0.07,0.69c-0.04,0.01-0.08,0.01-0.12,0.03
	c-0.28-0.2-0.15-0.54-0.24-0.82c-0.04,0.01-0.09,0.03-0.12,0.04c-1.44,0.95-2.87,1.92-4.31,2.87c-0.5,0.33-1.03,0.61-1.49,0.98
	c-0.49,0.38-0.95,0.82-1.37,1.3c-0.48,0.54-0.93,1.11-1.3,1.72c-0.61,0.98-1.14,2-1.73,2.97c-0.85,1.43-1.72,2.84-2.59,4.27
	c-0.52,0.82-1.03,1.63-1.55,2.44c-0.38,0.59-0.77,1.19-1.12,1.8c-0.49,0.83-0.71,1.73-0.54,2.7c0.13,0.69,0.29,1.37,0.44,2.07
	c0.03,0.08,0.07,0.17,0.09,0.25c0.2,0.53,0.38,1.06,0.59,1.59c0.45,1.11,0.89,2.23,1.35,3.34c0.07,0.16,0.22,0.29,0.37,0.41
	c0.13,0.11,0.33,0.16,0.46,0.28c0.2,0.19,0.36,0.41,0.54,0.59c0.74,0.75,1.49,1.48,2.23,2.23c0.99,1.03,2.18,1.78,3.42,2.48
	c0.25,0.13,0.54,0.24,0.9,0.4c0-0.48-0.05-0.87,0.01-1.24c0.21-1.41,0.4-2.84,0.71-4.23c0.57-2.38,1.24-4.73,1.86-7.1
	c0.21-0.81,0.37-1.61,0.63-2.41c0.34-1.06,0.73-2.09,1.14-3.12c0.22-0.56,0.52-1.07,0.81-1.67c-0.32,0.15-0.56,0.28-0.82,0.4
	c1.16-1.56,2.82-2.3,4.61-3c-0.42-0.08-0.74-0.15-1.07-0.2c0.01-0.04,0.01-0.07,0.03-0.09c0.29,0.03,0.59,0.05,0.98,0.08
	c-0.41-0.15-0.77-0.49-0.79-0.67c0.62,0.37,1.32,0.54,2.04,0.42c0.95-0.17,1.86-0.44,2.68-0.96c0.59-0.37,1.23-0.66,1.84-0.99
	c0.22-0.12,0.44-0.28,0.63-0.44c0.38-0.33,0.75-0.67,1.14-1c0.08-0.07,0.19-0.11,0.29-0.15c0.2-0.07,0.42-0.11,0.59-0.2
	c0.93-0.48,1.84-0.94,2.92-0.96c0.3,0,0.56-0.13,0.73-0.45c0.13-0.25,0.36-0.45,0.57-0.65c0.75-0.77,1.67-1.37,2.29-2.27
	c0.16-0.22,0.13-0.37-0.07-0.46c-0.32-0.16-0.66-0.36-0.99-0.37c-0.53-0.01-1.07,0.08-1.59,0.19c-0.29,0.07-0.56,0.28-0.83,0.42
	c-0.07,0.04-0.15,0.07-0.21,0.11c-0.3,0.24-0.59,0.48-0.89,0.7c0.49,0.19,1.06,0.25,1.43,0.71c-0.33-0.07-0.63-0.24-0.95-0.28
	c-0.37-0.05-0.83-0.48-1.14,0.13c-0.03,0.04-0.17,0.04-0.25,0.04c-0.37-0.03-0.75-0.13-1.1-0.05c-0.52,0.11-1.02,0.36-1.52,0.53
	c-0.12,0.04-0.26,0.05-0.38,0.03c-0.58-0.16-1.15-0.37-1.74-0.46c-0.78-0.13-1.57-0.16-2.35-0.22c0.26-0.05,0.57-0.11,0.86-0.16
	c0-0.04-0.01-0.07-0.01-0.09c-1.04,0.03-2.07,0.07-3.12,0.09c0.59-0.13,1.2-0.24,1.81-0.28c0.63-0.04,1.26,0,1.93,0
	c-1.36-0.56-2.85-0.63-4-1.35c0.74,0.17,1.59,0.34,2.42,0.57c1.47,0.4,2.95,0.81,4.33,1.44c0.13,0.05,0.3,0.04,0.45,0.01
	c0.37-0.09,0.74-0.34,1.08-0.3c0.73,0.08,1.19-0.17,1.64-0.7c0.19-0.22,0.56-0.29,0.82-0.48c0.94-0.67,1.88-1.37,2.79-2.06
	c0.12-0.08,0.16-0.25,0.28-0.44c0.33-0.01,0.69-0.19,0.95-0.56c0.17-0.24,0.38-0.48,0.63-0.65c0.58-0.4,1.22-0.77,1.81-1.15
	c0.09-0.07,0.15-0.19,0.22-0.28c-0.03-0.01-0.04-0.03-0.07-0.05c0.24-0.05,0.46-0.12,0.7-0.19c-0.01-0.03-0.03-0.05-0.03-0.08
	c-0.16-0.07-0.3-0.13-0.49-0.22c0.09-0.05,0.11-0.07,0.12-0.07c0.85,0.16,1.57-0.09,2.23-0.62c0.19-0.16,0.41-0.28,0.61-0.44
	c0.33-0.26,0.7-0.5,0.96-0.82c0.29-0.36,0.48-0.79,0.73-1.2c-0.21-0.25-0.49-0.32-0.83-0.2c-0.32,0.11-0.65,0.19-0.96,0.29
	c-0.16,0.05-0.33,0.08-0.46,0.17c-1,0.79-2.01,1.6-3.01,2.39c-1.07,0.85-2.14,1.68-3.21,2.51c-0.7,0.54-1.39,1.07-2.07,1.61
	c-0.44,0.33-0.89,0.66-1.28,1.03c-0.24,0.2-0.37,0.5-0.57,0.75c-0.29,0.38-0.58,0.4-0.98,0c0.09-0.01,0.16-0.05,0.22-0.05
	c0.33,0,0.57-0.13,0.74-0.44c0.36-0.63,0.86-1.14,1.47-1.53c0.33-0.21,0.63-0.46,0.95-0.7c-0.66-0.4-0.66-0.4-0.69-0.65
	c0.95,0.42,1.73,0.12,2.45-0.57c0.38-0.37,0.83-0.69,1.24-1.03c0.63-0.5,1.26-1.02,1.9-1.56c-0.28-0.05-0.52-0.11-0.75-0.16
	c-0.33-0.08-0.44-0.19-0.44-0.36c0.37,0.04,0.78,0.19,1.15,0.12c0.89-0.19,1.64-0.67,2.3-1.28c0.74-0.67,1.45-1.37,2.17-2.09
	c0.38-0.38,0.73-0.81,0.79-1.37c0.01-0.12-0.03-0.28-0.11-0.36c-0.16-0.15-0.37-0.25-0.56-0.37c-0.21-0.13-0.22-0.13-0.42,0.08
	c0.13,0.05,0.26,0.09,0.4,0.13c-0.08,0.07-0.15,0.09-0.2,0.08c-0.54-0.19-1.04,0-1.55,0.17c-0.12,0.05-0.25,0.09-0.38,0.11
	c-0.08,0.01-0.17-0.03-0.25-0.04c0.03-0.09,0.03-0.21,0.09-0.26c0.09-0.08,0.21-0.12,0.33-0.16c0.34-0.09,0.71-0.16,1.04-0.28
	c0.44-0.17,0.83-0.16,1.27,0.04c0.65,0.32,0.93,0.87,0.53,1.49c-0.19,0.32-0.44,0.59-0.69,0.87c-0.36,0.41-0.75,0.79-1.19,1.26
	c0.34-0.08,0.61-0.17,0.87-0.21c0.59-0.09,0.95,0.28,0.77,0.85c-0.13,0.4-0.11,0.66,0.22,1.02c0.62,0.67,1.12,1.47,1.65,2.23
	c0.19,0.26,0.37,0.38,0.7,0.36c1.94-0.13,3.89-0.13,5.82,0.28c1.24,0.25,2.5,0.53,3.74,0.85c1.03,0.26,2.02,0.66,2.92,1.28
	c0.08,0.05,0.24,0.05,0.33,0c0.15-0.07,0.26-0.2,0.41-0.29c0.56-0.36,1.14-0.57,1.76-0.19c0.3,0.19,0.56,0.44,0.83,0.63
	c0.69,0.49,1.39,0.95,2.07,1.43c0.07,0.05,0.13,0.16,0.15,0.24c0,0.05-0.11,0.13-0.19,0.15c-0.48,0.13-0.48,0.13-0.2,0.56
	c0.04,0.07,0.07,0.12,0.09,0.19C92.28,59.06,92.39,59.09,92.55,58.98z M92.47,62.33c0-0.07,0-0.13-0.01-0.2
	c-0.25-1.1-0.49-2.19-0.77-3.29c-0.04-0.17-0.22-0.32-0.34-0.48c-0.04-0.22,0.24-0.44-0.13-0.69c-0.71-0.5-1.4-1.06-2.09-1.6
	c-0.2-0.16-0.36-0.17-0.57-0.04c-0.81,0.52-1.61,1.02-2.42,1.53c-0.25,0.16-0.25,0.25,0.01,0.41c0.56,0.33,1.12,0.65,1.67,1
	c0.71,0.46,1.4,0.94,2.09,1.43c0.36,0.25,0.34,0.36-0.01,0.52c0.45,0.74,0.91,1.47,1.36,2.21c0.17-0.37,0.34-0.77,0.53-1.15
	C91.92,62.39,92.04,62.45,92.47,62.33z M90.46,63.99c0.33-0.41,0.3-0.79,0.11-1.23c-0.32-0.7-0.75-1.33-1.23-1.96
	c-0.32-0.42-0.66-0.79-1.16-0.98c-0.16-0.07-0.3-0.15-0.46-0.21c-0.62-0.28-1.26-0.56-1.88-0.82c-0.25-0.11-0.41-0.03-0.57,0.2
	c-0.52,0.7-0.9,1.48-1.16,2.31c-0.07,0.2-0.17,0.4-0.25,0.59c-0.03,0-0.07-0.01-0.09-0.03c0.01-0.12,0.01-0.25,0.04-0.37
	c0.22-1.1,0.58-2.13,1.12-3.11c0.32-0.56,0.62-1.15,1.24-1.47c0.11-0.05,0.21-0.11,0.34-0.16c-0.69-0.61-1.35-0.87-2.05-1.07
	c-0.67-0.2-1.36-0.4-2.05-0.54c-0.85-0.19-1.7-0.33-2.55-0.45c-1.06-0.13-2.1-0.29-3.16-0.22c-0.57,0.04-1.15-0.04-1.72-0.05
	c-0.16,0-0.3,0.05-0.45,0.08c0.07,0.46,0.54,0.73,0.46,1.24c-0.45-0.15-0.48,0.2-0.54,0.42c-0.09,0.3-0.28,0.36-0.54,0.41
	c-0.71,0.12-1.39-0.09-2.07-0.15c-1.12-0.12-2.25-0.36-3.36-0.04c-1.32,0.37-2.6,0.85-3.91,1.27c-0.01,0-0.01,0.04-0.03,0.05
	c1.06,0.7,1.85,1.89,1.56,2.3c-0.11-0.22-0.24-0.46-0.37-0.7c-0.2,0.13-0.34,0.21-0.49,0.3c-0.58,0.37-1.2,0.7-1.73,1.15
	c-0.5,0.42-0.91,0.98-1.35,1.48c-0.29,0.33-0.59,0.63-1.1,0.46c-0.04-0.01-0.12,0.03-0.17,0.05c-0.13,0.07-0.29,0.22-0.4,0.2
	c-0.42-0.11-0.73,0.12-1.06,0.28c-0.54,0.28-1.08,0.57-1.63,0.85c-0.01-0.01-0.01-0.03-0.03-0.04c0.11-0.08,0.21-0.16,0.33-0.24
	c-0.07-0.03-0.11-0.01-0.15,0.01c-0.52,0.37-1.03,0.75-1.53,1.14c-0.09,0.08-0.16,0.24-0.17,0.36c-0.07,0.91-0.2,1.84-0.19,2.76
	c0.03,1.84,0.13,3.69,0.2,5.52c0.05,1.33,0.38,2.6,0.81,3.86c0.04,0.16,0.19,0.32,0.32,0.41c0.48,0.33,0.95,0.63,1.44,0.93
	C59.2,79,59.6,79.2,59.97,79.4c-0.12-0.34-0.3-0.63-0.45-0.93s-0.28-0.62-0.38-0.94c-0.11-0.3-0.16-0.62-0.22-0.93
	c0.04-0.01,0.08-0.03,0.12-0.04c0.24,0.48,0.5,0.95,0.73,1.44c0.36,0.79,0.85,1.51,1.47,2.07c0.85,0.77,1.85,1.31,2.92,1.7
	c0.21,0.08,0.33,0.04,0.44-0.12c0.37-0.58,0.75-1.15,1.11-1.73c1.03-1.73,2.18-3.36,3.73-4.68c1.02-0.89,2.04-1.74,3.41-2.02
	c0.05-0.01,0.15-0.13,0.13-0.19c-0.01-0.3-0.05-0.59-0.09-0.95c-0.36,0.28-0.57,0.7-1.03,0.79c0.16-0.49,1.67-2,2-2
	c-0.04,0.07-0.05,0.13-0.11,0.19c-0.5,0.5-0.63,1.14-0.44,1.8c0.13,0.48,0.4,0.91,0.58,1.36c0.09,0.22,0.24,0.25,0.46,0.21
	c0.36-0.08,0.73-0.17,1.1-0.21c0.77-0.08,1.41,0.28,1.7,0.89c0.26,0.56,0.67,0.91,1.32,0.93c0.13,0,0.26,0.03,0.4,0.05
	c0.93,0.13,1.85,0.29,2.78,0.38c0.91,0.08,1.82,0.07,2.74,0.11c0.83,0.04,1.57-0.22,2.17-0.78c0.54-0.5,1.12-0.7,1.92-0.41
	c0-0.41-0.04-0.77,0.01-1.11c0.08-0.61,0.01-1.19-0.15-1.77c-0.05-0.17-0.19-0.3-0.28-0.46c-0.04,0.01-0.08,0.03-0.13,0.04
	c-0.01,0.32,0,0.63-0.04,0.95c-0.03,0.12-0.13,0.22-0.21,0.34c-0.04-0.13-0.09-0.25-0.11-0.37c-0.08-0.5-0.01-1.08-0.24-1.51
	c-0.66-1.2-1.84-1.81-3.07-2.3c-0.99-0.38-2.05-0.49-3.11-0.59c-0.42-0.04-0.85-0.08-1.27-0.12c-0.17-0.03-0.34-0.09-0.52-0.09
	c-0.33,0-0.67,0.04-1,0.07c-0.01-0.04-0.03-0.09-0.04-0.13c0.12-0.05,0.24-0.13,0.36-0.15c0.5-0.04,1.02-0.11,1.52-0.09
	c1.72,0.01,3.44,0.04,5.02,0.86c0.81,0.41,1.57,0.87,2.21,1.53c0.38,0.4,0.61,0.96,1.18,1.2c0.07,0.03,0.13,0.16,0.15,0.25
	c0.08,0.33,0.19,0.66,0.19,0.99c0,0.69-0.08,1.37-0.09,2.06c0,0.34-0.19,0.53-0.49,0.65c-0.13,0.05-0.28,0.09-0.49,0.17
	c0.26,0.24,0.46,0.42,0.67,0.61c0.28-0.29,0.56-0.59,0.86-0.87c1.07-0.99,1.49-2.18,1.07-3.59c-0.19-0.59-0.46-1.18-0.75-1.72
	c-0.52-0.95-1.24-1.74-2.07-2.42c-0.62-0.52-1.33-0.91-1.98-1.39c-0.28-0.19-0.61-0.29-0.63-0.78c-0.09-1.12,0.12-2.14,0.75-3.07
	c0.34-0.49,0.83-0.71,1.4-0.57c0.78,0.19,1.33,0.7,1.64,1.4c0.49,1.2,0.48,2.43-0.01,3.67c0.17,0.08,0.36,0.16,0.56,0.24
	c-0.01,0.05-0.03,0.11-0.04,0.16c-0.5-0.07-1-0.12-1.53-0.19c0.63,0.65,1.23,1.26,1.88,1.92c0.03-0.22,0.09-0.44,0.04-0.59
	c-0.08-0.24,0-0.38,0.17-0.52c0.34-0.29,0.34-0.33,0.08-0.69c-0.07-0.09-0.16-0.17-0.24-0.26c-0.21-0.24-0.45-0.48-0.17-0.82
	c0.04-0.05,0.04-0.15,0.05-0.22C89.72,65.37,89.95,64.63,90.46,63.99z M88.63,66.38c0.03-0.62,0.09-1.26,0.04-1.88
	c-0.04-0.65-0.32-1.23-0.83-1.68c-0.48-0.41-0.89-0.49-1.28-0.24c0.08,0.08,0.16,0.15,0.24,0.22c0.48,0.46,0.54,1.19,0.16,1.72
	c-0.33,0.48-0.93,0.52-1.28,0.08c-0.09-0.11-0.15-0.25-0.21-0.38c-0.03,0.01-0.05,0.01-0.08,0.01c-0.05,0.48-0.12,0.95-0.15,1.43
	c-0.01,0.11,0.08,0.26,0.16,0.3c0.69,0.32,1.37,0.62,2.09,0.9c0.3,0.13,0.65,0.19,1,0.29C88.54,66.85,88.62,66.61,88.63,66.38z
	 M73.39,55.97c0.45,0.05,0.81-0.28,0.71-0.73c-0.04-0.2-0.12-0.41-0.21-0.59c-0.29-0.53-0.56-1.08-0.9-1.59
	c-0.41-0.57-0.89-1.1-1.35-1.63c-0.05-0.05-0.22-0.09-0.28-0.05c-0.22,0.15-0.4,0.36-0.62,0.5c-0.62,0.41-1.26,0.85-1.9,1.2
	c-0.36,0.2-0.77,0.21-1.11,0.49c-0.66,0.54-1.4,0.98-2.1,1.47c-0.33,0.24-0.65,0.5-0.96,0.78c-0.21,0.19-0.37,0.4-0.67,0.54
	c-0.46,0.21-0.85,0.63-1.26,0.96c0.01,0.04,0.03,0.07,0.04,0.09c1.47-0.49,2.97-0.86,4.4-1.61c-0.21-0.11-0.37-0.2-0.53-0.28
	c0-0.04,0.01-0.07,0.03-0.11c0.11,0,0.21-0.01,0.3,0c0.2,0.01,0.4,0.04,0.59,0.05c0.34,0.01,0.7,0.01,1.04,0.04
	c0.48,0.04,0.94,0.09,1.41,0.13C71.16,55.76,72.27,55.85,73.39,55.97z M60.67,34.55c0.17-0.44,0.29-0.9,0.45-1.35
	c-28.78,6.58-45.66,36.46-38.16,63.74c0-0.16,0-0.32,0-0.48c-0.01-1.23-0.03-2.47-0.05-3.7c-0.01-0.91,0.04-1.84-0.08-2.74
	c-0.13-0.94-0.44-1.86-0.65-2.79c-0.04-0.17-0.04-0.38,0.01-0.56c0.09-0.38,0.21-0.78,0.36-1.15c0.5-1.24,0.98-2.5,1.55-3.7
	c0.4-0.86,0.94-1.64,1.43-2.45c0.38-0.65,0.78-1.28,1.22-1.9c0.19-0.26,0.28-0.54,0.34-0.85c0.17-0.89,0.26-1.8,0.87-2.55
	c0.37-0.48,0.69-0.99,1.2-1.32c0.46-0.3,0.85-0.7,1.45-0.82c0.37-0.08,0.81-0.3,1.02-0.61c1.28-1.89,2.54-3.81,3.77-5.75
	c1.07-1.7,2.06-3.45,3.11-5.18c0.19-0.32,0.34-0.67,0.59-0.93c0.29-0.28,0.67-0.48,1.02-0.7c0.85-0.54,1.69-1.07,2.54-1.61
	c0.94-0.61,1.86-1.23,2.8-1.84c0.52-0.33,1.02-0.69,1.39-1.22c0.15-0.2,0.36-0.37,0.58-0.5c1.2-0.71,2.41-1.44,3.65-2.11
	c0.98-0.54,2.01-1,3-1.52c0.11-0.05,0.2-0.16,0.22-0.25c0.36-1.14,0.7-2.26,1.07-3.38c0.07-0.2,0.24-0.38,0.41-0.49
	c0.36-0.2,0.61-0.45,0.69-0.86c0.03-0.13,0.09-0.25,0.15-0.37c0.62-1.41,1.28-2.82,1.85-4.24C59.23,38.44,59.94,36.49,60.67,34.55z
	 M50.46,78c-0.04-0.04-0.05-0.07-0.08-0.07c-0.05-0.01-0.11-0.04-0.16-0.04c-0.85,0.04-1.36-0.53-1.69-1.14
	c-0.53-0.98-0.9-2.04-1.35-3.05c-0.33-0.73-0.69-1.44-1.07-2.22c-0.16,0.34-0.28,0.59-0.38,0.85c-0.53,1.24-0.93,2.51-1.22,3.82
	c-0.11,0.49-0.28,0.96-0.41,1.45c-0.3,1.27-0.62,2.52-0.91,3.79c-0.03,0.07,0,0.17,0.05,0.22c1,1.31,2,2.63,2.72,4.12
	c0.26,0.56,0.49,1.14,0.75,1.74c0.07-0.15,0.11-0.24,0.13-0.33c0.33-0.82,0.63-1.65,0.99-2.46c0.2-0.42,0.49-0.79,0.74-1.19
	c0.08-0.12,0.22-0.3,0.19-0.37c-0.12-0.2-0.29-0.07-0.42,0.03c-0.41,0.28-0.79,0.57-1.2,0.82c-0.33,0.19-0.69,0.33-1.04,0.49
	c-0.03-0.04-0.05-0.08-0.08-0.12c0.26-0.37,0.53-0.75,0.81-1.12c0.65-0.86,1.32-1.7,1.96-2.58c0.4-0.53,0.75-1.1,1.1-1.65
	C50.09,78.67,50.28,78.33,50.46,78z M46.71,101.72c0.49-0.73,0.96-1.44,0.79-2.37c-0.3-1.59-0.65-3.17-0.96-4.76
	c-0.08-0.45-0.16-0.9-0.24-1.35c-0.03-0.01-0.05-0.03-0.08-0.04c-0.48,0.93-0.94,1.88-1.89,2.43c0.01-0.16,0.08-0.28,0.15-0.41
	c0.52-0.89,1.07-1.76,1.55-2.67c0.53-1.03,0.59-2.19,0.57-3.33c-0.01-1.14-0.34-2.22-0.94-3.21c-0.61-1.03-1.28-2.05-1.93-3.07
	c-0.22-0.34-0.48-0.63-0.75-1c-0.09,0.29-0.15,0.53-0.25,0.74c-0.15,0.34-0.19,0.62,0.15,0.93c0.2,0.17,0.29,0.48,0.44,0.71
	c-0.04,0.03-0.08,0.04-0.12,0.07c-0.22-0.3-0.45-0.61-0.67-0.9c-0.03,0-0.05,0-0.08,0.01c-0.21,2.17-1.06,4.24-0.91,6.48
	c0.16,0.04,0.32,0.11,0.5,0.15c0.17,0.04,0.37,0.05,0.56,0.11c0.53,0.12,1.36-0.21,1.67-0.67c0.41-0.62,0.61-1.32,0.82-2.01
	c0.03-0.12-0.05-0.28-0.09-0.48c-0.44,0.96-0.82,1.84-1.2,2.7c-0.04-0.01-0.07-0.03-0.09-0.04c0.32-1.02,0.89-1.96,0.94-3.05
	c-0.42,0.91-0.85,1.84-1.27,2.75c-0.03-0.01-0.05-0.03-0.08-0.04c0.03-0.09,0.05-0.2,0.09-0.3c0.28-0.7,0.56-1.4,0.85-2.1
	c0.15-0.36,0.33-0.7,0.17-1.12c0.34,0.33,0.66,0.66,0.89,1.04c0.46,0.77,0.52,1.55-0.11,2.26c-0.24,0.28-0.44,0.59-0.71,0.81
	c-0.66,0.5-1.36,0.95-2.27,0.67c-0.24-0.07-0.49-0.09-0.73-0.09c-0.48,0.01-0.87-0.2-1.27-0.4c-0.65-0.33-1.28-0.69-1.9-1.07
	c-0.49-0.3-0.96-0.63-1.44-0.96c-0.13-0.09-0.24-0.21-0.36-0.32c-0.71-0.71-1.44-1.41-2.14-2.14c-0.25-0.25-0.45-0.57-0.67-0.85
	c-0.03,0.01-0.04,0.03-0.07,0.04c0.17,0.4,0.36,0.79,0.53,1.19c0.19,0.38,0.37,0.78,0.37,1.22c-0.07-0.03-0.09-0.05-0.12-0.09
	c-0.7-1.33-1.43-2.67-2.11-4.02c-0.91-1.78-1.84-3.57-2-5.62c-0.05-0.65-0.24-1.3-0.2-1.94c0.05-1.12,0.34-2.19,0.9-3.21
	c-0.62,0.36-1.26,0.67-1.82,1.08c-0.57,0.41-1.02,0.94-1.27,1.63c-0.74,2.05-0.79,4.18-0.62,6.3c0.13,1.74,0.42,3.49,0.63,5.23
	c0.03,0.21,0,0.44,0,0.66c-0.04,0-0.09,0-0.13,0.01c-0.05-0.25-0.11-0.5-0.16-0.75c-0.03,0-0.04,0-0.07,0
	c-0.17,0.53-0.36,1.04-0.53,1.57c-0.04-0.01-0.07-0.01-0.09-0.03c0.17-0.63,0.36-1.28,0.52-1.92c0.04-0.17,0.03-0.36,0.04-0.54
	c-0.04,0-0.08-0.01-0.12-0.01c-0.17,0.41-0.34,0.81-0.53,1.22c-0.03-0.01-0.05-0.03-0.09-0.04c0.19-0.5,0.37-1,0.54-1.52
	c0.05-0.16,0.05-0.33,0.08-0.5c-0.03,0-0.07,0-0.11-0.01c-0.16,0.4-0.32,0.79-0.49,1.19c0.09-0.9,0.73-1.7,0.32-2.64
	c-0.24,0.83-0.46,1.67-0.7,2.48c-0.04,0-0.09-0.01-0.13-0.03c0.03-0.21,0.05-0.41,0.09-0.62c0.22-1.31,0.65-2.59,0.56-3.95
	c-0.05-0.96-0.01-1.93-0.01-2.91c-0.01,0-0.04,0-0.05-0.01c-0.03,0.05-0.05,0.09-0.09,0.15c-0.61,1.02-1.19,2.06-1.82,3.07
	c-0.96,1.49-1.59,3.15-2.17,4.81c-0.04,0.09-0.03,0.21-0.01,0.32c0.04,0.21,0.13,0.42,0.17,0.63c0.09,0.67,0.19,1.33,0.28,2.01
	c0.04,0.24,0.16,0.29,0.4,0.34c0.56,0.12,1.1,0.32,1.64,0.49c0.08,0.03,0.15,0.16,0.2,0.25c0.32,0.53,0.41,1.14,0.53,1.73
	c0.12,0.57,0.22,1.14,0.29,1.72c0.09,0.74,0.36,1.41,0.9,1.94c0.15,0.13,0.4,0.17,0.49,0.32c0.54,0.85,1.4,1.36,2.11,2.01
	c0.74,0.67,1.61,1.22,2.46,1.76c1.3,0.86,2.67,1.59,4.16,2.07c1.78,0.58,3.58,0.94,5.46,0.93c1.33-0.01,2.63-0.33,3.93-0.67
	c0.33-0.08,0.69-0.11,0.66-0.62C46.53,101.61,46.61,101.66,46.71,101.72z M46.94,93.58C46.94,93.58,46.94,93.58,46.94,93.58
	c-0.04-0.56-0.11-1.11-0.16-1.72c-0.13,0.22-0.19,0.52-0.16,0.83c0-0.26,0.05-0.5,0.16-0.7C46.83,92.55,46.88,93.08,46.94,93.58z
	 M45.22,88.55c0.01-0.09,0-0.19-0.05-0.29c-0.19,0.32-0.36,0.63-0.53,0.95c0.05-0.04,0.08-0.07,0.13-0.11
	c0.13-0.24,0.26-0.48,0.4-0.73C45.19,88.44,45.2,88.49,45.22,88.55z"/>
<path class="st1" d="M124.9,78.04c0.36,3.2,0.44,6.41,0.17,9.62c-0.94,11.72-5.29,22.03-13.14,30.79c-0.12,0.13-0.22,0.25-0.33,0.37
	c-1.11-1.33-3.98-4.59-4.3-5.05c-0.58-0.86-1.18-1.72-1.73-2.6c-0.78-1.23-1.53-2.48-2.27-3.74c-0.24-0.38-0.38-0.82-0.62-1.2
	c-0.62-1.03-1.26-2.05-1.9-3.07c-0.5-0.78-1.03-1.55-1.52-2.34c-0.21-0.33-0.38-0.69-0.58-1.02c-0.09-0.15-0.25-0.26-0.36-0.38
	c-0.04-0.37-0.13-0.78-0.12-1.18c0-0.62,0.07-1.24,0.12-1.86c0.04-0.01,0.09-0.03,0.13-0.03c0.2,0.4,0.37,0.79,0.58,1.19
	c0.05,0.12,0.17,0.22,0.25,0.33c0.05-0.13,0.15-0.26,0.15-0.41c0.03-0.57,0.05-1.14,0.04-1.7c-0.04-1.59-0.29-3.13-0.74-4.67
	c-0.26-0.89-0.46-1.81-0.73-2.7c-0.12-0.41-0.32-0.79-0.48-1.19c-0.04-0.12-0.08-0.22-0.12-0.34c0.03-0.03,0.04-0.07,0.07-0.09
	c0.36,0.13,0.71,0.26,1.08,0.38c0.11,0.04,0.24,0.04,0.36,0.07c0.03-0.13,0.09-0.29,0.04-0.38c-0.33-0.63-0.66-1.28-1.06-1.86
	c-0.78-1.14-1.61-2.22-2.39-3.36c-0.59-0.86-1.2-1.73-1.72-2.64c-0.46-0.83-0.83-1.72-1.23-2.59c-0.41-0.93-0.78-1.86-1.23-2.78
	c-0.16-0.32-0.24-0.62-0.25-0.96c-0.05-0.87-0.4-1.65-0.87-2.38c-0.09-0.15-0.13-0.36-0.17-0.54c-0.03-0.12,0.01-0.26-0.01-0.4
	c-0.11-0.45-0.09-0.82,0.32-1.18c0.41-0.36,0.26-0.48-0.12-0.98c-0.08-0.11-0.2-0.17-0.29-0.26c-0.16-0.16-0.21-0.33-0.12-0.56
	c0.32-0.79,0.59-1.6,0.9-2.39c0.01-0.04,0.04-0.07,0.08-0.11c0.28,0.41,0.42,0.41,0.67,0c0.11-0.19,0.21-0.38,0.22-0.59
	c0.05-0.37,0.25-0.46,0.58-0.46c0.58-0.01,0.61-0.01,0.63-0.59c0.05-0.83,0-1.65-0.29-2.43c-0.04-0.12-0.07-0.24-0.09-0.34
	c0.26-0.13,0.53-0.21,0.74-0.37c0.34-0.28,0.5-0.63,0.46-1.1c-0.13-1.14-0.52-2.22-0.86-3.29c-0.12-0.38-0.01-0.7,0.21-1
	c0.08-0.09,0.13-0.29,0.08-0.37c-0.42-0.61-0.77-1.24-0.9-1.96c-0.17-0.99-0.33-1.98-0.49-2.97c-0.07-0.45-0.32-0.78-0.65-1.07
	c-0.25-0.22-0.36-0.48-0.41-0.82c-0.19-1.04-0.36-2.1-0.63-3.13c-0.22-0.83-0.78-1.52-1.36-2.14c-0.44-0.49-0.46-1.1-0.59-1.67
	c-0.24-0.96-0.42-1.93-0.58-2.91c-0.16-0.96-0.25-1.94-0.38-2.97c0.15,0.04,0.25,0.05,0.36,0.08c16.86,4.84,30.25,17.92,35.39,34.63
	C123.88,71.52,124.54,74.75,124.9,78.04z"/>
<path class="st1" d="M112.04,119.35c-0.4-0.33-0.07,0.74-0.37,0.33c-0.08-0.11-0.21-0.29-0.38-0.52c0.09-0.11,0.2-0.22,0.32-0.34
	C111.83,119.08,111.97,119.26,112.04,119.35z"/>
<path d="M92.99,92.41c0.07,1.36,0.11,2.75-0.24,4.1c-0.15,0.56-0.38,1.1-0.58,1.65c-0.04,0-0.08,0.01-0.12,0.01
	c-0.13-0.25-0.26-0.5-0.42-0.82c-0.09,0.58-0.17,1.1-0.24,1.61c-0.16,1.19-0.42,2.37-0.89,3.49c-0.13,0.32-0.34,0.62-0.52,0.93
	c-0.04-0.01-0.08-0.04-0.12-0.05c0.99-2.34,1.33-4.81,1.49-7.32C91.38,96,91.4,96,91.43,96c0.22,0.36,0.45,0.73,0.67,1.1
	c0.04-0.01,0.09-0.01,0.13-0.03c0.22-2.18,0.42-4.36,0.21-6.57c0.05-0.01,0.09-0.03,0.15-0.04c0.07,0.11,0.19,0.22,0.2,0.34
	C92.89,91.32,92.97,91.86,92.99,92.41z"/>
<path d="M89.97,86.9c-0.01,0.04-0.03,0.08-0.03,0.12c-0.3-0.07-0.61-0.12-0.91-0.19c-0.42-0.11-0.86-0.19-1.27-0.33
	c-0.62-0.22-1.23-0.48-1.84-0.74c-0.45-0.2-0.87-0.44-1.32-0.65c-0.05-0.01-0.22,0.09-0.25,0.17c-0.38,0.98-1.23,1.33-2.14,1.63
	c-0.01,0.01-0.05-0.01-0.15-0.07c0.19-0.13,0.32-0.26,0.48-0.33c0.69-0.32,1.14-0.89,1.59-1.44c0.05-0.07,0.01-0.24-0.04-0.33
	s-0.19-0.13-0.26-0.2c-0.15-0.13-0.22-0.09-0.32,0.05c-1.1,1.47-2.59,2.25-4.39,2.29c-1.41,0.04-2.72-0.45-3.85-1.32
	c-0.15-0.12-0.24-0.29-0.4-0.48c-0.25,0.16-0.5,0.33-0.79,0.52c0.48,0.56,1.06,0.86,1.61,1.18c0.56,0.32,1.18,0.54,1.74,0.89
	c-0.17-0.01-0.34,0-0.5-0.04c-0.93-0.25-1.72-0.73-2.47-1.3c-0.11-0.09-0.21-0.21-0.28-0.33c-0.12-0.29-0.29-0.29-0.53-0.16
	c-0.75,0.44-1.51,0.85-2.26,1.27c-1.32,0.74-2.74,1.14-4.24,1.1c-0.86-0.01-1.72-0.12-2.58-0.21c-0.26-0.04-0.53-0.16-0.78-0.29
	c-0.21-0.11-0.37-0.29-0.3-0.57c0.29,0.16,0.54,0.37,0.85,0.48c1.37,0.49,2.75,0.26,4.12-0.03c1.43-0.3,2.68-0.98,3.9-1.74
	c1.49-0.94,2.95-1.94,4.39-2.95c0.9-0.63,1.69-1.43,2.62-2.01c0.74-0.46,1.23-1.1,1.78-1.7c0.26-0.26,0.54-0.52,0.82-0.77
	c0.03,0.01,0.05,0.03,0.08,0.05c-0.04,0.09-0.08,0.2-0.13,0.28c-0.3,0.41-0.58,0.85-0.93,1.19c-0.48,0.49-0.44,0.44-0.05,0.95
	c0.93,1.28,2.06,2.37,3.34,3.29c0.74,0.54,1.52,1.03,2.33,1.48c0.5,0.28,1.08,0.42,1.63,0.62C88.82,86.49,89.39,86.68,89.97,86.9z
	 M83.17,84.52c0.24-0.2,0.22-0.3-0.01-0.5c-0.34-0.29-0.69-0.59-1.04-0.89c-0.21-0.17-0.46-0.46-0.67-0.45
	c-0.44,0.03-0.87,0.22-1.35,0.36c0.34,0.4,0.94,0.41,1.03,0.96c-0.16-0.04-0.29-0.13-0.44-0.21c-0.73-0.36-1.47-0.73-2.21-1.07
	c-0.12-0.05-0.34-0.03-0.46,0.05c-0.82,0.59-1.64,1.22-2.46,1.82c-0.41,0.3-0.4,0.41,0,0.71c0.66,0.48,1.41,0.77,2.19,0.94
	c0.56,0.12,1.14,0.22,1.69,0.19c0.85-0.07,1.68-0.29,2.38-0.81C82.29,85.28,82.73,84.9,83.17,84.52z"/>
<path d="M79.32,19.08c-0.59,0.22-1.2,0.2-1.6-0.08C78.26,18.83,78.75,19,79.32,19.08z"/>
<path d="M77.51,61.27c0.19,0.3,0.21,0.67,0.04,1.07c-0.04-0.07-0.08-0.09-0.08-0.13c0.04-0.77-0.4-1.36-0.81-1.94
	c-0.22-0.32-0.48-0.62-0.73-0.93c0.22,0.2,0.46,0.38,0.65,0.61C76.91,60.37,77.23,60.81,77.51,61.27z"/>
<path d="M75.91,59.29c0.01,0.01,0.01,0.03,0.03,0.05c-0.01-0.01-0.03-0.03-0.04-0.04L75.91,59.29z"/>
<path d="M75.91,59.29L75.9,59.3c0-0.01-0.01-0.03-0.01-0.04C75.89,59.27,75.89,59.27,75.91,59.29z"/>
<path d="M75.88,59.26c-0.4-0.42-0.81-0.85-1.2-1.27c0.03-0.03,0.07-0.05,0.09-0.08C75.21,58.3,75.64,58.69,75.88,59.26z"/>
<path d="M72.95,66.37c0.16,0.34,0.16,0.3-0.24,0.4c-0.57,0.13-1.12,0.32-1.68,0.48c-0.9,0.25-1.82,0.34-2.75,0.25
	c-0.94-0.09-1.86-0.26-2.8-0.36c-0.45-0.04-0.93-0.04-1.36,0.05c-1.44,0.34-2.78,0.95-3.94,1.88c-0.29,0.22-0.56,0.52-0.83,0.78
	c-0.03-0.03-0.05-0.05-0.08-0.07c0.41-1.11,1.56-1.39,2.42-2.14c-0.24,0.03-0.41,0.04-0.57,0.05c1.19-0.81,2.5-1.18,3.99-1.19
	c-0.07-0.29-0.12-0.54-0.17-0.78c-0.25-1.04-0.11-2.05,0.24-3.04c0.34-1,1.11-1.59,1.96-2.06c0.57-0.33,1.24-0.36,1.9-0.26
	c0.15,0.01,0.29,0.07,0.42,0.09c0.36,0.07,0.62,0.2,0.86,0.49c0.4,0.49,0.86,0.93,1.3,1.4c0.2,0.2,0.4,0.41,0.21,0.73
	c-0.03,0.05,0.01,0.16,0.05,0.22c0.45,0.89,0.86,1.78,1,2.78C72.89,66.17,72.91,66.28,72.95,66.37z M72.47,66.52
	c0.2-0.05,0.25-0.15,0.17-0.32c-0.04-0.09-0.09-0.19-0.12-0.29c-0.15-0.48-0.24-0.98-0.44-1.44c-0.22-0.57-0.53-1.1-0.78-1.64
	c-0.46-0.95-1.16-1.68-2.19-1.96c-0.42-0.12-0.9-0.01-1.36-0.01c0,0.03-0.01,0.07-0.01,0.11c0.05,0.04,0.09,0.08,0.15,0.12
	c0.46,0.4,0.71,0.89,0.62,1.52c-0.05,0.33-0.08,0.66-0.13,1c-0.04,0.32-0.15,0.66-0.48,0.77c-0.63,0.2-1.51,0.01-1.76-0.81
	c-0.19-0.61-0.08-1.18,0.11-1.76c-0.46,0.69-0.94,1.35-0.91,2.22c0.01,0.71,0.04,1.43,0.01,2.13c-0.03,0.33,0.11,0.42,0.37,0.48
	c0.48,0.11,0.94,0.22,1.4,0.34c1.23,0.32,2.45,0.33,3.67,0C71.35,66.83,71.91,66.66,72.47,66.52z"/>
<path d="M71.49,61.49c-0.87-0.95-1.93-1.4-3.01-1.88C69.32,59.5,71.08,60.56,71.49,61.49z"/>
<path d="M62.33,50.52c0.56,0,1.04,0,1.6,0C63.42,50.84,62.66,50.84,62.33,50.52z"/>
<path d="M62.85,51.05c0.12-0.09,0.29-0.15,0.46-0.16c-0.62,0.75-1.52,1.16-2.21,1.82c-0.69,0.69-1.55,1.06-2.47,1.33
	c0.03,0.03,0.05,0.05,0.09,0.09c-0.08,0.13-0.11,0.32-0.21,0.41c-0.83,0.75-1.64,1.56-2.54,2.22c-0.53,0.38-1.23,0.42-1.88,0.24
	c0.4-0.08,0.79-0.16,1.18-0.24c0.03-0.04,0.05-0.07,0.07-0.11c-0.13-0.07-0.26-0.13-0.41-0.2c0.04-0.04,0.07-0.07,0.09-0.11
	c0.07,0.01,0.13,0.01,0.19,0.03c0.48,0.12,0.86,0.05,1.23-0.32c0.59-0.61,1.26-1.14,1.88-1.69c0.08-0.07,0.13-0.15,0.22-0.24
	c-0.16-0.03-0.28-0.05-0.45-0.08c0.13-0.07,0.22-0.11,0.32-0.16c-0.15-0.07-0.25-0.13-0.45-0.22c0.16-0.04,0.22-0.08,0.29-0.07
	c0.94,0.13,1.64-0.33,2.34-0.86C61.33,52.18,62.08,51.61,62.85,51.05z"/>
<path class="st1" d="M61.12,33.2c-0.16,0.45-0.28,0.91-0.45,1.35c-0.73,1.94-1.44,3.9-2.21,5.84c-0.57,1.43-1.23,2.83-1.85,4.24
	c-0.05,0.12-0.12,0.24-0.15,0.37c-0.08,0.41-0.33,0.66-0.69,0.86c-0.17,0.11-0.34,0.29-0.41,0.49c-0.37,1.12-0.71,2.25-1.07,3.38
	c-0.03,0.09-0.12,0.2-0.22,0.25c-0.99,0.52-2.02,0.98-3,1.52c-1.24,0.67-2.45,1.4-3.65,2.11c-0.22,0.13-0.44,0.3-0.58,0.5
	c-0.37,0.53-0.87,0.89-1.39,1.22c-0.94,0.61-1.86,1.23-2.8,1.84c-0.85,0.54-1.69,1.07-2.54,1.61c-0.34,0.22-0.73,0.42-1.02,0.7
	c-0.25,0.25-0.41,0.61-0.59,0.93c-1.04,1.73-2.04,3.48-3.11,5.18c-1.23,1.94-2.48,3.86-3.77,5.75c-0.21,0.3-0.65,0.53-1.02,0.61
	c-0.61,0.12-0.99,0.52-1.45,0.82c-0.52,0.33-0.83,0.85-1.2,1.32c-0.61,0.75-0.7,1.67-0.87,2.55c-0.07,0.3-0.16,0.58-0.34,0.85
	c-0.44,0.62-0.83,1.26-1.22,1.9c-0.49,0.81-1.03,1.59-1.43,2.45c-0.57,1.2-1.04,2.46-1.55,3.7c-0.15,0.37-0.26,0.77-0.36,1.15
	c-0.05,0.17-0.05,0.38-0.01,0.56c0.21,0.93,0.52,1.85,0.65,2.79c0.12,0.9,0.07,1.82,0.08,2.74c0.03,1.23,0.04,2.47,0.05,3.7
	c0,0.16,0,0.32,0,0.48C15.45,69.66,32.33,39.78,61.12,33.2z"/>
<path d="M58.54,57.03c0.16-0.03,0.33-0.04,0.57-0.08c-0.19,0.16-0.29,0.29-0.42,0.37c-0.07,0.05-0.19,0.05-0.26,0.03
	c-0.05-0.01-0.11-0.15-0.08-0.19C58.38,57.09,58.47,57.05,58.54,57.03z"/>
<path d="M58.41,59.02c-0.01,0.05-0.01,0.09-0.03,0.15c-0.12-0.01-0.28,0.01-0.38-0.04c-0.33-0.19-0.65-0.41-0.99-0.58
	c-0.33-0.19-0.69-0.32-1.03-0.48c0.01-0.04,0.04-0.08,0.05-0.12C56.82,58.31,57.61,58.67,58.41,59.02z"/>
<path d="M54.97,97.51c-0.03,1.9-0.07,3.81-0.11,5.71c-0.01,0.01-0.04,0.03-0.05,0.04c-0.07-0.13-0.17-0.28-0.17-0.42
	c0.03-1.39,0.07-2.79,0.12-4.18C54.77,98.27,54.87,97.89,54.97,97.51z"/>
<path d="M54.69,58.23c-0.38,0.13-0.94-0.09-1.1-0.46C53.94,57.91,54.28,58.06,54.69,58.23z"/>
<path d="M52.29,71.1c0.15,0.54,0.01,1.16-0.01,1.73c0,0.09-0.13,0.17-0.21,0.25c-0.26,0.22-0.36,0.48-0.28,0.83
	c0.08,0.28,0.03,0.57,0.03,0.86c0,0.04,0,0.07-0.01,0.11c-0.13,0.26-1.11,0.41-1.39,0.15c0.24-0.07,0.42-0.13,0.62-0.16
	c0.24-0.04,0.32-0.15,0.24-0.37c-0.04-0.11-0.05-0.22-0.08-0.33c-0.17-0.5-0.16-0.95,0.26-1.35c0.38-0.38,0.28-0.89,0.21-1.35
	c-0.05-0.34-0.15-0.69-0.24-1.02c-0.11-0.33-0.22-0.36-0.52-0.16c-0.19,0.13-0.37,0.25-0.57,0.34c-0.09,0.04-0.21-0.01-0.32-0.03
	c0.03-0.09,0.01-0.21,0.08-0.26c0.29-0.25,0.34-0.57,0.28-0.91c-0.01-0.08-0.08-0.19-0.15-0.24c-0.28-0.21-0.57-0.4-0.85-0.69
	c0.22,0.04,0.49,0.03,0.69,0.13C51.09,69.21,51.98,69.94,52.29,71.1z"/>
<path class="st1" d="M50.39,77.93c0.03,0,0.04,0.03,0.08,0.07c-0.19,0.33-0.37,0.67-0.58,1c-0.34,0.56-0.7,1.12-1.1,1.65
	c-0.63,0.87-1.31,1.72-1.96,2.58c-0.28,0.37-0.54,0.75-0.81,1.12c0.03,0.04,0.05,0.08,0.08,0.12c0.36-0.16,0.71-0.3,1.04-0.49
	c0.41-0.25,0.79-0.54,1.2-0.82c0.13-0.09,0.3-0.22,0.42-0.03c0.04,0.07-0.11,0.25-0.19,0.37c-0.25,0.4-0.54,0.77-0.74,1.19
	c-0.36,0.81-0.66,1.64-0.99,2.46c-0.03,0.09-0.07,0.19-0.13,0.33c-0.26-0.61-0.49-1.19-0.75-1.74c-0.73-1.49-1.72-2.82-2.72-4.12
	c-0.05-0.05-0.08-0.16-0.05-0.22c0.29-1.27,0.61-2.52,0.91-3.79c0.13-0.49,0.3-0.96,0.41-1.45c0.29-1.31,0.69-2.58,1.22-3.82
	c0.11-0.25,0.22-0.5,0.38-0.85c0.38,0.78,0.74,1.49,1.07,2.22c0.45,1.02,0.82,2.07,1.35,3.05c0.33,0.61,0.85,1.18,1.69,1.14
	C50.28,77.9,50.33,77.92,50.39,77.93z"/>
<path d="M46.09,66.53c-0.54,0.05-0.93-0.11-1.28-0.49C45.24,66.21,45.64,66.36,46.09,66.53z"/>
<path d="M43.95,86.21c0.04,0.01,0.08,0.01,0.13,0.03c-0.33,1.16-0.86,2.26-1.39,3.36C43.1,88.47,43.54,87.33,43.95,86.21z"/>
<path d="M43.95,85.72c-0.37,0.81-0.74,1.6-1.11,2.39c-0.03-0.01-0.05-0.03-0.08-0.04c0.34-0.81,0.69-1.63,1.03-2.43
	C43.84,85.67,43.9,85.69,43.95,85.72z"/>
<path d="M43.41,85.56c0.03,0,0.05,0.01,0.09,0.03c-0.22,0.96-0.74,1.82-1.18,2.7C42.68,87.37,43.04,86.46,43.41,85.56z"/>
<path d="M42.81,85.05c0.09-0.22,0.15-0.53,0.57-0.4c-0.4,1.48-1.08,2.87-1.73,4.27c0.07-0.2,0.13-0.41,0.19-0.62
	c0.19-0.7,0.36-1.41,0.56-2.11C42.5,85.8,42.65,85.43,42.81,85.05z"/>
<path d="M41.16,98.87c-0.07-0.57,1.22-1.89,1.73-1.78C42.34,97.73,41.82,98.33,41.16,98.87z"/>
<path d="M42.03,65.71c-0.01,0.03-0.03,0.04-0.04,0.07c-0.58-0.37-1.18-0.73-1.76-1.1c-0.33-0.21-0.33-0.57-0.29-0.9
	c0.04-0.25,0.12-0.5,0.25-0.74c-0.03,0.34-0.05,0.69-0.12,1.03c-0.04,0.22,0.04,0.37,0.22,0.48C40.87,64.93,41.45,65.33,42.03,65.71
	z"/>
<path d="M35.64,89.22c0.25,0.44,0.52,0.87,0.77,1.3c-0.41-0.08-0.85-0.81-0.86-1.24C35.58,89.26,35.61,89.25,35.64,89.22z"/>
<path d="M27.59,88.56c0.11,0.34-0.13,0.96-0.41,1.08c-0.08,0.03-0.25-0.03-0.28-0.09c-0.37-0.79-0.62-1.63-0.69-2.51
	c0-0.03,0.03-0.07,0.11-0.19c0.25,0.9,0.49,1.72,0.74,2.63C27.27,89.13,27.42,88.86,27.59,88.56z"/>
</svg>
