<?xml version="1.0" encoding="utf-8"?>
<!-- Generator: Adobe Illustrator 23.0.1, SVG Export Plug-In . SVG Version: 6.00 Build 0)  -->
<svg version="1.1" id="Layer_2" xmlns="http://www.w3.org/2000/svg" xmlns:xlink="http://www.w3.org/1999/xlink" x="0px" y="0px"
	 viewBox="0 0 144 144" style="enable-background:new 0 0 144 144;" xml:space="preserve">
<style type="text/css">
	.st0{fill:#BE1E2D;}
</style>
<path d="M128.67,83.71c0,1.09-0.03,2.2-0.09,3.32c-0.38,6.35-1.83,12.55-4.29,18.43c-1.83,4.37-4.25,8.49-7.39,12.58
	c-3.71,4.85-8.27,9.02-13.93,12.72c-5.56,3.64-11.89,6.21-18.8,7.64c-3.52,0.71-7.17,1.09-10.87,1.09c-0.86,0-1.72-0.03-2.59-0.07
	c-9.64-0.44-18.6-3.19-26.63-8.19c-4.73-2.95-8.91-6.49-12.4-10.48l-0.23-0.26c-0.49-0.56-0.98-1.13-1.43-1.71
	c-3.36-4.3-5.89-8.47-7.7-12.75c-1.84-4.33-3.08-8.47-3.79-12.71c-0.7-4.16-0.95-8.23-0.75-12.1c0.03-0.54,0.07-1.07,0.11-1.62
	c0.04-0.52,0.08-1.05,0.11-1.56c-0.57-1.31-1.11-2.54-1.69-3.76c-0.16-0.36-0.25-0.77-0.25-1.2c0-0.3,0.04-0.61,0.13-0.93
	c0.29-1.05,1.03-1.89,2-2.25c0.46-0.19,0.93-0.41,1.43-0.66c0.54-2.1,1.26-4.25,2.12-6.39c-0.25-0.11-0.52-0.21-0.77-0.32
	c-2-0.9-3.08-3.4-2.34-5.36l0.09-0.23c0.44-1.13,0.93-2.42,1.97-3.49c0.85-0.89,1.8-1.51,2.73-2.1l0.42-0.28
	c1.1-0.71,2.21-1.39,3.31-2.07l1.03-0.62c0.85-0.53,1.79-0.79,2.83-0.83c0.3-0.33,0.62-0.68,0.93-1.01c1.02-1.1,2.07-2.24,3.15-3.31
	c4.99-4.9,11.11-8.79,18.18-11.54c0.68-0.26,1.38-0.5,2.08-0.73c0.45-0.16,0.91-0.32,1.36-0.48c2.86-1.05,5.81-1.58,8.33-1.96
	c2.59-0.4,5.31-0.6,8.08-0.6c0.79,0,1.58,0.01,2.37,0.04c3.71,0.15,7.4,0.68,10.99,1.55c1.44-2.08,2.89-4.13,4.32-6.18l0.81-1.15
	c0.79-1.14,1.59-2.28,2.41-3.4c1.22-1.69,2.83-2.87,4.38-3.89c1.92-1.26,4.01-1.77,6.16-2.24c1.2-0.25,2.4-0.32,3.56-0.37l0.23-0.01
	c1.65-0.09,3.31-0.16,4.96-0.23l2.07-0.08c0.05-0.01,0.12-0.01,0.2-0.01c1.14,0,2.1,0.41,2.91,0.79c1.13,0.53,2.44,0.85,4.12,0.99
	c0.74,0.07,1.48,0.12,2.24,0.16l1.28,0.09c2.14,0.16,2.48,1.68,2.48,2.58c0,0.07-0.01,0.37-0.01,0.45c-0.17,1.68-1.3,2.5-1.97,2.99
	c-1.11,0.82-2.32,1.24-3.57,1.63c0,0.01-0.01,0.03-0.03,0.04c-0.45,0.58-0.86,0.98-1.31,1.3c-1.34,0.94-2.69,1.87-4.05,2.79
	c0,0-1.52,1.03-1.72,1.18c-0.04,0.13-0.07,0.28-0.11,0.42c-0.04,0.21-0.11,0.46-0.19,0.71c-0.65,2.25-1.39,4.94-1.87,7.68
	c-0.28,1.56-0.52,3.24-0.81,5.47c-0.12,0.87-0.17,1.73-0.16,2.55c0.01,0.04,0.07,0.13,0.11,0.23c0.09,0.23,0.19,0.45,0.24,0.69
	c0.12,0.5,0.48,0.89,1.06,1.47c0.23,0.23,0.45,0.45,0.65,0.69c2.46,2.83,4.46,5.57,6.1,8.41c2.46,4.24,4.24,8.31,5.44,12.47
	c0.9,3.15,1.52,6.13,1.89,9.12C128.54,79.13,128.67,81.45,128.67,83.71z M126.69,17.09c0.09-0.15,0.13-0.26,0.13-0.4
	c0-0.19-0.09-0.34-0.25-0.5c-0.09-0.09-0.25-0.21-0.37-0.2c-1.22,0.09-2.42,0.01-3.61-0.2c-1.76-0.3-3.53-0.58-5.22-1.22
	c-0.78-0.3-1.59-0.6-2.46-0.56c-2.4,0.12-4.81,0.21-7.2,0.4c-1.76,0.12-3.52,0.3-5.22,0.85c-0.93,0.29-1.83,0.62-2.62,1.16
	c-1.3,0.93-2.52,1.93-3.59,3.15c-1.16,1.32-2.3,2.67-3.27,4.17c-0.69,1.07-1.38,2.14-2.1,3.2c-0.53,0.77-1.11,1.51-1.64,2.26
	c-0.61,0.86-1.18,1.75-1.79,2.59c-0.5,0.69-1.05,1.35-1.58,2.03c-1.23,1.62-2.48,3.22-3.71,4.83c-0.19,0.24-0.36,0.5-0.54,0.75
	c0.48-0.07,0.91-0.12,1.35-0.19c0.16-0.03,0.3-0.05,0.46-0.07c1.09-0.19,2.17-0.38,3.26-0.49c1.64-0.17,3.3-0.36,4.95-0.38
	c1.31-0.01,2.63,0.17,3.94,0.32c1.63,0.19,3.23,0.54,4.75,1.13c2.44,0.95,4.54,2.42,6.37,4.29c1.5,1.52,2.85,3.18,3.96,5
	c0.16,0.26,0.33,0.5,0.5,0.75c0.15-0.41,0.21-0.79,0.25-1.19c0.11-0.95-0.07-1.89-0.28-2.81c-0.13-0.54-0.25-1.11-0.52-1.59
	c-0.52-0.89-1.09-1.75-1.69-2.57c-1.58-2.12-3.4-3.98-5.56-5.53c-1.15-0.83-2.32-1.69-3.68-2.14c-1.63-0.56-3.28-1.02-4.94-1.52
	c-0.13-0.04-0.28-0.09-0.41-0.15c0-0.04,0.01-0.07,0.01-0.11c0.21,0,0.42-0.04,0.62,0c5.64,1.07,10.37,3.67,13.87,8.33
	c0.01-0.15-0.03-0.24-0.05-0.33c-0.2-0.69-0.44-1.36-0.58-2.07c-0.23-1.01-0.36-2.05-0.6-3.06c-0.36-1.62-1.2-2.99-2.12-4.33
	c-0.24-0.34-0.52-0.65-0.77-0.98c0.79,0.7,1.43,1.54,2,2.41c0.64,0.98,1.11,2.01,1.34,3.16c0.2,0.99,0.41,1.99,0.64,2.98
	c0.28,1.3,1.05,2.4,1.59,3.59c0.09,0.23,0.25,0.42,0.38,0.65c0.04-0.05,0.07-0.08,0.07-0.09c0-0.07,0-0.13-0.01-0.21
	c-0.09-1.83,0.15-3.64,0.54-5.43c0.38-1.69,0.78-3.38,1.22-5.06c0.33-1.32,0.7-2.63,1.09-3.96c0.08-0.29,0.32-0.58,0.4-0.86
	c0.01-0.08,0.03-0.15,0.03-0.23c-0.01-0.37-0.34-0.73-0.53-1.1c-0.15-0.28-0.25-0.58-0.4-0.86c-0.45-0.79-1.13-1.36-1.87-1.88
	c-0.3-0.21-0.6-0.44-0.89-0.65c0.01-0.04,0.03-0.07,0.05-0.11c0.05-0.01,0.11-0.03,0.16-0.01c0.87,0.07,1.59,0.44,2.12,1.15
	c0.48,0.64,0.94,1.26,1.4,1.91c0.12,0.17,0.23,0.21,0.41,0.07c0.25-0.2,0.52-0.37,0.78-0.54c1.83-1.18,3.65-2.37,5.48-3.55
	c0.04-0.03,0.08-0.07,0.11-0.09c0.38-0.54,0.73-1.1,1.16-1.59c0.36-0.42,0.81-0.75,1.23-1.11c0.08-0.07,0.21-0.05,0.4-0.11
	c-0.36,0.58-0.98,0.81-1.18,1.4c0.32-0.13,0.58-0.32,0.89-0.45c0.49-0.23,1.02-0.4,1.51-0.62C125.6,18.23,126.24,17.78,126.69,17.09
	z M114.84,116.11c6.1-7.56,12.5-21.17,10.78-37.82c-1.19-11.49-5.71-21.52-13.4-30.14c-0.11,0.58-0.15,1.15-0.26,1.71
	c-0.07,0.33-0.01,0.6,0.17,0.86c0.25,0.38,0.34,0.81,0.29,1.27c-0.12,0.94-0.29,1.88-0.32,2.83c-0.01,0.66,0.16,1.35,0.28,2.03
	c0.04,0.21-0.01,0.32-0.19,0.41c-0.26,0.16-0.44,0.4-0.44,0.73c0,0.32,0.03,0.64,0.01,0.95c-0.03,0.82-0.04,1.64-0.15,2.45
	c-0.05,0.57-0.57,0.93-1.13,0.95c-0.11,0.01-0.2,0.03-0.32,0.03c0,0.17,0,0.32,0,0.46c0.01,0.81-0.15,1.58-0.44,2.3
	c-0.19,0.45-0.25,0.45-0.73,0.34c-0.03-0.01-0.07-0.03-0.09-0.03c-0.25-0.09-0.42-0.03-0.56,0.24c-0.09,0.19-0.24,0.36-0.38,0.5
	c-0.3,0.32-0.44,0.29-0.71-0.04c-0.4,0.5-0.81,0.99-1.2,1.48c-0.33,0.42-0.52,0.86-0.08,1.35c0.03,0.04,0.04,0.09,0.07,0.15
	c0.16,0.42,0.16,0.62-0.25,0.79c-0.45,0.2-0.57,0.52-0.6,0.94c0,0.09,0,0.2-0.04,0.26c-0.13,0.29-0.05,0.56,0.03,0.83
	c0.23,0.77,0.29,1.55,0.11,2.33c-0.07,0.3-0.07,0.57-0.03,0.89c0.19,1.07,0.28,2.14,0.45,3.22c0.23,1.39,0.36,2.79,0.86,4.14
	c0.6,1.6,1.14,3.22,1.67,4.85c0.24,0.69,0.38,1.4,0.53,2.12c0.03,0.12-0.11,0.28-0.17,0.41c-0.12-0.05-0.25-0.11-0.37-0.19
	c-0.28-0.21-0.56-0.44-0.83-0.65c-0.03,0.01-0.05,0.04-0.07,0.07c0,0.08,0,0.15,0,0.23c0.05,0.74,0.13,1.48,0.15,2.21
	c0.03,0.61-0.04,1.22-0.04,1.81c0,1.39-0.15,2.77-0.46,4.12c-0.17,0.73-0.42,1.43-0.65,2.14c-0.04,0.09-0.17,0.15-0.26,0.23
	c-0.05-0.11-0.15-0.2-0.16-0.3c-0.08-0.42-0.13-0.86-0.19-1.3c-0.05,0-0.11,0-0.15,0c-0.16,0.57-0.3,1.14-0.44,1.71
	c-0.01,0.07,0.05,0.16,0.09,0.24c0.71,1.09,1.48,2.13,2.14,3.26c0.64,1.07,1.11,2.24,1.75,3.32c1.51,2.55,3.06,5.08,4.59,7.61
	C114.07,114.98,114.46,115.54,114.84,116.11z M114.14,117.06c0.15-0.19,0.15-0.29,0.01-0.49c-0.77-1.11-1.56-2.2-2.26-3.35
	c-1.43-2.34-2.81-4.73-4.21-7.1c-0.23-0.4-0.37-0.86-0.64-1.24c-0.53-0.77-1.1-1.51-1.65-2.26c-0.28-0.37-0.54-0.75-0.81-1.13
	c-0.05,0.04-0.08,0.04-0.09,0.05c-0.04,0.08-0.09,0.16-0.12,0.25c-0.94,2.08-2.2,3.96-3.75,5.61c-1.48,1.59-3.1,3.07-4.62,4.62
	c-1.52,1.54-3.34,2.66-5.22,3.67c-1.32,0.71-2.69,1.35-4.06,1.96c-1.15,0.5-2.09,1.28-3.04,2.05c-0.29,0.24-0.62,0.42-0.94,0.61
	c-0.16,0.09-0.28,0.05-0.28-0.16c-0.01-0.33-0.03-0.68-0.03-1.02c0.01-0.25,0.05-0.5,0.08-0.85c-0.46,0.36-0.9,0.64-1.26,0.98
	c-0.95,0.93-1.87,1.88-2.79,2.83c-0.26,0.29-0.52,0.61-0.79,0.9c-0.28,0.28-0.64,0.25-0.79-0.01c-0.21-0.37-0.41-0.74-0.68-1.07
	c-1.4-1.75-3.12-3.16-4.82-4.59c-0.75-0.64-1.56-1.2-2.25-1.89c-1.16-1.16-2.26-2.38-3.35-3.61c-0.78-0.89-1.39-1.89-1.77-3.02
	c-0.13-0.44-0.3-0.85-0.46-1.28c-0.46,0.89-0.91,1.77-1.39,2.69c-0.04-0.13-0.07-0.23-0.09-0.33c-0.07,0.01-0.11,0.03-0.15,0.03
	c-0.05,0.01-0.11,0-0.17,0c0.49-1.89-0.23-3.56-0.82-5.27c-0.05,0.07-0.07,0.13-0.08,0.2c0,0.01,0,0.04-0.01,0.05
	c-0.07,1.36-0.15,2.74-0.21,4.1c-0.01,0.19,0,0.38-0.3,0.33c-0.07-0.01-0.17,0.11-0.24,0.19c-0.34,0.44-0.69,0.89-1.02,1.34
	c-0.28,0.38-0.78,0.68-0.69,1.27c0,0.03-0.04,0.07-0.04,0.09c0,0.2-0.03,0.4,0.03,0.58c0.15,0.62,0.37,1.23,0.49,1.85
	c0.16,0.89,0.23,1.79,0.36,2.67c0.23,1.52,0.41,3.03,0.28,4.57c-0.03,0.21-0.04,0.44-0.05,0.65c-0.09,1.31-0.19,2.63-0.94,3.8
	c-0.03,0.03-0.04,0.07-0.05,0.09c-0.09,0.3-0.17,0.61-0.05,0.94c0.2,0.49,0.11,0.98-0.01,1.48c-0.07,0.32-0.16,0.64-0.23,0.97
	c-0.2,0.87-0.48,1.71-1.02,2.44c-0.38,0.5-0.78,1.02-1.19,1.55c0.17,0.07,0.3,0.12,0.44,0.17c4.78,1.6,9.7,2.5,14.75,2.69
	c3.98,0.16,7.94-0.11,11.85-0.86c5.86-1.11,11.41-3.11,16.56-6.18C105.14,126.27,110.07,122.2,114.14,117.06z M111.62,53.23
	c0.16-0.86-0.01-1.68-0.41-2.41c-1.44-2.66-3.23-5.1-5.52-7.14c-1.11-0.99-2.3-1.87-3.59-2.61c-0.64-0.37-1.3-0.73-2-0.97
	c-1.1-0.36-2.22-0.68-3.38-0.87c-1.47-0.25-2.95-0.45-4.45-0.5c-1.34-0.05-2.69,0.07-4.02,0.21c-1.58,0.16-3.16,0.36-4.73,0.62
	c-0.09,0.01-0.17,0.03-0.25,0.04c-1.09,0.19-2.13,0.5-3.19,0.77c-0.17,0.05-0.38,0.13-0.46,0.26c-0.65,1.01-1.27,2.03-1.91,3.03
	c0,0.01,0.03,0.04,0.04,0.07c2.12-1.02,4.29-1.85,6.63-2.18c-0.11,0.12-0.23,0.2-0.36,0.25c-0.64,0.21-1.28,0.4-1.91,0.64
	c-1.32,0.48-2.63,0.97-3.84,1.69c-0.52,0.32-1.09,0.54-1.62,0.85c-0.17,0.09-0.37,0.23-0.44,0.4c-0.44,1.03-1.15,1.89-1.81,2.77
	c-0.81,1.06-1.59,2.14-2.07,3.42c-0.21,0.57-0.36,1.15-0.24,1.77c0.03,0.09,0.09,0.23,0.17,0.26c0.52,0.19,1.05,0.33,1.6,0.16
	c0.78-0.23,1.55-0.48,2.3-0.75c1.05-0.37,2.07-0.78,3.11-1.16c0.17-0.07,0.37-0.09,0.66-0.16c-0.3-0.15-0.52-0.21-0.71-0.33
	c-0.07-0.05-0.15-0.2-0.12-0.28c0.03-0.07,0.17-0.13,0.26-0.13c0.26,0.01,0.53,0.05,0.78,0.09c0.86,0.13,1.58-0.32,2.44-0.5
	c-0.21-0.15-0.36-0.25-0.49-0.34c-0.21-0.16-0.21-0.29,0.05-0.38c0.7-0.26,1.39-0.56,2.1-0.78c0.45-0.15,0.93-0.23,1.39-0.32
	c0.46-0.08,0.91-0.15,1.36-0.21c0-0.05,0-0.07,0-0.07c-0.11-0.09-0.23-0.16-0.32-0.26c-0.08-0.11-0.2-0.26-0.17-0.36
	c0.03-0.11,0.2-0.19,0.33-0.25c0.05-0.03,0.15-0.03,0.23-0.03c1.44-0.05,2.89-0.17,4.32,0.23c1.1,0.3,1.97,0.82,2.37,1.95
	c0.21,0.65,0.45,1.3,0.64,1.95c0.09,0.34,0.26,0.5,0.61,0.57c2.59,0.56,5,1.54,7.29,2.87c1.16,0.68,2.26,1.42,3.18,2.4
	c0.33,0.36,0.58,0.46,1.1,0.3c0.83-0.25,1.34-0.26,1.89,0.58c0.12,0.17,0.25,0.36,0.38,0.53c0.48,0.6,0.97,1.2,1.46,1.8
	c0.08,0.11,0.15,0.24,0.21,0.36c-0.13,0.04-0.28,0.12-0.41,0.12c-0.25-0.01-0.33,0.07-0.24,0.29c0.04,0.11,0.05,0.23,0.11,0.33
	c0.03,0.05,0.12,0.12,0.17,0.12c0.37,0,0.81-0.38,0.82-0.75c0.11-1.62,0.25-3.23-0.17-4.83c-0.48-1.84-1.26-3.49-2.61-4.86
	c-0.5-0.52-1.05-0.99-1.56-1.48c-0.13-0.15-0.24-0.32-0.36-0.46c0.04-0.04,0.09-0.08,0.13-0.12c0.65,0.34,1.15,0.89,1.68,1.39
	c0.52,0.52,0.99,1.07,1.48,1.62c0.01-0.01,0.03-0.03,0.05-0.04c-0.38-0.61-0.75-1.23-1.13-1.84c0.04-0.03,0.08-0.07,0.12-0.09
	c0.12,0.11,0.26,0.2,0.37,0.32c1.47,1.75,1.92,3.89,2.4,6.06c0.04-0.04,0.07-0.05,0.07-0.07c0.01-0.04,0.03-0.09,0.01-0.13
	C111.2,55.46,111.43,54.35,111.62,53.23z M109.47,61.57c0-0.03,0-0.05-0.01-0.09c-0.03-0.09-0.11-0.2-0.17-0.25
	c-0.16-0.12-0.17-0.2-0.03-0.34c0.12-0.11,0.25-0.23,0.09-0.44c-0.5-0.68-0.99-1.38-1.51-2.07c-0.07-0.08-0.24-0.17-0.33-0.16
	c-0.99,0.25-1.97,0.53-3.04,0.82c0.26,0.29,0.45,0.5,0.64,0.71c0.82,0.95,1.64,1.89,2.45,2.86c0.26,0.32,0.2,0.45-0.19,0.52
	c0.12,0.41,0.24,0.81,0.34,1.22c0.09,0.32,0.19,0.65,0.28,0.98c0.26-0.33,0.54-0.66,0.81-0.99c0.04,0.01,0.07,0.03,0.09,0.04
	c0,0.16-0.01,0.32-0.03,0.49c0.13,0.05,0.26,0.09,0.4,0.15c0.03-0.08,0.05-0.12,0.05-0.16C109.37,63.76,109.43,62.67,109.47,61.57z
	 M106.65,66.16c0.66-0.3,0.9-0.69,0.73-1.36c-0.04-0.11-0.07-0.23-0.09-0.33c-0.23-0.77-0.5-1.51-0.75-2.26
	c-0.03-0.09-0.08-0.2-0.16-0.25c-0.53-0.41-1.06-0.79-1.6-1.18c-0.32-0.21-0.66-0.38-0.99-0.58c0.01-0.01,0.01-0.03,0.03-0.05
	c0.16,0.04,0.32,0.08,0.48,0.12c-0.16-0.2-0.32-0.44-0.61-0.26c-0.16,0.09-0.29,0.24-0.45,0.36c-0.77,0.64-1.3,1.47-1.84,2.28
	c-0.09,0.12-0.2,0.24-0.28,0.34c-0.05-0.12-0.05-0.2-0.01-0.28c0.48-1.07,1.03-2.09,1.87-2.93c0.61-0.62,1.18-1.3,2.09-1.51
	c0.03-0.01,0.07-0.05,0.16-0.12c-0.32-0.32-0.58-0.66-0.93-0.89c-0.93-0.64-1.85-1.28-2.85-1.81c-1.89-1.05-3.93-1.73-6.01-2.36
	c-0.16-0.04-0.33-0.05-0.56-0.08c0.08,0.33,0.16,0.6,0.2,0.87c0.01,0.12,0,0.29-0.07,0.36c-0.05,0.07-0.24-0.01-0.38-0.03
	c-0.08,0.09-0.19,0.21-0.28,0.34c0.32,0.24,0.61,0.46,0.9,0.69c-0.03,0.04-0.05,0.08-0.08,0.12c-0.28-0.15-0.56-0.29-0.83-0.44
	c-0.11-0.05-0.23-0.12-0.34-0.15c-0.28-0.07-0.58-0.08-0.86-0.19c-0.64-0.24-1.26-0.53-1.88-0.79c-0.93-0.38-1.85-0.74-2.87-0.7
	c-0.41,0.01-0.83,0.03-1.24,0.04c-0.98,0.03-1.95,0.05-2.93,0.13c-1.14,0.09-2.18-0.05-3.11-0.77c-0.58-0.46-1.24-0.26-1.67,0.08
	c-1.35,1.1-2.75,2.17-3.42,3.87c-0.04,0.08-0.09,0.15-0.12,0.21c-0.33,0.69-0.73,1.36-0.97,2.08c-0.41,1.22-0.79,2.45-1.14,3.69
	c-0.11,0.37-0.21,0.74-0.32,1.13c-0.5,1.92-0.93,3.87-0.78,5.86c0.01,0.23,0.09,0.49,0.24,0.65c0.5,0.62,1.06,1.2,1.59,1.79
	c0.05,0.07,0.13,0.11,0.26,0.2c-0.36-1.16-0.44-2.26-0.26-3.36c0.03,0,0.07-0.01,0.09-0.01c0.04,0.09,0.08,0.17,0.09,0.25
	c0.11,0.62,0.23,1.24,0.32,1.85c0.2,1.3,0.68,2.46,1.62,3.4c0.42,0.41,0.87,0.81,1.31,1.2c0.19,0.17,0.37,0.16,0.57-0.03
	c0.29-0.28,0.61-0.53,0.91-0.79c0.11-0.08,0.2-0.17,0.29-0.26c1.27-1.16,2.55-2.28,4.09-3.08c1.38-0.71,2.77-1.42,4.38-1.36
	c0.08,0,0.21-0.05,0.23-0.09c0.07-0.24,0.09-0.48,0.13-0.75c-0.48,0.17-0.82,0.58-1.4,0.42c0.12-0.12,0.21-0.23,0.32-0.29
	c0.62-0.41,1.24-0.81,1.87-1.18c0.33-0.21,0.71-0.25,1.1-0.15c-0.15,0.09-0.29,0.16-0.44,0.21c-0.7,0.25-1.03,0.81-1.11,1.51
	c-0.04,0.45,0.07,0.91,0.09,1.38c0.01,0.4,0.24,0.5,0.61,0.5c0.32,0,0.64,0.05,0.94,0.13c0.65,0.16,1.13,0.53,1.27,1.23
	c0.09,0.56,0.37,0.99,0.93,1.19c0.16,0.07,0.29,0.13,0.45,0.2c1.69,0.75,3.39,1.5,5.2,1.97c0.62,0.16,1.22,0.08,1.76-0.19
	c0.66-0.33,1.27-0.41,1.92,0.04c0.32-1.01,0.86-1.92,0.52-2.99c-0.15,0.25-0.2,0.53-0.32,0.77c-0.07,0.15-0.24,0.23-0.37,0.34
	c0-0.16-0.03-0.33,0-0.49c0.11-0.54,0.33-1.09,0.13-1.65c-0.12-0.3-0.26-0.58-0.44-0.85c-0.89-1.38-2.2-2.21-3.63-2.93
	c-0.7-0.37-1.54-0.44-2.17-0.95c-0.04-0.04-0.13-0.03-0.2-0.04c-0.3-0.07-0.61-0.12-0.9-0.2c-0.11-0.03-0.21-0.08-0.32-0.13
	c0.01-0.04,0.01-0.08,0.01-0.13c0.2-0.01,0.38-0.07,0.57-0.04c0.49,0.09,0.98,0.17,1.44,0.3c1.89,0.53,3.71,1.22,5.03,2.79
	c0.57,0.68,1.16,1.31,1.36,2.21c0.04,0.16,0.13,0.33,0.26,0.42c0.25,0.19,0.3,0.44,0.3,0.71c0,0.85-0.37,1.59-0.6,2.38
	c-0.12,0.36-0.28,0.62-0.54,0.75c-0.16,0.07-0.34,0.11-0.58,0.08c-0.01,0-0.03,0.03-0.05,0.05c0.08,0.17,0.17,0.34,0.28,0.58
	c0.44-0.24,0.85-0.45,1.27-0.68c0.78-0.41,1.36-1.02,1.59-1.91c0.29-1.07,0.16-2.14-0.21-3.15c-0.54-1.51-1.31-2.91-2.48-4.06
	c-0.24-0.24-0.44-0.52-0.64-0.74c0.05-0.17,0.12-0.29,0.13-0.42c0.17-1.23,0.94-2.09,1.77-2.91c0.04-0.05,0.12-0.08,0.17-0.09
	c0.58-0.24,1.54,0,2.01,0.53c-0.26-0.09-0.5-0.19-0.73-0.26c-0.04,0.05-0.07,0.11-0.11,0.16c0.12,0.07,0.24,0.12,0.34,0.21
	c0.41,0.38,0.65,0.89,0.69,1.42c0.11,1.18-0.16,2.28-0.89,3.23c-0.01,0.01-0.03,0.03-0.03,0.04c-0.09,0.15-0.05,0.2,0.09,0.29
	c0.16,0.08,0.29,0.2,0.44,0.3c-0.03,0.03-0.04,0.07-0.07,0.11c-0.54,0.09-0.94-0.36-1.43-0.46c0.36,0.68,0.7,1.34,1.09,2.04
	c0.05-0.17,0.16-0.32,0.15-0.44c-0.05-0.32,0.15-0.41,0.37-0.49c0.29-0.11,0.36-0.28,0.19-0.56c-0.29-0.45-0.4-0.85-0.03-1.38
	c0.25-0.37,0.58-0.74,0.58-1.31c0-0.34,0.37-0.69,0.58-1.03c0.03,0,0.04,0.01,0.05,0.01C106.73,65.68,106.69,65.92,106.65,66.16z
	 M107.26,88.29c0.23,0.09,0.41,0.25,0.68,0.41c-1.69-4.22-2.66-8.54-3.27-12.85c-0.45,0.26-0.91,0.53-1.38,0.78
	c-0.44,0.24-0.86,0.49-1.3,0.73c-0.01,0.01-0.01,0.04,0,0.07c0.56,1.51,0.87,3.07,1.18,4.63c0.15,0.78,0.46,1.54,1.09,2.1
	c0.37,0.32,0.46,0.3,0.73-0.08c0.03-0.03,0.07-0.05,0.12-0.08c0.2,0.23,0.13,0.44-0.01,0.62c-0.17,0.23-0.41,0.24-0.65,0.12
	c-0.48-0.23-0.86-0.6-1.06-1.07c-0.38-0.9-0.71-1.83-1.05-2.74c-0.36-1.01-0.68-2.01-1.03-3.01c-0.16-0.45-0.33-0.87-0.53-1.3
	c-0.08-0.16-0.13-0.42-0.41-0.32c-0.26,0.09-0.53,0.2-0.77,0.36c-0.49,0.32-1.02,0.29-1.52,0.15c-0.85-0.25-1.67-0.58-2.5-0.91
	c-1.13-0.42-2.25-0.86-3.36-1.34c-0.58-0.24-1.14-0.54-1.13-1.34c0.01-0.2-0.11-0.48-0.26-0.56c-0.41-0.25-0.86-0.48-1.32-0.58
	c-0.78-0.17-0.82-0.17-0.91-0.95c-0.01-0.11-0.03-0.21-0.08-0.3c-0.03-0.05-0.11-0.12-0.16-0.12c-0.78,0-1.55-0.03-2.29,0.29
	c-0.48,0.23-0.98,0.4-1.46,0.6c-1.15,0.49-2.29,0.98-3.24,1.81c-0.57,0.48-1.13,0.97-1.68,1.46c-0.16,0.13-0.3,0.26-0.46,0.4
	c-0.85,0.73-1.72,1.44-2.75,1.91c-0.33,0.15-0.68,0.24-1.02,0.24c-0.3,0-0.62-0.08-0.93-0.25c-0.44-0.25-0.58-0.69-0.32-1.02
	c0.07,0.11,0.13,0.2,0.17,0.3c0.16,0.34,0.44,0.5,0.81,0.54c1.1,0.11,1.84-0.57,2.65-1.13c-0.04-0.08-0.05-0.09-0.07-0.12
	c-0.07-0.04-0.12-0.09-0.19-0.15c-0.77-0.53-1.43-1.15-1.95-1.93c-0.24-0.36-0.56-0.66-0.87-0.94c-1.77-1.52-3.19-3.32-4.25-5.39
	c-0.04-0.08-0.09-0.15-0.09-0.23c0-0.13,0.05-0.26,0.08-0.38c0.11,0.05,0.25,0.09,0.3,0.19c0.34,0.56,0.66,1.11,0.99,1.68
	c0.07,0.11,0.15,0.21,0.25,0.37c0.29-4.22,1.44-8.14,2.95-11.99c-0.5,0.26-0.86,0.77-1.52,0.71c0.08-0.21,0.17-0.44,0.33-0.57
	c0.5-0.46,1.05-0.87,1.54-1.34c0.44-0.4,0.85-0.83,1.27-1.26c0.4-0.4,0.78-0.81,1.19-1.2c0.15-0.15,0.32-0.26,0.48-0.41
	c-0.15-0.03-0.28,0-0.38,0.05c-0.69,0.29-1.38,0.6-2.07,0.91c-1.2,0.56-2.45,0.69-3.69,0.4c-0.42,0.52-0.82,1.03-1.26,1.51
	c-0.34,0.37-0.37,0.34,0.05,0.61c0.01,0.01,0.01,0.04,0.05,0.15c-0.36,0.41-0.75,0.83-1.16,1.3c0.6,0.61,1.4,1.13,1.48,2.21
	c-0.15-0.15-0.24-0.25-0.34-0.34c-0.7-0.81-1.38-1.64-2.38-2.12c-0.28-0.13-0.56-0.26-0.83-0.41c-0.26-0.13-0.53-0.26-0.79-0.4
	c-0.29-0.16-0.56-0.36-0.83-0.54c-0.34-0.23-0.66-0.52-1.02-0.7c-0.44-0.24-0.82-0.07-0.91,0.38c0,0.04-0.01,0.09-0.01,0.15
	c-0.08,1.26,0,2.52,0.19,3.75c0.25,1.64,0.53,3.27,0.81,4.9c0.12,0.71,0.2,1.44,0.4,2.14c0.04,0.15,0.09,0.26,0.16,0.38
	c0.34,0.62,0.99,0.68,1.55,0.07c0.42-0.46,0.83-0.95,1.24-1.43c0.45-0.56,0.91-1.11,1.36-1.65c0.23-0.28,0.45-0.58,0.68-0.87
	c0.05,0.04,0.09,0.08,0.15,0.11c-0.83,1.93-2.37,3.36-3.72,4.91c-1.39,1.62-3.11,2.82-4.83,4.05c0.89-0.24,1.76-0.49,2.67-0.74
	c-0.05,0.57-0.32,0.97-0.75,1.19c-0.68,0.36-1.14,0.93-1.59,1.52c-0.79,1.06-1.52,2.16-2,3.38c-0.23,0.58-0.4,1.18-0.5,1.81
	c-0.21,1.32-0.32,2.67-0.45,4.01c-0.03,0.12,0.03,0.25,0.07,0.48c0.42-0.32,0.78-0.58,1.15-0.82c0.08-0.05,0.24-0.08,0.3-0.04
	c0.07,0.04,0.11,0.19,0.09,0.29c-0.01,0.21-0.05,0.42-0.12,0.64c-0.42,1.23-0.73,2.49-0.93,3.77c-0.01,0.11,0.04,0.3,0.12,0.34
	c0.54,0.29,0.85,0.75,1.02,1.34c0.09,0.32,0.33,0.62,0.34,0.94c0.01,0.42,0.19,0.68,0.52,0.87c0.13,0.08,0.24,0.2,0.36,0.32
	c0.33,0.3,0.66,0.61,1.05,0.95c0.52-2.12,1.13-4.14,2.24-5.98c-0.01,0.23-0.05,0.45-0.13,0.66c-0.54,1.63-1.09,3.26-1.62,4.9
	c-0.15,0.42-0.3,0.9-0.03,1.32c0.28,0.44,0.25,0.9,0.25,1.38c0,0.65,0.01,1.3,0.11,1.93c0.07,0.42,0.32,0.82,0.45,1.24
	c0.2,0.62,0.37,1.27,0.56,1.89c0.12,0.4,0.25,0.75,0.2,1.19c-0.09,0.66-0.34,1.16-0.98,1.39c-0.34,0.12-0.73,0.19-1.1,0.2
	c-0.45,0-0.91-0.08-1.4-0.12c-0.03,0.4,0.01,0.83-0.41,1.13c-0.05,0.03-0.07,0.19-0.04,0.28c0.15,0.61,0.33,1.2,0.48,1.81
	c0.15,0.61,0.29,1.22,0.42,1.83c0.03,0.11,0.04,0.21,0.05,0.3c0.04,0,0.07,0,0.09,0.01c0.2-0.4,0.34-0.82,0.58-1.19
	c0.25-0.4,0.2-0.79,0.16-1.22c-0.08-0.66-0.12-1.34-0.16-2.01c-0.01-0.12,0.08-0.23,0.12-0.34c0.07,0.09,0.17,0.19,0.19,0.29
	c0.23,1.23,0.41,2.45,0.64,3.67c0.15,0.82,0.36,1.63,0.82,2.36c0.98,1.54,1.96,3.06,3.38,4.26c1.81,1.55,3.56,3.18,5.36,4.74
	c0.91,0.78,1.83,1.55,2.52,2.54c0.34,0.49,0.69,0.95,1.05,1.46c0.34-0.38,0.65-0.75,0.99-1.11c0.73-0.73,1.46-1.46,2.2-2.16
	c0.86-0.83,1.72-1.65,2.62-2.45c0.34-0.3,0.77-0.53,1.15-0.79c0.89-0.62,1.69-1.3,2.29-2.22c0.53-0.81,0.89-1.77,1.87-2.32
	c-0.26,0.5-0.48,0.95-0.74,1.39c-0.25,0.44-0.66,0.81-0.81,1.27c-0.17,0.53-0.54,0.82-0.93,1.13c-0.75,0.64-1.54,1.23-2.29,1.85
	c-0.56,0.45-0.79,1.38-0.57,2.07c0.52-0.34,1.05-0.69,1.58-1.03c0.2-0.12,0.4-0.21,0.6-0.33c0.45-0.28,0.9-0.58,1.36-0.82
	c0.37-0.2,0.78-0.32,1.16-0.5c2.07-0.95,4-2.14,5.85-3.47c2.14-1.52,4-3.35,5.72-5.33c1.24-1.43,2.3-2.99,3.31-4.61
	c1.32-2.12,2.34-4.36,2.95-6.78c0.24,0.12,0.5,0.25,0.79,0.38c0.32-1.11,0.4-2.21,0.46-3.32c0.11-1.58-0.09-3.14-0.21-4.71
	c-0.01-0.17,0.04-0.41,0.16-0.49C106.87,88.14,107.11,88.23,107.26,88.29z M105.08,66.52c0.2-0.7,0.24-1.42-0.13-2.1
	c-0.33-0.6-0.85-0.9-1.35-0.7c-0.5,0.2-0.94,0.52-1.16,1.1c0.15-0.13,0.26-0.24,0.4-0.32c0.36-0.23,0.77-0.13,0.97,0.19
	c0.32,0.52,0.21,1.28-0.26,1.65c-0.28,0.21-0.6,0.36-0.95,0.19c-0.37-0.19-0.46-0.5-0.44-0.89c0.01-0.08,0-0.16,0-0.24
	c-0.15,0.19-0.24,0.38-0.33,0.58c-0.03,0.04-0.04,0.08-0.05,0.12c-0.04,0.16,0.01,0.3,0.19,0.44c0.28,0.23,0.49,0.52,0.77,0.74
	c0.5,0.37,1.03,0.71,1.65,1.13c0.01-0.05,0.04-0.11,0.05-0.16C104.69,67.6,104.93,67.07,105.08,66.52z M94.22,53.54
	c0.03-0.13,0.04-0.28,0.01-0.41c-0.23-1.16-0.49-2.32-1.01-3.4c-0.4-0.85-1.07-1.31-1.93-1.55c-1.27-0.33-2.57-0.3-3.88-0.32
	c-0.04,0-0.09,0.04-0.24,0.09c0.83,0.48,1.59,0.9,2.41,1.38c-1.2-0.03-2.3-0.11-3.39-0.07c-1.09,0.05-2.13,0.38-3.18,0.75
	c0.37,0.2,0.75,0.33,1.14,0.44c0.19,0.07,0.38,0.09,0.41,0.38c-1.13,0.54-2.42,0.21-3.59,0.69c0.49,0.24,0.95,0.48,1.43,0.66
	c0.36,0.13,0.74,0.26,1.11,0.26c0.94,0,1.87-0.07,2.81-0.13c0.41-0.03,0.82-0.09,1.27-0.16c-0.15-0.16-0.25-0.26-0.36-0.38
	c0.01-0.03,0.03-0.07,0.04-0.09c0.11,0,0.21-0.03,0.3,0c0.69,0.25,1.39,0.5,2.07,0.77c1.28,0.5,2.55,0.99,3.83,1.5
	C93.82,54.09,94.16,53.9,94.22,53.54z M84.9,34.07c0.44-0.54,0.83-1.11,1.27-1.71c-1.15-0.26-2.25-0.57-3.35-0.78
	c-2.54-0.5-5.12-0.77-7.72-0.85c-4.05-0.13-8.06,0.08-12.02,0.98c-0.77,0.17-1.52,0.32-2.28,0.5c-8.59,2.14-16.24,6.05-22.78,12.06
	c-0.85,0.79-1.69,1.6-2.52,2.42c-0.75,0.77-1.47,1.56-2.2,2.34c0.01,0.01,0.04,0.03,0.05,0.04c0.45-0.16,0.9-0.32,1.34-0.49
	c2.32-0.89,4.74-1.32,7.16-1.81c2.04-0.41,4.1-0.77,6.16-1.14c2.24-0.4,4.47-0.79,6.71-1.19c0.08-0.01,0.16-0.07,0.25-0.09
	c0.15-0.03,0.3-0.08,0.46-0.08c0.21,0,0.44,0.05,0.65,0.07c0-0.03,0-0.05,0.01-0.08c-0.15-0.11-0.29-0.2-0.48-0.34
	c0.13-0.05,0.2-0.09,0.23-0.08c0.48,0.23,0.95,0.45,1.42,0.7c0.09,0.05,0.09,0.24,0.17,0.3c0.32,0.24,0.58,0.46,0.79,0.86
	c0.25,0.48,0.52,0.95,0.78,1.44c0.46,0.83,1.01,1.63,1.51,2.45c0.98,1.6,1.97,3.2,2.95,4.81c0.17,0.26,0.37,0.52,0.56,0.79
	c0.36-0.33,0.7-0.34,1.07-0.15c0.28,0.15,0.54,0.29,0.81,0.45c0.58,0.37,1.15,0.75,1.75,1.11c0.32,0.19,0.69,0.32,1.02,0.5
	c0.81,0.45,0.81,0.45,1.32-0.33c0.03-0.03,0.03-0.07,0.05-0.11c-0.17-0.05-0.34-0.11-0.48-0.19c-0.11-0.07-0.21-0.2-0.21-0.3
	c-0.01-0.08,0.12-0.19,0.21-0.26c0.12-0.08,0.28-0.12,0.37-0.23c0.45-0.5,0.87-1.02,1.3-1.54c0.17-0.2,0.17-0.41,0.09-0.66
	c-0.08-0.25-0.08-0.54-0.04-0.81c0.2-1.03,0.53-2.01,1.14-2.89c0.71-1.02,1.48-2.03,2.21-3.04c0.37-0.52,0.85-0.97,0.89-1.65
	c0-0.08,0.07-0.15,0.12-0.2c0.28-0.24,0.54-0.52,0.85-0.69c0.33-0.19,0.52-0.46,0.7-0.77c0.7-1.1,1.4-2.18,2.12-3.27
	c0.09-0.15,0.28-0.29,0.45-0.33c0.46-0.08,0.81-0.29,1.02-0.71c0.05-0.09,0.13-0.17,0.21-0.26C82.3,37.27,83.61,35.69,84.9,34.07z
	 M66.2,68.37c0.03-0.04,0.07-0.09,0.09-0.16c-0.65-0.37-0.7-0.37-1.06-0.9c-0.03-0.03-0.04-0.07-0.07-0.11
	c-0.21-0.32-0.42-0.36-0.74-0.24c-0.25,0.08-0.53,0.12-0.79,0.2c-1.07,0.28-2.14,0.6-3.23,0.85c-0.9,0.21-1.8,0.36-2.69-0.08
	c-0.53-0.26-1.11-0.48-1.63-0.77c-0.23-0.12-0.4-0.37-0.53-0.6c-0.15-0.25-0.25-0.54-0.32-0.82c-0.19-0.78-0.78-1.47-0.49-2.37
	c0.08-0.26,0.19-0.48,0.46-0.56c0.66-0.2,1.3-0.44,1.96-0.61c2.25-0.54,4.5-1.06,6.79-1.6c-0.03-0.09-0.05-0.26-0.08-0.41
	c-0.05,0.01-0.09,0.03-0.15,0.03c-0.3,0.08-0.58,0.15-0.86,0.23c-1.67,0.4-3.35,0.79-5.02,1.23c-1.13,0.29-2.22,0.66-3.34,0.99
	c-0.29,0.09-0.46,0.29-0.54,0.6c-0.19,0.7-0.11,1.38,0.11,2.03c0.41,1.18,0.86,2.36,1.28,3.53c0.56,1.51,1.1,3.02,1.67,4.53
	c0.6,1.54,1.2,3.07,1.81,4.61c0.07,0.16,0.17,0.29,0.25,0.42c0.58-0.44,0.69-0.53,0.79-0.86c0-0.03,0.01-0.05,0.03-0.07
	c0.03-0.12,0.03-0.25,0-0.37c-0.36-1.07-0.7-2.14-1.06-3.2c-0.16-0.46-0.23-0.83,0.21-1.26c0.78-0.75,1.35-1.72,2.49-2.13
	c1.02-0.37,1.96-0.95,2.94-1.44c0.4-0.19,0.79-0.42,1.2-0.48C65.94,68.56,66.09,68.5,66.2,68.37z M64.64,101.4
	c0.4-0.2,0.62-0.54,0.38-1.03c-0.17-0.37-0.34-0.73-0.46-1.11c-0.25-0.75-0.24-0.77-1.06-0.71c-0.11,0-0.21,0.03-0.32,0.01
	c-0.33-0.03-0.58,0.05-0.73,0.4c-0.07,0.17-0.24,0.32-0.4,0.41c-0.23,0.15-0.29,0.3-0.2,0.54c0.17,0.44,0.34,0.87,0.53,1.3
	c0.21,0.53,0.68,0.75,1.23,0.6C63.97,101.69,64.32,101.56,64.64,101.4z M63.69,95.76c0.05-0.57,0.12-1.13,0.19-1.69
	c-0.03,0-0.05,0-0.09,0c-0.07-0.13-0.17-0.26-0.21-0.41c-0.07-0.26-0.19-0.37-0.48-0.33c-0.21,0.03-0.42-0.04-0.62-0.11
	c-0.08-0.01-0.12-0.15-0.17-0.23c0.09-0.05,0.17-0.12,0.26-0.15c0.13-0.03,0.26,0,0.38,0c0.01-0.03,0.01-0.05,0.03-0.07
	c-0.49-0.33-0.97-0.66-1.5-1.02c0,0.86,0.16,1.6,0.61,2.3c0.2,0.3,0.28,0.7,0.38,1.06c0.04,0.11,0.04,0.23,0.07,0.34
	c0.09,0.74,0.2,1.48,0.29,2.22c0.03,0.16-0.01,0.33-0.04,0.56c0.3-0.08,0.54-0.15,0.79-0.21c-0.15-0.19-0.23-0.29-0.32-0.4
	c0.2-0.09,0.4-0.19,0.65-0.32C63.5,96.87,63.65,96.32,63.69,95.76z M63.65,59.82c0.16-0.04,0.17-0.16,0.16-0.32
	c-0.05-0.56-0.12-1.11-0.17-1.67c-0.04-0.4-0.05-0.79-0.08-1.23c0,0-0.01,0-0.03,0c-0.32,0.11-0.62,0.19-0.93,0.29
	c-0.54,0.19-1.07,0.45-1.63,0.57c-1.34,0.28-2.67,0.49-4.01,0.75c-2.2,0.45-4.34,1.13-6.46,1.87c-0.74,0.25-1.48,0.52-2.25,0.78
	c0.04,0.11,0.05,0.2,0.11,0.28c0.2,0.33,0.45,0.65,0.62,1.01c0.28,0.57,0.57,1.14,0.85,1.69c0.79,1.58,1.58,3.15,2.3,4.77
	c0.82,1.81,1.5,3.69,2.21,5.55c0.87,2.26,1.6,4.57,2.1,6.94c0.2,0.9,0.3,1.81,0.46,2.73c0.01,0.08,0.05,0.16,0.07,0.24
	c0.57-0.38,1.1-0.75,1.64-1.09c0.2-0.13,0.26-0.26,0.29-0.49c0.08-0.69,0.19-1.36,0.29-2.04c0.05-0.36,0.16-0.71,0.24-1.07
	c-0.08-0.03-0.09-0.04-0.12-0.04c-0.03-0.01-0.07-0.01-0.09-0.01c-0.52,0.11-0.77-0.19-0.95-0.58c-0.08-0.2-0.16-0.38-0.24-0.57
	c-0.5-1.34-1.02-2.66-1.52-4c-0.9-2.44-1.8-4.87-2.71-7.31c-0.17-0.45-0.36-0.89-0.54-1.32c-0.12-0.28-0.28-0.54-0.37-0.82
	c-0.09-0.24-0.11-0.49-0.15-0.74c-0.17-0.94-0.01-1.27,0.77-1.63c0.17-0.08,0.37-0.12,0.56-0.17c0.28-0.07,0.56-0.13,0.82-0.23
	c0.46-0.15,0.91-0.32,1.38-0.44c1.62-0.42,3.24-0.85,4.87-1.23c0.81-0.19,1.63-0.3,2.45-0.44C63.61,59.83,63.62,59.83,63.65,59.82z
	 M63.76,55.9c0.03-0.09,0-0.2-0.11-0.3c-0.24-0.23-0.44-0.5-0.61-0.78c-1.48-2.44-2.95-4.88-4.46-7.31
	c-0.45-0.71-0.97-1.4-1.51-2.07c-0.33-0.44-0.82-0.65-1.39-0.54c-0.3,0.04-0.61,0.09-0.91,0.13c-1.26,0.2-2.53,0.4-3.79,0.6
	c-0.6,0.11-1.19,0.23-1.77,0.33c0,0.01,0,0.03,0,0.05c0.15,0.01,0.29,0.04,0.42,0.05c0.01,0.03,0.01,0.05,0.03,0.09
	c-0.19,0.07-0.37,0.16-0.56,0.2c-0.56,0.09-1.11,0.15-1.65,0.23c-1.59,0.26-3.19,0.48-4.75,0.82c-2.29,0.49-4.54,1.1-6.82,1.64
	c-0.68,0.17-0.98,0.85-0.66,1.48c0.34,0.69,0.7,1.38,1.02,2.09c0.79,1.75,1.54,3.53,2.34,5.28c0.66,1.42,1.4,2.81,2.1,4.21
	c0.16,0.3,0.28,0.62,0.41,0.95c0.62-0.34,1.22-0.68,1.83-1.01c-0.05-0.12-0.08-0.2-0.12-0.28c-0.73-1.5-1.46-3.01-2.18-4.5
	c-0.16-0.34-0.28-0.73-0.44-1.07c-0.11-0.21-0.2-0.41-0.34-0.6c-0.44-0.57-0.64-1.22-0.87-1.87c-0.16-0.45-0.34-0.89-0.53-1.32
	c-0.11-0.24,0.03-0.97,0.26-1.1c0.45-0.24,0.89-0.54,1.36-0.69c1.71-0.5,3.42-0.99,5.14-1.42c1.79-0.42,3.6-0.74,5.39-1.14
	s3.57-0.71,5.4-0.79c0.09,0,0.24-0.01,0.28,0.04c0.26,0.36,0.54,0.73,0.77,1.11c0.61,1.05,1.24,2.08,1.81,3.15
	c0.82,1.56,1.6,3.14,2.38,4.73c0.11,0.2,0.21,0.28,0.42,0.23c0.24-0.05,0.48-0.11,0.7-0.16c0.33-0.05,0.65-0.08,0.98-0.13
	c0.03-0.01,0.05-0.01,0.09-0.03c0.09-0.03,0.2-0.08,0.25-0.15C63.72,56.02,63.74,55.95,63.76,55.9z M62.05,101.55
	c-0.11,0.5,0.23,0.74,0.95,0.66C62.7,102,62.37,101.77,62.05,101.55z M61.92,98.69c0.32-0.52,0.48-0.99,0.38-1.54
	c-0.16-0.85-0.41-1.68-0.6-2.52c-0.09-0.45-0.37-0.71-0.75-0.86c-0.98-0.34-1.96-0.7-2.97-0.98c-1.55-0.42-3.11-0.77-4.69-1.14
	c-0.25-0.07-0.54-0.11-0.81-0.05c-0.05,0.01-0.09,0.01-0.15,0.03c-1.51,0.26-3.02,0.57-4.53,0.85c-0.28,0.05-0.54,0.16-0.82,0.21
	c-0.19,0.03-0.38,0-0.57,0c-0.01-0.04-0.03-0.09-0.04-0.15c0.19-0.08,0.36-0.16,0.53-0.23c0.17-0.08,0.34-0.15,0.53-0.2
	c0.82-0.23,1.64-0.38,2.46-0.61c1.67-0.45,3.31-0.5,4.98,0c1.11,0.33,2.25,0.5,3.36,0.81c0.81,0.21,1.67,0.3,2.4,0.78
	c0.08,0.05,0.2,0.05,0.32,0.09c0-0.21,0-0.38,0-0.54c-0.03-0.9-0.05-1.8-0.09-2.7c-0.03-0.34-0.12-0.62-0.46-0.78
	c-0.25-0.11-0.48-0.26-0.73-0.4c-1.09-0.58-2.18-1.16-3.27-1.76c-0.68-0.37-1.35-0.5-2.04-0.03c-0.13,0.09-0.33,0.12-0.5,0.17
	c-0.01-0.03-0.04-0.05-0.05-0.08c0.11-0.24,0.23-0.46,0.36-0.74c-0.33,0.05-0.64,0.05-0.87,0.16c-0.28,0.12-0.6,0.28-0.71,0.5
	c-0.37,0.7-0.98,1.2-1.51,1.77c-0.77,0.81-1.58,1.58-2.7,1.95c-0.61,0.2-1.22,0.41-1.81,0.64c-0.74,0.28-1.48,0.57-2.24,0.83
	c-0.53,0.2-0.78,0.56-0.74,1.13c0.01,0.07,0.01,0.13,0.01,0.2c0.04,0.98-0.16,1.91-0.54,2.79c-0.25,0.58-0.49,1.15-0.71,1.73
	c-0.07,0.13-0.12,0.33-0.07,0.45c0.32,0.74,0.68,1.47,0.98,2.14c0.21,0.03,0.33,0.05,0.46,0.08c-0.04,0.11-0.08,0.23-0.09,0.34
	c-0.01,0.13,0,0.26,0.03,0.38c0.13,0.79,0.32,1.58,0.4,2.36c0.04,0.48-0.07,0.98-0.09,1.47c-0.01,0.13-0.01,0.29,0.04,0.4
	c0.28,0.45,0.58,0.86,0.85,1.32c0.29,0.52,0.56,1.06,0.81,1.62c0.08,0.16,0.07,0.37,0.04,0.56c-0.16,0.77,0.19,1.44,0.91,1.69
	c0.26,0.08,0.54,0.16,0.81,0.24c2.25,0.66,4.49,1.32,6.74,2.01c0.04,0.01,0.08,0.01,0.13,0.03c0.37,0.09,0.7,0.07,1.05-0.12
	c0.95-0.5,1.79-1.15,2.54-1.91c0.38-0.37,0.7-0.82,1.14-1.13c0.32-0.24,0.54-0.53,0.75-0.85c0.26-0.41,0.32-0.86,0.3-1.36
	c-0.01-0.75,0.16-1.52,0.25-2.28c0.03-0.21,0.07-0.44,0.11-0.73c0-0.01,0-0.03,0-0.04c-0.38,0.19-0.69,0.3-0.97,0.49
	c-1.15,0.79-2.29,1.62-3.44,2.4c-0.78,0.53-1.65,0.82-2.61,0.82c-0.68,0-1.26-0.21-1.81-0.56c-0.09-0.05-0.13-0.23-0.2-0.34
	c0.13-0.01,0.28-0.05,0.38-0.01c0.25,0.08,0.48,0.21,0.73,0.3c1.32,0.54,2.74,0.21,3.68-0.85c0-0.01-0.01-0.04-0.01-0.05
	c-0.13-0.01-0.28-0.04-0.42-0.05c0-0.03-0.01-0.05-0.03-0.08c0.09-0.07,0.19-0.15,0.29-0.2c0.15-0.08,0.32-0.13,0.46-0.23
	c0.77-0.44,1.52-0.89,2.3-1.32c0.83-0.46,1.75-0.78,2.41-1.52c0.03-0.04,0.09-0.04,0.12-0.08c0.08-0.09,0.21-0.2,0.21-0.3
	c-0.01-0.41-0.03-0.82-0.12-1.2c-0.08-0.33-0.36-0.62,0.01-0.93c0.04-0.03,0.03-0.11,0.03-0.17c0.01-0.28,0.01-0.57,0.03-0.85
	c0.03-0.25-0.11-0.38-0.34-0.34c-0.32,0.03-0.62,0.11-0.94,0.16c-2.37,0.41-4.74,0.82-7.11,1.22c-0.34,0.07-0.69,0.07-1.03,0.11
	c0-0.04-0.01-0.07-0.01-0.09c0.07-0.04,0.12-0.08,0.19-0.11c0.58-0.16,1.16-0.34,1.76-0.48c0.95-0.19,1.93-0.33,2.9-0.52
	c1.36-0.24,2.73-0.5,4.1-0.74C61.35,99.12,61.65,99.14,61.92,98.69z M61.13,56.64c-0.04-0.07-0.08-0.15-0.12-0.21
	c-0.58-1.14-1.15-2.21-1.69-3.26c-0.91,0.6-1.84,0.97-2.85,1.22c0.23,0.52,0.42,0.99,0.61,1.48c0.19,0.5,0.34,1.02,0.54,1.58
	C58.75,57.18,59.9,56.92,61.13,56.64z M59.53,86.1c0-0.05,0-0.11,0-0.16c-0.58,0-1.15,0-1.73,0C58.38,85.98,58.95,86.19,59.53,86.1z
	 M59.41,86.53c0-0.03-0.07-0.13-0.09-0.13c-0.28-0.01-0.56,0-0.82,0c-0.01,0.03-0.01,0.07-0.01,0.09c0.25,0.07,0.5,0.13,0.77,0.17
	C59.29,86.68,59.37,86.59,59.41,86.53z M59.21,87.62c0.03-0.16,0.09-0.32,0.09-0.49c0-0.08-0.08-0.24-0.15-0.25
	c-0.48-0.09-0.95-0.16-1.43-0.24c-0.01,0.01-0.01,0.04-0.01,0.05C58.2,87,58.69,87.29,59.21,87.62z M58.84,53.03
	c0.12,0,0.23,0,0.42,0c-0.68-1.15-1.32-2.25-1.96-3.35c-0.16-0.28-0.34-0.28-0.6-0.16c-0.58,0.26-1.16,0.5-1.76,0.74
	c-0.11,0.05-0.24,0.05-0.36,0.07c0.04-0.13,0.11-0.2,0.19-0.24c0.61-0.32,1.22-0.61,1.83-0.94c0.08-0.04,0.12-0.19,0.17-0.28
	c-0.11-0.01-0.21-0.05-0.32-0.03c-0.08,0.01-0.16,0.08-0.24,0.13c-0.66,0.37-1.34,0.75-2.03,1.14c0.16,0.3,0.33,0.62,0.5,0.93
	c0.5,0.94,1.03,1.89,1.55,2.85c0.86-0.41,1.67-0.81,2.49-1.22C58.79,52.83,58.82,52.94,58.84,53.03z M59.11,122.5
	c0.03-0.36,0.03-0.73,0-1.09c-0.03-0.34-0.16-0.68-0.17-1.01c0-1.32-0.25-2.61-0.54-3.89c-0.08-0.32-0.21-0.64-0.32-0.95
	c-0.03,0.01-0.07,0.01-0.09,0.03c0.01,0.12,0.03,0.24,0.05,0.36c0.5,1.79,0.65,3.6,0.36,5.45c-0.08,0.48-0.13,0.94-0.29,1.42
	c-0.32,0.94-0.83,1.69-1.5,2.41c-0.89,0.97-1.85,1.81-3.08,2.29c-1.11,0.44-2.29,0.74-3.49,0.82c-0.07,0.01-0.13,0.01-0.2,0.01
	c-1.1,0.07-2.18,0.01-3.19-0.53c-0.42-0.24-0.86-0.46-1.31-0.57c-0.87-0.23-1.52-0.68-2.04-1.43c-1.11-1.58-1.81-3.35-2.36-5.18
	c-0.37-1.24-0.4-2.54-0.36-3.84c0.03-0.83,0.01-1.65,0.3-2.46c0.13-0.36,0.16-0.75,0.24-1.18c-0.28,0.05-0.52,0.13-0.74,0.13
	c-0.24,0-0.33,0.11-0.38,0.3c-0.2,0.74-0.42,1.48-0.57,2.25c-0.15,0.81-0.25,1.62-0.33,2.44c-0.07,0.81-0.16,1.62-0.08,2.42
	c0.09,1.03,0.33,2.07,0.52,3.1c0.11,0.52,0.3,0.95,0.75,1.31c2.22,1.79,4.61,3.34,7.03,4.79c2.34,1.39,4.82,2.49,7.37,3.44
	c0.12,0.04,0.29,0.04,0.41-0.03c0.97-0.48,1.63-1.24,1.91-2.29c0.23-0.81,0.42-1.63,0.6-2.45c0.09-0.41,0.12-0.82,0.16-1.1
	c-0.4,0.34-0.82,0.75-1.28,1.1c-0.45,0.36-0.85,0.81-1.47,0.9c0.08-0.15,0.17-0.26,0.28-0.37c0.53-0.52,1.11-0.99,1.6-1.55
	c0.54-0.64,1.05-1.32,1.5-2.03c0.23-0.37,0.34-0.83,0.46-1.26c0.07-0.25,0.04-0.52,0.08-0.78C58.96,123.18,59.07,122.84,59.11,122.5
	z M58.27,84.14c0.26,0,0.45,0,0.66,0c-0.01-0.21-0.03-0.38-0.04-0.6C58.67,83.75,58.5,83.93,58.27,84.14z M58.83,85.55
	c0-0.03,0-0.05,0-0.07c-0.7-0.08-1.42-0.16-2.12-0.24c0,0.05-0.01,0.12-0.01,0.17C57.41,85.46,58.13,85.5,58.83,85.55z
	 M56.95,113.51c0-0.11,0-0.2,0-0.38c-0.66,0.86-1.48,1.13-2.45,0.86c-0.09-0.03-0.21-0.07-0.3-0.07c-0.04,0-0.07,0.01-0.09,0.01
	c-0.42,0.2-0.81,0.03-1.2-0.07c-0.29-0.08-0.58-0.19-0.89-0.25c-1.75-0.38-3.48-0.86-5.11-1.62c-0.45-0.2-0.86-0.48-1.28-0.71
	c-0.19-0.12-0.38-0.24-0.57-0.37c-0.08-0.05-0.15-0.15-0.17-0.23c-0.07-0.23-0.09-0.45-0.16-0.68c-0.23-0.74-0.46-1.5-0.69-2.24
	c-0.04,0.01-0.08,0.01-0.12,0.03c-0.19,0.52-0.33,1.03-0.54,1.55c-0.75,1.83-1.44,3.69-1.95,5.61c-0.07,0.25-0.15,0.5-0.16,0.77
	c-0.11,1.62,0.03,3.22,0.23,4.82c0.13,1.09,0.68,2.03,1.13,2.99c0.45,0.95,0.83,1.97,1.76,2.61c0.37,0.26,0.81,0.44,1.22,0.64
	c0.2,0.09,0.44,0.11,0.62,0.21c0.46,0.29,0.94,0.53,1.5,0.57c0.23,0.01,0.45,0.05,0.68,0.12c0.53,0.17,1.07,0.23,1.6,0.17
	c0.37-0.01,0.73-0.08,1.1-0.17c1.26-0.29,2.37-0.94,3.46-1.62c0.17-0.12,0.33-0.36,0.4-0.57c0.34-1.1,0.66-2.22,0.99-3.34
	c0.17-0.6,0.45-1.19,0.53-1.8c0.13-1.05,0.16-2.1,0.23-3.16C56.78,115.97,56.87,114.74,56.95,113.51z M56.32,57.74
	c0.49-0.15,0.71-0.61,0.5-1.07c-0.62-1.4-1.23-2.82-1.89-4.21c-0.2-0.41-0.41-0.82-0.64-1.23c-0.37-0.66-0.81-1.3-1.35-1.85
	c-0.2-0.2-0.38-0.29-0.66-0.25c-1.1,0.17-2.22,0.28-3.31,0.5c-1.71,0.34-3.42,0.71-5.11,1.14c-1.46,0.37-2.91,0.83-4.37,1.26
	c-0.23,0.07-0.28,0.17-0.21,0.42c0.3,1.23,0.81,2.4,1.34,3.55c0.07,0.15,0.13,0.28,0.2,0.42c0.85,1.79,1.73,3.55,2.63,5.4
	c1.02-0.48,2.03-0.97,3.04-1.44c0.08-0.03,0.15-0.07,0.23-0.08c0.6-0.13,1.2-0.24,1.8-0.4c1.97-0.54,3.94-1.1,5.92-1.65
	C55.06,58.07,55.69,57.94,56.32,57.74z M56.29,84.53c0.17-0.09,0.21-0.24,0.17-0.44c-0.3-1.36-0.53-2.75-0.93-4.1
	c-0.57-2-1.2-3.98-1.91-5.96c-0.7-1.95-1.48-3.87-2.28-5.78c-0.6-1.42-1.26-2.82-1.95-4.2c-0.41-0.82-0.94-1.6-1.44-2.38
	c-0.16-0.25-0.4-0.57-0.74-0.45c-0.97,0.34-1.92,0.75-2.87,1.14c0.01,0.04,0.03,0.08,0.04,0.12c0.15,0,0.28,0,0.42,0
	c0.65-0.05,1.24,0.01,1.79,0.19c0.75,0.25,1.38,0.75,1.84,1.52c0.89,1.5,1.83,2.95,2.46,4.58c0.91,2.41,1.96,4.77,2.87,7.17
	c0.75,2,1.28,4.06,1.63,6.17c0.07,0.37,0.21,0.77,0.13,1.11c-0.09,0.38-0.37,0.74-0.61,1.09c-0.34,0.46-0.71,0.9-1.07,1.36
	c0.03,0.01,0.05,0.04,0.08,0.07c0.24-0.11,0.48-0.19,0.71-0.32C55.2,85.14,55.75,84.83,56.29,84.53z M54.3,83.83
	c0.44-0.64,0.65-1.34,0.42-2.13c-0.44-1.59-0.75-3.2-1.23-4.78c-0.42-1.4-0.95-2.78-1.51-4.14c-0.79-1.97-1.65-3.91-2.69-5.76
	c-0.53-0.94-1.14-1.83-1.64-2.77c-0.25-0.48-0.69-0.71-1.01-1.09c-0.04-0.04-0.11-0.08-0.19-0.08c-0.01-0.01-0.04-0.01-0.07-0.01
	c-0.4-0.04-0.79-0.11-1.19-0.07c-2.33,0.21-4.63,0.58-6.84,1.26v0.01c-0.07,0.01-0.13,0.03-0.2,0.05c-2.12,0.66-4.18,1.44-6.25,2.21
	c-1.8,0.66-3.57,1.39-5.35,2.08c-0.77,0.3-1.54,0.56-2.28,0.89c-1.83,0.81-3.65,1.64-5.48,2.48c-0.33,0.15-0.56,0.36-0.64,0.62
	c-0.08,0.25-0.05,0.56,0.11,0.89c0.87,1.88,1.72,3.76,2.67,5.6c0.75,1.48,1.62,2.91,2.45,4.36c0.5,0.87,1.03,1.73,1.58,2.59
	c1.05,1.67,2.08,3.34,3.18,4.95c0.74,1.1,1.59,2.13,2.4,3.16c0.16,0.21,0.37,0.44,0.6,0.49c0.5,0.12,1.03,0.12,1.8,0.19
	c0.83-0.15,1.91-0.3,2.97-0.54c1.64-0.36,3.23-0.86,4.79-1.44c1.75-0.65,3.52-1.22,5.27-1.84c0.41-0.15,0.81-0.37,1.22-0.54
	c0.13-0.05,0.26-0.11,0.41-0.15c1.27-0.34,2.3-1.03,3.22-1.96c0.53-0.53,0.89-1.16,1.39-1.71C53.01,85.81,53.64,84.8,54.3,83.83z
	 M43.12,103.58c0.04-0.26,0.13-0.54-0.09-0.85c-1.67,1.95-2.75,4.2-3.85,6.45c-1.09,2.24-2.18,4.49-3.02,6.86
	c-0.01-0.09-0.03-0.19-0.05-0.33c-0.05,0.05-0.09,0.07-0.11,0.09c-0.57,1.23-1.06,2.5-1.35,3.83c-0.03,0.09,0.03,0.25,0.11,0.33
	c0.54,0.57,1.09,1.14,1.64,1.69c0.07,0.05,0.21,0.08,0.29,0.04c0.29-0.13,0.57-0.28,0.83-0.45c0.09-0.07,0.17-0.2,0.19-0.3
	c0.08-0.52,0.09-1.05,0.17-1.56c0.21-1.32,0.46-2.65,0.68-3.97c0.13-0.74,0.21-1.5,0.32-2.24c0.04-0.28,0.17-0.48,0.42-0.61
	c0.3-0.17,0.57-0.4,0.83-0.58c0.07,0.03,0.17,0.09,0.26,0.09c0.21-0.01,0.42-0.07,0.65-0.08c0.21-0.01,0.33-0.12,0.38-0.32
	c0.11-0.36,0.23-0.71,0.33-1.07c0.42-1.5,0.85-2.98,1.26-4.47c0.08-0.32,0.16-0.71,0.04-0.99c-0.15-0.32-0.12-0.58-0.07-0.87
	C43.02,104.03,43.09,103.81,43.12,103.58z M42.83,93.15c-0.11,0.01-0.13,0-0.17,0.01c-2.1,0.65-4.17,1.48-6.35,1.89
	c-1.38,0.25-2.73,0.73-4.17,0.6c-0.36-0.04-0.73-0.13-1.09-0.24c-0.21-0.05-0.46-0.15-0.61-0.29c-0.38-0.38-0.75-0.79-1.09-1.22
	c-0.69-0.91-1.38-1.84-2.03-2.79c-1.01-1.48-2.03-2.95-2.97-4.47c-1.1-1.81-2.1-3.67-3.15-5.49c-0.19-0.33-0.34-0.68-0.5-1.02
	c-0.04,0.01-0.08,0.04-0.12,0.05c-0.75,14.54,3.53,27.38,13.01,38.56c0.3-0.71,0.56-1.34,0.83-1.95c0.73-1.6,1.4-3.22,2.21-4.78
	c1.39-2.67,2.85-5.31,4.01-8.09c0.45-1.06,0.97-2.09,1.42-3.15c0.07-0.19,0.01-0.44-0.05-0.64c-0.12-0.41-0.3-0.79-0.45-1.18
	c-0.05-0.12-0.11-0.23-0.12-0.34c-0.03-0.15-0.03-0.29,0-0.44c0-0.08,0.11-0.15,0.11-0.2c-0.2-0.36,0.11-0.62,0.2-0.91
	c0.26-0.83,0.57-1.65,0.81-2.5C42.69,94.12,42.73,93.64,42.83,93.15z M39.54,63.5c0.26-0.05,0.52-0.15,0.79-0.21
	c-1.27-2.73-2.53-5.4-3.77-8.08c-0.04,0.01-0.07,0.01-0.11,0.03c0.01,0.11,0.01,0.2,0.03,0.29c0.07,0.42,0.13,0.86,0.19,1.28
	c0.12,0.97-0.11,1.81-0.79,2.52c-0.16,0.16-0.4,0.29-0.46,0.49c-0.17,0.46-0.48,0.82-0.81,1.15c-0.13,0.13-0.25,0.41-0.52,0.15
	c-0.03-0.03-0.13,0.01-0.19,0.04c-0.2,0.05-0.4,0.19-0.58,0.17c-0.33-0.01-0.73-0.03-0.95-0.23c-0.44-0.38-0.74-0.52-1.32-0.29
	c0.03,0.08,0.04,0.17,0.08,0.25c0.17,0.48,0.38,0.95,0.53,1.44c0.28,0.94,0.52,1.91,0.77,2.86c0.13,0.46,0.13,0.45,0.57,0.28
	C35.16,64.88,37.28,63.96,39.54,63.5z M38.74,123.71c-0.03-0.41-0.05-0.81-0.09-1.28c-0.11,0.23-0.19,0.38-0.26,0.56
	C38.18,123.39,38.25,123.53,38.74,123.71z M37.94,123.06c0.16-0.3,0.3-0.58,0.45-0.85C37.76,122.46,37.6,122.78,37.94,123.06z
	 M35.47,54.88c0-0.05,0-0.09-0.01-0.15c-0.08-0.33-0.19-0.66-0.29-0.97c-0.49-1.3-1.3-2.38-2.5-3.19c-0.41-0.28-0.9-0.5-1.43-0.17
	c-0.17,0.11-0.4,0.16-0.65,0.25c0.24,0.2,0.4,0.36,0.57,0.5c-0.03,0.03-0.04,0.05-0.05,0.08c-0.09-0.03-0.19-0.05-0.28-0.08
	c-0.3-0.13-0.6-0.29-0.91-0.37c-0.4-0.09-0.85-0.23-1.2-0.13c-0.42,0.13-0.86,0.33-1.23,0.56c-1.68,1.1-3.38,2.2-4.95,3.43
	c-1.01,0.78-1.31,2.04-1.43,3.3c-0.03,0.15-0.01,0.3-0.01,0.48c-0.15-0.04-0.24-0.05-0.32-0.07c-0.38,1.07,0.37,1.91,1.06,2.22
	c0.48,0.23,1.05,0.28,1.56,0.44c0.65,0.21,1.28-0.01,1.93,0.01c0.38,0.01,0.78,0.03,1.15-0.04c1.46-0.3,2.91-0.62,4.37-0.95
	c0.28-0.07,0.54-0.21,0.81-0.34c0.26-0.15,0.5-0.34,0.78-0.48c0.74-0.33,1.19-0.9,1.23-1.71c0.07-1.2-0.19-2.36-0.74-3.43
	c-0.11-0.21-0.23-0.41-0.34-0.61c0.03-0.03,0.05-0.05,0.09-0.09c0.15,0.13,0.32,0.25,0.44,0.4c0.16,0.17,0.26,0.37,0.4,0.54
	c0.52-0.2,0.89-0.73,1.6-0.52c-0.42,0.49-1.06,0.38-1.51,0.7c0.13,0.37,0.25,0.73,0.37,1.1c0.5-0.24,0.99-0.46,1.5-0.69
	C35.45,54.91,35.47,54.89,35.47,54.88z M35.08,57.87c-0.29,0.34-0.57,0.68-0.86,1.02c0.03,0.01,0.05,0.04,0.08,0.07
	C34.7,58.71,34.99,58.36,35.08,57.87z M35,55.82c0.05-0.04,0.05-0.13,0.09-0.2c-0.08-0.01-0.15-0.07-0.21-0.05
	c-0.19,0.04-0.36,0.09-0.53,0.15c-0.41,0.12-0.45,0.24-0.21,0.66C34.43,56.19,34.72,56.02,35,55.82z M34.96,57.6
	c-0.48,0.01-0.78,0.26-0.95,0.6c-0.19,0.36-0.44,0.68-0.68,1.01c-0.05,0.08-0.12,0.13-0.19,0.2c0.03,0.04,0.05,0.07,0.09,0.09
	C34.04,59.08,34.41,58.27,34.96,57.6z M33.43,50.04c0.37,0.41,0.73,0.79,1.14,1.24C34.34,50.46,33.89,49.97,33.43,50.04z
	 M31.23,49.96c-0.49-0.08-0.97-0.05-1.42,0.24C30.42,50.88,30.78,50.16,31.23,49.96z M31.73,65.64c-0.49-1.54-0.98-3.04-1.48-4.55
	c-0.03-0.08-0.21-0.15-0.32-0.13c-0.52,0.07-1.03,0.17-1.55,0.26c-0.37,0.07-0.75,0.09-1.11,0.19c-0.61,0.15-1.19,0.33-1.8,0.46
	c-0.23,0.05-0.37,0.11-0.45,0.33c-0.56,1.4-1.13,2.81-1.65,4.22c-0.34,0.94-0.61,1.91-0.91,2.86c0.04,0.03,0.07,0.05,0.09,0.08
	C25.48,67.85,28.52,66.57,31.73,65.64z"/>
<path class="st0" d="M125.62,78.29c1.72,16.65-4.67,30.26-10.78,37.82c-0.38-0.57-0.77-1.13-1.13-1.69
	c-1.54-2.53-3.08-5.06-4.59-7.61c-0.64-1.09-1.11-2.25-1.75-3.32c-0.66-1.13-1.43-2.17-2.14-3.26c-0.04-0.08-0.11-0.17-0.09-0.24
	c0.13-0.57,0.28-1.14,0.44-1.71c0.04,0,0.09,0,0.15,0c0.05,0.44,0.11,0.87,0.19,1.3c0.01,0.11,0.11,0.2,0.16,0.3
	c0.09-0.08,0.23-0.13,0.26-0.23c0.23-0.71,0.48-1.42,0.65-2.14c0.32-1.35,0.46-2.73,0.46-4.12c0-0.6,0.07-1.2,0.04-1.81
	c-0.01-0.73-0.09-1.47-0.15-2.21c0-0.08,0-0.15,0-0.23c0.01-0.03,0.04-0.05,0.07-0.07c0.28,0.21,0.56,0.44,0.83,0.65
	c0.12,0.08,0.25,0.13,0.37,0.19c0.07-0.13,0.2-0.29,0.17-0.41c-0.15-0.71-0.29-1.43-0.53-2.12c-0.53-1.63-1.07-3.24-1.67-4.85
	c-0.5-1.35-0.64-2.75-0.86-4.14c-0.17-1.07-0.26-2.14-0.45-3.22c-0.04-0.32-0.04-0.58,0.03-0.89c0.19-0.78,0.12-1.56-0.11-2.33
	c-0.08-0.28-0.16-0.54-0.03-0.83c0.04-0.07,0.04-0.17,0.04-0.26c0.03-0.42,0.15-0.74,0.6-0.94c0.41-0.17,0.41-0.37,0.25-0.79
	c-0.03-0.05-0.04-0.11-0.07-0.15c-0.44-0.49-0.25-0.93,0.08-1.35c0.4-0.49,0.81-0.98,1.2-1.48c0.28,0.33,0.41,0.36,0.71,0.04
	c0.15-0.15,0.29-0.32,0.38-0.5c0.13-0.26,0.3-0.33,0.56-0.24c0.03,0,0.07,0.01,0.09,0.03c0.48,0.11,0.54,0.11,0.73-0.34
	c0.29-0.73,0.45-1.5,0.44-2.3c0-0.15,0-0.29,0-0.46c0.12,0,0.21-0.01,0.32-0.03c0.56-0.03,1.07-0.38,1.13-0.95
	c0.11-0.81,0.12-1.63,0.15-2.45c0.01-0.32-0.01-0.64-0.01-0.95c0-0.33,0.17-0.57,0.44-0.73c0.17-0.09,0.23-0.2,0.19-0.41
	c-0.12-0.68-0.29-1.36-0.28-2.03c0.03-0.95,0.2-1.89,0.32-2.83c0.05-0.46-0.04-0.89-0.29-1.27c-0.19-0.26-0.24-0.53-0.17-0.86
	c0.12-0.56,0.16-1.13,0.26-1.71C119.91,56.76,124.42,66.8,125.62,78.29z"/>
<path d="M124.25,17.71c0.12-0.4,0.34-0.52,0.7-0.4C124.7,17.46,124.5,17.56,124.25,17.71z"/>
<path d="M108.99,21.46c-0.71,0.17-1.73-0.23-1.77-0.71C107.84,20.99,108.42,21.22,108.99,21.46z"/>
<path d="M108.7,62.76c0.25,0.33,0.24,0.66,0,0.91C108.7,63.37,108.7,63.1,108.7,62.76z"/>
<path d="M104.86,48.41c-0.04,0.04-0.07,0.09-0.09,0.13c-0.16-0.11-0.3-0.21-0.46-0.32c0.03-0.04,0.04-0.08,0.07-0.12
	C104.53,48.21,104.69,48.32,104.86,48.41z"/>
<path d="M102.05,91.37c0,0.25-0.03,0.5-0.08,0.74c-0.32,1.65-0.68,3.3-1.51,4.78c-0.24,0.45-0.6,0.83-0.9,1.23
	c-0.12,0.16-0.24,0.13-0.29-0.07c-0.04-0.17-0.08-0.34-0.13-0.61c-0.97,2.14-1.85,4.25-3.79,5.64c0.77-1.14,1.62-2.24,2.28-3.44
	c0.68-1.2,1.15-2.52,1.75-3.85c0.12,0.44,0.23,0.81,0.36,1.28c0.16-0.33,0.28-0.6,0.4-0.86c0.64-1.59,1.23-3.19,1.55-4.88
	c0.03-0.11,0.13-0.2,0.2-0.3C101.93,91.14,102.05,91.25,102.05,91.37z"/>
<path d="M100.8,87.34c-0.01,0.03-0.03,0.07-0.05,0.09c-0.13-0.04-0.26-0.05-0.38-0.11c-0.28-0.15-0.53-0.3-0.81-0.46
	c-0.36-0.2-0.74-0.38-1.1-0.61c-0.26-0.16-0.52-0.33-0.74-0.53c-0.58-0.52-1.15-1.06-1.75-1.58c-0.04-0.05-0.21-0.03-0.26,0.03
	c-0.65,0.71-1.75,1.11-2.73,0.87c0.12-0.08,0.24-0.19,0.37-0.23c0.74-0.16,1.44-0.41,2.05-0.89c0.05-0.05,0.12-0.08,0.16-0.12
	c0.03-0.03,0.04-0.05,0.08-0.12c-0.13-0.16-0.25-0.32-0.37-0.48c-1.38,1.06-2.91,1.43-4.57,1.1c-1.65-0.34-2.89-1.3-3.79-2.81
	c-0.19,0.05-0.42,0.12-0.73,0.21c0.91,1.44,2.1,2.45,3.59,3.16c-0.61-0.03-1.13-0.29-1.63-0.57c-0.77-0.44-1.32-1.1-1.85-1.79
	c-0.11-0.15-0.17-0.33-0.23-0.5c-0.07-0.2-0.17-0.23-0.37-0.19c-1.02,0.24-2.05,0.49-3.1,0.69c-1.16,0.2-2.34,0.09-3.49-0.2
	c-0.94-0.23-1.87-0.54-2.67-1.11c-0.23-0.16-0.4-0.42-0.54-0.68c-0.07-0.11-0.01-0.28-0.01-0.42c0.05-0.01,0.09-0.03,0.13-0.04
	c0.09,0.15,0.19,0.3,0.28,0.44c0.5,0.66,1.23,0.95,1.99,1.11c0.89,0.2,1.8,0.32,2.71,0.34c0.68,0.03,1.36-0.09,2.04-0.24
	c1.1-0.24,2.21-0.48,3.27-0.85c1.89-0.66,3.75-1.43,5.61-2.14c0.3-0.12,0.65-0.15,0.94-0.28c0.34-0.16,0.66-0.38,1.01-0.58
	c0.45-0.26,0.9-0.52,1.36-0.78c0.07-0.03,0.15-0.03,0.21-0.04c0.03,0.03,0.05,0.05,0.07,0.09c-0.32,0.28-0.64,0.56-0.95,0.82
	c-0.16,0.13-0.33,0.21-0.5,0.3c-0.45,0.26-0.49,0.28-0.28,0.78c0.37,0.86,0.73,1.75,1.22,2.55c0.6,0.95,1.26,1.88,2,2.73
	c0.54,0.61,1.26,1.09,1.92,1.59c0.5,0.4,1.05,0.73,1.56,1.1C100.58,87.12,100.68,87.23,100.8,87.34z M94.82,83.08
	c0.17-0.09,0.2-0.19,0.09-0.34c-0.34-0.53-0.69-1.06-1.03-1.58c-0.04-0.07-0.13-0.17-0.2-0.17c-0.4-0.01-0.79-0.01-1.24-0.01
	c0.81,1.02,0.81,1.02,0.61,1.24c-0.07-0.05-0.13-0.09-0.19-0.15c-0.62-0.61-1.24-1.22-1.87-1.84c-0.17-0.17-0.33-0.19-0.56-0.09
	c-0.78,0.34-1.59,0.65-2.38,0.97c-0.21,0.09-0.44,0.16-0.7,0.25c0.12,0.2,0.2,0.38,0.33,0.5c0.52,0.45,1.01,0.94,1.58,1.3
	c0.78,0.48,1.62,0.81,2.57,0.81C92.93,83.97,93.88,83.57,94.82,83.08z"/>
<path d="M95.72,59.46c0.28,0.66,0.23,1.32-0.29,1.88c-0.05,0.07-0.13,0.12-0.19,0.17c-0.04-0.03-0.07-0.04-0.09-0.07
	c0.07-0.15,0.11-0.29,0.19-0.42c0.24-0.46,0.26-0.95,0.08-1.43c-0.42-1.05-0.9-2.07-1.32-3.11c-0.08-0.16-0.05-0.36-0.08-0.54
	c0.12,0.13,0.26,0.24,0.33,0.4C94.82,57.37,95.29,58.42,95.72,59.46z"/>
<path d="M90.34,63.63c0.08,0.2,0.01,0.29-0.19,0.29c-0.97-0.04-1.93-0.04-2.9-0.13c-1.03-0.12-2.01-0.5-2.95-0.94
	c-0.38-0.19-0.75-0.44-1.16-0.57c-0.5-0.16-1.03-0.32-1.55-0.32c-1.59,0-3.15,0.2-4.54,1.06c-0.09,0.05-0.17,0.11-0.26,0.16
	c-0.08,0.05-0.17,0.11-0.26,0.16c0-0.04,0.01-0.09,0.03-0.13c0.09-0.33,0.49-0.78,0.9-0.94c0.46-0.17,0.94-0.29,1.4-0.49
	c-0.19-0.03-0.38-0.05-0.58-0.08c0.44-0.4,0.98-0.33,1.47-0.41c0.5-0.09,1.05-0.09,1.56-0.07c0.52,0.03,1.03,0.13,1.6,0.23
	c0.01-0.21,0.04-0.42,0.05-0.62c0.03-1.03,0.42-1.92,1.01-2.74c0.48-0.68,1.14-1.02,1.91-1.31c1.19-0.44,2.21-0.12,3.11,0.6
	c0.36,0.28,0.53,0.81,0.75,1.23c0.12,0.2,0.19,0.42,0.32,0.62c0.11-0.4-0.01-0.75-0.23-1.07c-0.45-0.73-1.07-1.28-1.76-1.8
	c-0.34-0.24-0.68-0.49-1.01-0.81c0.05,0.01,0.11,0,0.16,0c0.05,0,0.11,0.01,0.15,0.03c1.23,0.7,2.42,1.44,2.91,2.87
	c0.2,0.58,0.04,1.18-0.15,1.75c-0.01,0.09-0.01,0.19,0,0.26c0.07,0.68,0.15,1.34,0.2,2c0.03,0.23-0.04,0.46-0.04,0.69
	C90.27,63.3,90.28,63.47,90.34,63.63z M89.9,63.45c0-0.62,0.05-1.24-0.01-1.85c-0.07-0.68-0.19-1.35-0.36-2.01
	c-0.29-1.19-0.86-2.09-2.21-2.4c-0.74-0.17-1.39-0.01-1.95,0.32c-0.79,0.49-1.39,1.2-1.62,2.16c-0.11,0.48-0.24,0.93-0.36,1.39
	c-0.15,0.52-0.15,0.52,0.32,0.78c0.07,0.04,0.12,0.08,0.17,0.12c0.68,0.37,1.32,0.79,2.04,1.1C87.19,63.59,88.54,63.49,89.9,63.45z"
	/>
<path d="M88.13,41.42c-0.62,0.2-1.24,0.17-1.87,0.03C86.88,41.23,87.5,41.29,88.13,41.42z"/>
<path d="M86.48,58.63c0.42,0.46,0.53,1.16,0.25,1.76c-0.11,0.23-0.21,0.45-0.3,0.69c-0.41,1.05-0.98,0.93-1.71,0.46
	c-0.36-0.23-0.54-0.58-0.5-0.93c0.05-0.99,0.53-1.62,1.2-2.12C85.82,58.2,86.15,58.27,86.48,58.63z"/>
<path d="M86.67,51.78c-0.01,0.05-0.01,0.09-0.01,0.15c-0.41-0.04-0.83,0.13-1.22-0.11c0-0.04,0.01-0.09,0.03-0.13
	C85.86,51.72,86.27,51.76,86.67,51.78z"/>
<path class="st0" d="M86.17,32.36c-0.44,0.6-0.83,1.16-1.27,1.71c-1.28,1.62-2.59,3.2-3.89,4.81c-0.08,0.09-0.16,0.17-0.21,0.26
	c-0.21,0.42-0.56,0.64-1.02,0.71c-0.17,0.04-0.36,0.19-0.45,0.33c-0.71,1.09-1.42,2.17-2.12,3.27c-0.19,0.3-0.37,0.58-0.7,0.77
	c-0.3,0.17-0.57,0.45-0.85,0.69c-0.05,0.05-0.12,0.12-0.12,0.2c-0.04,0.69-0.52,1.14-0.89,1.65c-0.73,1.02-1.5,2.03-2.21,3.04
	c-0.61,0.87-0.94,1.85-1.14,2.89c-0.04,0.26-0.04,0.56,0.04,0.81c0.08,0.25,0.08,0.46-0.09,0.66c-0.42,0.52-0.85,1.03-1.3,1.54
	c-0.09,0.11-0.25,0.15-0.37,0.23c-0.09,0.08-0.23,0.19-0.21,0.26c0,0.11,0.11,0.24,0.21,0.3c0.13,0.08,0.3,0.13,0.48,0.19
	c-0.03,0.04-0.03,0.08-0.05,0.11c-0.52,0.78-0.52,0.78-1.32,0.33c-0.33-0.19-0.7-0.32-1.02-0.5c-0.6-0.36-1.16-0.74-1.75-1.11
	c-0.26-0.16-0.53-0.3-0.81-0.45c-0.37-0.2-0.71-0.19-1.07,0.15c-0.19-0.28-0.38-0.53-0.56-0.79c-0.98-1.6-1.97-3.2-2.95-4.81
	c-0.5-0.82-1.05-1.62-1.51-2.45c-0.26-0.49-0.53-0.97-0.78-1.44c-0.21-0.4-0.48-0.62-0.79-0.86c-0.08-0.07-0.08-0.25-0.17-0.3
	c-0.46-0.25-0.94-0.48-1.42-0.7c-0.03-0.01-0.09,0.03-0.23,0.08c0.19,0.15,0.33,0.24,0.48,0.34c-0.01,0.03-0.01,0.05-0.01,0.08
	c-0.21-0.01-0.44-0.07-0.65-0.07c-0.16,0-0.32,0.05-0.46,0.08c-0.09,0.03-0.17,0.08-0.25,0.09c-2.24,0.4-4.47,0.79-6.71,1.19
	c-2.05,0.37-4.12,0.73-6.16,1.14c-2.42,0.49-4.85,0.93-7.16,1.81c-0.44,0.17-0.89,0.33-1.34,0.49c-0.01-0.01-0.04-0.03-0.05-0.04
	c0.73-0.78,1.44-1.58,2.2-2.34c0.82-0.82,1.67-1.63,2.52-2.42c6.54-6.01,14.19-9.92,22.78-12.06c0.75-0.19,1.51-0.33,2.28-0.5
	c3.96-0.9,7.97-1.11,12.02-0.98c2.59,0.08,5.18,0.34,7.72,0.85C83.92,31.79,85.02,32.1,86.17,32.36z"/>
<path d="M69.63,60.98c0.33,0.68,0.53,1.38,0.17,2.13c-0.07,0.15-0.08,0.3-0.13,0.46c-0.09,0.28-0.19,0.56-0.53,0.64
	c-0.25,0.07-0.36,0.25-0.37,0.52c-0.03,0.28-0.12,0.56-0.19,0.82c-0.04,0.12-0.09,0.21-0.16,0.26c-0.11,0.07-0.24,0.09-0.4,0.07
	c-0.24-0.03-0.49-0.05-0.74-0.12c-0.08-0.01-0.13-0.15-0.2-0.24c0.09-0.04,0.19-0.11,0.26-0.11c0.64-0.01,0.68,0,0.69-0.64
	c0.01-0.5,0.15-0.85,0.61-1.09c0.42-0.23,0.52-0.68,0.54-1.11c0.03-0.36,0.03-0.71,0.04-1.06c0-0.23-0.07-0.3-0.32-0.24
	c-0.34,0.09-0.7,0.29-1.15,0.05c0.16-0.13,0.28-0.26,0.41-0.36c0.45-0.29,0.5-0.68,0.17-1.1c-0.53-0.69-1.16-1.24-1.87-1.73
	c-0.13-0.09-0.25-0.21-0.38-0.32c0.03-0.04,0.05-0.09,0.08-0.12c0.33,0.17,0.71,0.29,1.05,0.48c0.11,0.05,0.21,0.12,0.3,0.2
	C68.4,59.1,69.13,59.96,69.63,60.98z"/>
<path class="st0" d="M56.82,56.67c0.21,0.46-0.01,0.93-0.5,1.07c-0.62,0.2-1.26,0.33-1.88,0.5c-1.97,0.56-3.94,1.11-5.92,1.65
	c-0.6,0.16-1.2,0.26-1.8,0.4c-0.08,0.01-0.15,0.05-0.23,0.08c-1.02,0.48-2.03,0.97-3.04,1.44c-0.9-1.85-1.79-3.61-2.63-5.4
	c-0.07-0.15-0.13-0.28-0.2-0.42c-0.53-1.15-1.03-2.32-1.34-3.55c-0.07-0.25-0.01-0.36,0.21-0.42c1.46-0.42,2.91-0.89,4.37-1.26
	c1.69-0.42,3.4-0.79,5.11-1.14c1.09-0.23,2.21-0.33,3.31-0.5c0.28-0.04,0.46,0.05,0.66,0.25c0.54,0.56,0.98,1.19,1.35,1.85
	c0.23,0.41,0.44,0.82,0.64,1.23C55.59,53.85,56.2,55.27,56.82,56.67z"/>
<path d="M53.1,88.39c0.24,0.45,0.17,1.46-0.11,1.72C52.75,89.78,52.81,88.77,53.1,88.39z"/>
<path d="M52.85,92.82c0.25,0.33,0.26,3.47,0,4.08c-0.16-0.29-0.37-0.52-0.38-0.74c-0.08-1.15-0.11-2.29-0.15-3.44
	c0-0.15,0.09-0.3,0.15-0.45c0.04,0.01,0.09,0.01,0.13,0.03c0,0.33,0,0.65,0,0.98c0.04,0.01,0.07,0.01,0.09,0.01
	C52.74,93.14,52.79,92.98,52.85,92.82z"/>
<path d="M49.31,86.41c0.15,0.56,0,1.06-0.28,1.54c-0.09,0.13-0.23,0.25-0.37,0.34c-0.65,0.38-1.31,0.71-2,1.01
	c-1.18,0.5-2.42,0.89-3.65,1.28c-0.61,0.2-1.22,0.4-1.83,0.6c-0.15,0.05-0.29,0.09-0.45,0.13c-0.01-0.04-0.03-0.08-0.05-0.11
	c0.25-0.13,0.5-0.29,0.77-0.4c1.63-0.65,3.27-1.27,4.88-1.96c0.54-0.23,1.05-0.6,1.52-0.97c0.53-0.44,0.66-1.07,0.58-1.71
	c-0.05-0.45-0.24-0.87-0.46-1.34c-0.11,0.21-0.24,0.42-0.33,0.65c-0.24,0.5-0.53,0.95-0.9,1.39c-0.38,0.44-0.78,0.82-1.26,1.14
	c-0.93,0.62-1.91,1.11-2.99,1.38c-0.25,0.07-0.5,0.09-0.62,0.41c-0.04,0.11-0.26,0.19-0.41,0.19c-0.21,0-0.44-0.07-0.66-0.12
	c-0.23-0.05-0.44-0.2-0.68-0.01c-0.07,0.04-0.2,0.01-0.29-0.01c-1.35-0.45-2.73-0.83-3.87-1.71c-0.79-0.61-1.5-1.34-2.24-2.01
	c-0.25-0.23-0.53-0.44-0.74-0.69c-0.33-0.38-0.68-0.78-0.93-1.22c-0.7-1.2-1.38-2.42-2.03-3.65c-0.56-1.1-0.97-2.26-1.02-3.51
	c-0.03-0.49,0.07-0.98,0.13-1.47c0.09-0.93,0.21-1.85,0.3-2.78c0.11-1.01,0.65-1.79,1.3-2.5c0.53-0.58,0.5-0.79-0.25-1.01
	c-0.25-0.08-0.56-0.13-0.79-0.05c-1.87,0.61-3.76,1.16-5.57,1.89c-1.3,0.52-2.49,1.27-3.72,1.93c-0.41,0.23-0.75,0.52-0.78,1.07
	c-0.24-0.21-0.32-0.46-0.26-0.75c0.08-0.42,0.3-0.73,0.68-0.95c1.71-1.06,3.53-1.88,5.4-2.62c1.06-0.42,2.09-0.87,3.14-1.3
	c1.63-0.66,3.27-1.32,4.91-1.96c1.48-0.57,2.99-1.11,4.49-1.67c0.17-0.07,0.34-0.12,0.52-0.19c0.17-0.05,0.34-0.09,0.53-0.15
	c0.53-0.16,1.67,0.29,2,0.86c0.6,1.06,1.16,2.12,1.67,3.22c0.68,1.47,1.3,2.97,1.89,4.47c0.85,2.16,1.67,4.34,2.46,6.53
	c0.11,0.26,0.2,0.53,0.3,0.79c0.6,1.63,1.14,3.28,1.71,4.91C49.18,85.69,49.22,86.06,49.31,86.41z M46.37,80.09
	c-0.03-0.07-0.04-0.12-0.05-0.19c-0.81-2.09-1.62-4.2-2.41-6.3c-0.6-1.62-1.8-2.65-3.31-3.32c-1.09-0.48-2.22-0.81-3.36-1.14
	c-1.18-0.36-2.37-0.37-3.51,0.17c-0.62,0.29-1.23,0.62-1.77,1.02c-0.83,0.58-1.51,1.31-1.69,2.36c-0.17,0.95-0.32,1.91-0.45,2.86
	c-0.01,0.04-0.01,0.07-0.01,0.11c-0.03,0.23-0.01,0.45,0,0.68c0.11,1.69,0.73,3.24,1.36,4.78c0.73,1.76,1.84,3.27,3.1,4.7
	c0.11,0.12,0.24,0.23,0.37,0.33c0.03-0.01,0.07-0.01,0.09-0.03c-0.33-0.36-0.15-0.64,0.05-0.91c0.15-0.19,0.26-0.37,0.38-0.57
	c0.08-0.09,0.13-0.21,0.2-0.32c-0.03-0.01-0.05-0.03-0.08-0.05c-0.17,0.15-0.34,0.29-0.56,0.46c-0.09-0.36,0.11-0.5,0.3-0.62
	c0.17-0.09,0.2-0.17,0.16-0.34c-0.09-0.32-0.21-0.61-0.49-0.81c-0.21-0.16-0.45-0.32-0.62-0.52c-0.69-0.81-1.19-1.71-1.34-2.77
	c-0.05-0.4,0-0.82,0.04-1.22c0-0.11,0.09-0.23,0.17-0.28c0.61-0.42,1.15-0.41,1.77,0c0.83,0.54,1.38,1.31,1.71,2.22
	c0.26,0.73,0.37,1.47,0.15,2.24c-0.09,0.32,0.16,0.6,0.49,0.61c0.11,0.01,0.21,0.03,0.3,0.04c0.52,0.11,1.05,0.21,1.6,0.32
	c-0.01-0.45,0.21-0.74,0.54-0.98c0.49-0.36,0.5-0.37,0.21-0.89c-0.09-0.16-0.28-0.25-0.42-0.36c-0.2-0.13-0.45-0.21-0.6-0.38
	c-0.52-0.6-0.81-1.32-0.85-2.12c-0.03-0.56,0.29-1.26,1.09-1.13c0.26,0.04,0.58,0.23,0.75,0.45c0.41,0.53,0.78,1.1,1.11,1.68
	c0.09,0.19,0.09,0.46,0.04,0.69c-0.08,0.29-0.03,0.5,0.21,0.66c0.29-0.32,0.58-0.64,0.83-0.98c0.07-0.08,0.08-0.26,0.04-0.37
	c-0.04-0.08-0.21-0.2-0.29-0.19c-0.48,0.12-0.66-0.21-0.86-0.52c-0.3-0.46-0.54-0.98-0.87-1.43c-0.48-0.66-0.4-1.97,0.19-2.66
	c0.53-0.62,1.63-0.9,2.17-0.17c0.42,0.56,0.82,1.14,1.1,1.76c0.21,0.48,0.36,1.06,0.26,1.55c-0.07,0.45-0.01,0.77,0.23,1.1
	c0.08,0.11,0.26,0.21,0.37,0.19C45.04,79.33,45.74,79.49,46.37,80.09z"/>
<path class="st0" d="M42.65,93.17c0.04-0.01,0.07,0,0.17-0.01c-0.09,0.49-0.13,0.97-0.26,1.42c-0.24,0.85-0.54,1.67-0.81,2.5
	c-0.09,0.29-0.4,0.56-0.2,0.91c0,0.05-0.11,0.12-0.11,0.2c-0.03,0.15-0.03,0.29,0,0.44c0.01,0.12,0.07,0.23,0.12,0.34
	c0.15,0.38,0.33,0.77,0.45,1.18c0.07,0.2,0.12,0.45,0.05,0.64c-0.45,1.06-0.97,2.09-1.42,3.15c-1.16,2.78-2.62,5.41-4.01,8.09
	c-0.81,1.56-1.48,3.18-2.21,4.78c-0.28,0.61-0.53,1.23-0.83,1.95c-9.48-11.19-13.77-24.03-13.01-38.56
	c0.04-0.01,0.08-0.04,0.12-0.05c0.16,0.34,0.32,0.69,0.5,1.02c1.05,1.83,2.05,3.68,3.15,5.49c0.94,1.52,1.96,2.99,2.97,4.47
	c0.65,0.95,1.34,1.88,2.03,2.79c0.33,0.42,0.7,0.83,1.09,1.22c0.15,0.15,0.4,0.24,0.61,0.29c0.36,0.11,0.73,0.2,1.09,0.24
	c1.44,0.13,2.79-0.34,4.17-0.6C38.48,94.65,40.55,93.81,42.65,93.17z"/>
<path d="M35.48,92.79c0.94-0.4,1.92-0.69,2.94-0.78C37.5,92.53,36.51,92.73,35.48,92.79z"/>
<path d="M32.05,58.83c-0.15,0.26-0.46,0.34-0.73,0.48c-0.13,0.07-0.29,0.11-0.42,0.07c-0.12-0.03-0.26-0.16-0.28-0.26
	c0-0.19,0.16-0.17,0.33-0.17C31.3,58.93,31.65,58.87,32.05,58.83z"/>
<path class="st0" d="M30.25,61.09c0.5,1.51,0.99,3.02,1.48,4.55c-3.22,0.93-6.25,2.21-9.19,3.72c-0.03-0.03-0.05-0.05-0.09-0.08
	c0.3-0.95,0.57-1.92,0.91-2.86c0.53-1.42,1.1-2.82,1.65-4.22c0.08-0.23,0.23-0.28,0.45-0.33c0.61-0.13,1.19-0.32,1.8-0.46
	c0.36-0.09,0.74-0.12,1.11-0.19c0.52-0.09,1.03-0.2,1.55-0.26C30.04,60.94,30.22,61.01,30.25,61.09z"/>
<path d="M26.8,60.08c0.93-0.2,1.83-0.4,2.73-0.6C29.02,60.1,27.21,60.52,26.8,60.08z"/>
<path d="M24.69,60.4c-0.21,0.08-0.42,0.16-0.64,0.24c-0.01-0.05-0.04-0.12-0.07-0.17c0.23-0.07,0.44-0.13,0.65-0.19
	C24.66,60.32,24.66,60.36,24.69,60.4z"/>
<path d="M24.02,81.79c0.19,0.3,0.37,0.61,0.56,0.91c-0.03,0.01-0.05,0.04-0.08,0.05c-0.2-0.29-0.4-0.58-0.6-0.89
	C23.94,81.85,23.98,81.83,24.02,81.79z"/>
</svg>
