<?xml version="1.0" encoding="utf-8"?>
<!-- Generator: Adobe Illustrator 23.0.1, SVG Export Plug-In . SVG Version: 6.00 Build 0)  -->
<svg version="1.1" id="Layer_3" xmlns="http://www.w3.org/2000/svg" xmlns:xlink="http://www.w3.org/1999/xlink" x="0px" y="0px"
	 viewBox="0 0 144 144" style="enable-background:new 0 0 144 144;" xml:space="preserve">
<style type="text/css">
	.st0{fill:#BE202E;}
</style>
<path d="M33.09,93.45c-0.06,0.19-0.12,0.34-0.19,0.54C33.34,93.8,33.37,93.77,33.09,93.45z M108.61,11.82
	c0.47,0.07,0.95,0.13,1.41,0.18c0.93,0.11,1.87,0.09,2.8,0.18c0.08,0.01,0.15,0.02,0.22,0.05c-0.07-0.02-0.14-0.05-0.22-0.05
	c-0.05-0.01-0.08-0.02-0.13-0.02c-0.92-0.09-1.87-0.08-2.79-0.18C109.48,11.92,109.05,11.87,108.61,11.82z M103.07,10.22
	c-0.26-0.05-0.53-0.05-0.81-0.04c-1.16,0.06-2.31,0.05-3.47,0.11c-1.23,0.06-2.44,0.18-3.66,0.25c-2.82,0.16-5.54,0.74-8.01,2.23
	c-1.46,0.89-2.77,1.95-3.82,3.3c-1.07,1.39-2.04,2.87-3.05,4.31c-1.69,2.43-3.4,4.87-5.08,7.29c-0.18,0.25-0.36,0.35-0.67,0.34
	c-2.95-0.18-5.88-0.06-8.81,0.27c-3.27,0.35-6.48,0.99-9.62,1.95c-8.74,2.67-16.26,7.05-22.51,13.14
	c6.26-6.03,13.76-10.39,22.46-13.06c3.15-0.96,6.37-1.6,9.64-1.96c2.94-0.32,5.88-0.43,8.83-0.27c0.32,0.02,0.5-0.08,0.67-0.33
	c1.7-2.44,3.4-4.88,5.1-7.32c1.02-1.45,1.98-2.93,3.06-4.33c1.05-1.34,2.37-2.42,3.84-3.3c2.46-1.51,5.18-2.08,8.02-2.23
	c1.23-0.07,2.45-0.2,3.68-0.26c1.16-0.06,2.32-0.05,3.48-0.11C102.6,10.2,102.84,10.2,103.07,10.22z M110.08,43.22
	c-3.26-3.13-6.89-5.81-10.84-8.06c-0.05-0.04-0.06-0.07-0.09-0.09c0.02,0.07,0.08,0.13,0.19,0.19
	C103.26,37.48,106.84,40.14,110.08,43.22z M127.48,70.73c1.07,4.69,1.52,9.48,1.35,14.21c-0.44,12.6-4.6,23.92-12.32,33.64
	c-7.67,9.65-17.63,16.23-29.62,19.57c-2.92,0.81-6.05,1.39-9.31,1.72c-1.94,0.19-3.87,0.29-5.74,0.29c-1.47,0-2.95-0.07-4.39-0.19
	c-12.27-1.02-23.22-5.57-32.58-13.51c-4.69-3.99-8.68-8.73-11.89-14.09c-3.42-5.73-5.78-11.95-7.03-18.49
	c-0.79-4.19-1.12-8.4-0.97-12.52c0.4-11.24,3.78-21.51,10.07-30.53C32.62,39.98,42.9,32.5,55.61,28.61
	c3.13-0.96,6.47-1.63,9.92-2.01c2.14-0.25,4.24-0.36,6.26-0.36c0.77,0,1.55,0.02,2.31,0.06c1.6-2.3,3.2-4.6,4.8-6.89
	c0.28-0.4,0.55-0.81,0.83-1.2c0.72-1.05,1.47-2.14,2.26-3.17c1.09-1.41,2.49-2.61,4.28-3.71c2.43-1.48,5.22-2.26,8.78-2.46
	c0.55-0.04,1.1-0.08,1.66-0.12c0.67-0.06,1.34-0.11,2.02-0.14c0.57-0.02,1.14-0.04,1.73-0.05c0.57-0.01,1.16-0.02,1.73-0.06
	c0.12,0,0.23-0.01,0.35-0.01c0.99,0,1.94,0.23,2.81,0.68c1.41,0.72,3.06,0.95,4.75,1.12c0.46,0.06,0.92,0.07,1.38,0.09
	c0.47,0.02,0.93,0.05,1.4,0.09c0.85,0.08,1.52,0.4,1.97,0.93c0.69,0.85,0.6,1.91,0.56,2.26c-0.18,1.79-1.49,2.7-2.07,3.08
	c-1.07,0.74-2.23,1.11-3.24,1.44c-0.05,0.01-0.07,0.01-0.18,0.15c-0.5,0.67-1.13,1.13-1.74,1.55c-1.31,0.9-2.61,1.79-3.9,2.66
	l-0.97,0.65c-0.08,0.37-0.16,0.71-0.26,1.05c-0.78,2.74-1.58,5.58-1.98,8.46c-0.06,0.48-0.13,0.95-0.21,1.42
	c4.95,2.92,9.38,6.54,13.21,10.76C120.77,52.33,125.29,61.01,127.48,70.73z M124.86,94.24c1.95-9.79,1.31-19.41-2.01-28.84
	c-2.12-6.06-5.26-11.55-9.38-16.49c-4.12-4.95-8.95-9.03-14.56-12.29c-0.04,0.55-0.09,1.02-0.09,1.48c0,0.55-0.12,1.07,0.14,1.62
	c0.27,0.61,0.49,1.25,0.58,1.9c0.18,1.09-0.07,2.17-0.19,3.24c-0.04,0.23,0.01,0.5,0.12,0.7c0.25,0.44,0.37,0.9,0.3,1.41
	c-0.12,0.83-0.28,1.67-0.29,2.51c-0.01,0.63,0.16,1.27,0.25,1.93c0.01,0.11-0.05,0.26-0.13,0.33c-0.3,0.23-0.44,0.49-0.44,0.89
	c-0.01,1.03-0.05,2.05-0.12,3.08c-0.05,0.53-0.49,0.9-1.02,0.9c-0.39-0.01-0.37,0.16-0.4,0.46c-0.08,0.71-0.19,1.44-0.36,2.14
	c-0.13,0.53-0.2,0.53-0.72,0.39c-0.3-0.09-0.49-0.04-0.62,0.27c-0.06,0.14-0.18,0.28-0.29,0.39c-0.12,0.11-0.27,0.23-0.41,0.23
	c-0.09,0-0.18-0.2-0.28-0.33c-0.28,0.36-0.56,0.74-0.86,1.14c0.14,0.04,0.21,0.07,0.29,0.08c1.38,0.26,2.77,0.51,4.14,0.78
	c4.25,0.83,8.48,1.69,12.67,2.81c0.34,0.09,0.68,0.19,1.02,0.29c0.32,0.11,0.62,0.22,0.95,0.33c-4.55-1.33-9.2-2.23-13.84-3.14
	c0.39,0.18,0.76,0.37,1.16,0.47c2.75,0.65,5.52,1.3,8.31,1.94c-0.12,0.01-0.2,0.02-0.29,0.04c0.82,0.29,1.62,0.64,2.51,0.58
	c0.55-0.04,1.04,0.11,1.52,0.36c0.18,0.11,0.37,0.26,0.54,0.23c0.37-0.06,0.49,0.16,0.62,0.41c0.04,0.05,0.11,0.07,0.22,0.14
	c0,1.26,0.02,2.59,0,3.93c-0.02,1.31-0.09,2.63-0.14,3.93c0.02,0,0.05,0,0.07,0c0.13-2.49,0.26-4.98,0.39-7.48c0.05,0,0.09,0,0.14,0
	c-0.27,3.97-0.54,7.94-0.81,11.93c0.71,0.11,1.4,0.35,2.01,0.86c0.41,0.34,0.61,0.7,0.61,1.17c0.01,0.86-0.06,1.73-0.06,2.6
	c0.01,0.44,0.04,0.91,0.15,1.34c0.07,0.29,0.05,0.53-0.08,0.77c-0.06,0.12-0.13,0.22-0.19,0.34c0.04-0.01,0.06-0.02,0.08-0.04
	c0.09,0.26,0.23,0.5,0.26,0.76c0.13,1.27,0.2,2.54,0.35,3.8c0.2,1.67,0.88,3.07,2.35,4c0.71,0.44,1.35,0.97,2.04,1.44
	c0.35,0.23,0.47,0.58,0.46,0.96c-0.01,0.23-0.23,0.46-0.23,0.69c0.02,1.23,0.07,2.45,0.11,3.68c0.01,0.33,0,0.67,0,0.99
	c0,0.04-0.02,0.07-0.05,0.09c-0.34,0.44-0.68,0.89-1,1.34c-0.11,0.15-0.14,0.35-0.21,0.54c-0.04,0.11-0.04,0.28-0.11,0.32
	c-0.11,0.05-0.26,0.01-0.44,0.01c-0.19,0.33-0.33,0.79-0.64,1.1c-0.33,0.32-0.42,0.65-0.47,1.04c-0.02,0.25-0.06,0.49-0.06,0.74
	c0,0.23-0.05,0.42-0.23,0.6c-0.12,0.09-0.2,0.3-0.21,0.46c-0.01,0.99,0,1.98,0,2.98c0.05,0.01,0.09,0.02,0.14,0.04
	C121.35,106.16,123.63,100.41,124.86,94.24z M120.67,97.08c0.14-0.43,0.01-0.88-0.36-1.13c-1.14-0.79-2.36-1.48-3.42-2.4
	c-0.16-0.14-0.33-0.28-0.49-0.43c-0.49-0.43-0.96-0.9-1.26-1.51c-0.41-0.85-0.99-1.6-1.24-2.54c-0.15-0.56-0.69-0.79-1.3-0.67
	c0,0.12-0.01,0.25-0.02,0.44c-0.21-0.16-0.37-0.27-0.5-0.41c-0.4-0.37-0.86-0.47-1.38-0.37c-0.81,0.15-1.62,0.32-2.44,0.5
	c-0.61,0.13-1.21,0.34-1.83,0.46c-0.68,0.13-0.97,0.53-1.13,1.16c-0.16,0.69-0.4,1.35-0.63,2.01c-0.11,0.3-0.02,0.43,0.27,0.46
	c0.09,0.01,0.19,0.01,0.28,0.01c1.89,0.05,3.77,0.09,5.65,0.13c0.95,0.02,1.9,0.05,2.75,0.47c0.71,0.35,1.42,0.72,2.12,1.1
	c0.55,0.29,1.09,0.58,1.63,0.88c0.12,0.07,0.2,0.19,0.3,0.28c-0.15,0.04-0.27,0.01-0.37-0.04c-0.62-0.3-1.24-0.6-1.86-0.91
	c-0.61-0.3-1.19-0.64-1.81-0.92c-0.61-0.29-1.24-0.51-1.95-0.49c-0.83,0.04-1.67-0.02-2.5-0.02c-1.53,0.01-3.06,0.02-4.6,0.06
	c-0.44,0.01-0.83,0.16-1.06,0.61c-0.23,0.46-0.56,0.86-0.78,1.33c-0.23,0.5-0.5,1.04-0.54,1.58c-0.06,0.83,0,1.38,0.95,1.6
	c0.36,0.09,0.7,0.28,1.04,0.44c1.67,0.79,3.35,1.6,5.03,2.42c0.19,0.09,0.35,0.23,0.53,0.35c-0.02,0.05-0.05,0.09-0.07,0.15
	c-0.27-0.09-0.54-0.16-0.79-0.28c-1.46-0.67-2.91-1.35-4.35-2.03c-0.57-0.27-1.14-0.49-1.79-0.47c-0.11,0.01-0.29,0.04-0.32,0.09
	c-0.09,0.28-0.28,0.62-0.19,0.86c0.11,0.34-0.06,0.48-0.18,0.71c-0.2,0.4-0.39,0.81-0.47,1.24c-0.04,0.16,0.22,0.39,0.35,0.57
	c0.21,0.3,0.4,0.62,0.64,0.88c0.46,0.47,0.97,0.89,1.44,1.34c0.5,0.49,0.97,1,1.46,1.52c-0.05,0.05-0.12,0.09-0.21,0.16
	c0.29,0.37,0.57,0.72,0.84,1.07c-0.02,0.02-0.06,0.06-0.09,0.08c-0.44-0.47-0.89-0.95-1.33-1.41c-0.18-0.19-0.35-0.37-0.54-0.55
	c-0.26-0.22-0.54-0.42-0.78-0.65c-0.37-0.36-0.72-0.75-1.09-1.12c-0.04,0.01-0.07,0.04-0.11,0.05c-0.02,0.16-0.04,0.33-0.06,0.48
	c-0.13,0.74-0.27,1.46-0.37,2.18c-0.05,0.34-0.08,0.7-0.04,1.03c0.05,0.32,0.14,0.67,0.34,0.9c0.36,0.43,0.82,0.79,1.23,1.17
	c0.15,0.13,0.33,0.23,0.46,0.37c0.75,0.86,1.48,1.75,2.24,2.6c0.13,0.14,0.39,0.25,0.58,0.25c2.08-0.04,4.14-0.08,6.22-0.15
	c0.48-0.02,0.97-0.14,1.44-0.27c0.15-0.04,0.34-0.23,0.39-0.4c0.26-0.98,0.68-1.83,1.48-2.49c0.34-0.28,0.63-0.63,0.99-0.89
	c0.2-0.13,0.28-0.25,0.3-0.48c0.12-0.96,0.35-1.88,0.84-2.73c0.22-0.41,0.58-0.79,0.48-1.34c0-0.01,0.04-0.02,0.07-0.06
	c0.26,0.22,0.4,0.05,0.56-0.16c0.32-0.39,0.62-0.77,0.96-1.12c0.36-0.36,0.49-0.74,0.28-1.23c-0.08-0.19-0.09-0.42-0.12-0.62
	c-0.02-0.43-0.01-0.88-0.08-1.3C120.27,98.63,120.41,97.85,120.67,97.08z M117.69,109.24c0.07-0.22,0.14-0.44,0.2-0.67
	c-0.05-0.02-0.09-0.04-0.14-0.05c-0.07,0.22-0.14,0.44-0.21,0.67C117.59,109.22,117.65,109.23,117.69,109.24z M116.83,113.48
	c0.13-0.2,0.2-0.48,0.19-0.71c-0.05-0.79-0.13-1.59-0.21-2.38c0-0.06-0.04-0.13-0.06-0.25c-0.12,0.14-0.21,0.22-0.28,0.33
	c-0.33,0.5-0.69,0.98-0.96,1.51c-0.23,0.43-0.42,0.82-0.96,0.95c-0.5,0.12-0.98,0.36-1.49,0.46c-0.68,0.13-1.37,0.22-2.05,0.23
	c-1.51,0.02-3.02,0-4.53,0c-0.12,0-0.23-0.02-0.35-0.05c-0.61-0.14-1.21-0.29-1.86-0.44c-0.35,1.09-0.51,2.25-1.3,3.14
	c0.12-0.32,0.28-0.62,0.4-0.93c0.13-0.32,0.2-0.64,0.29-0.97c-0.6,0.29-0.4,1-0.88,1.44c0.16-0.69,0.28-1.3,0.43-1.89
	c0.11-0.41,0.27-0.81,0.36-1.21c0.04-0.19,0.02-0.43-0.07-0.61c-0.16-0.35-0.41-0.67-0.62-1c-0.09-0.15-0.21-0.3-0.29-0.48
	c-0.22-0.5-0.42-1.03-0.67-1.53c-0.05-0.11-0.25-0.2-0.37-0.21c-0.35,0-0.7,0.06-1.05,0.07c-5.23,0.27-10.46,0.55-15.68,0.78
	c-3.63,0.15-7.26,0.23-10.88,0.36c-0.2,0.01-0.42,0.09-0.57,0.2c-0.54,0.39-1.04,0.81-1.56,1.2c-0.14,0.11-0.32,0.14-0.56,0.25
	c0-0.58,0-1.09,0-1.72c-0.3,0.11-0.54,0.16-0.74,0.28c-0.2,0.11-0.37,0.28-0.55,0.44c-0.84,0.85-1.69,1.72-2.53,2.58
	c-0.27,0.28-0.51,0.6-0.79,0.89c-0.33,0.33-0.58,0.26-0.75-0.18c-0.05-0.09-0.09-0.19-0.16-0.27c-0.97-1.25-2.03-2.38-3.26-3.38
	c-0.14-0.12-0.36-0.21-0.56-0.22c-4.15-0.15-8.31-0.29-12.45-0.44c-0.12,0-0.23,0-0.39,0c0.25,1.69,0.25,3.33-0.11,4.95
	c-0.04-0.26,0-0.51,0.01-0.76c0.02-0.39,0.06-0.77,0.02-1.16c-0.02-0.35-0.15-0.7-0.19-1.05c-0.07-0.56-0.09-1.12-0.16-1.68
	c-0.02-0.13-0.16-0.23-0.25-0.35c-0.04,0.13-0.08,0.25-0.08,0.37c-0.02,1.38-0.01,2.75-0.44,4.11c-0.14,0.47-0.35,0.88-0.61,1.25
	c-0.41,0.63-0.95,1.16-1.48,1.68c-1.04,1-2.3,1.58-3.7,1.93c-1.31,0.33-2.64,0.54-3.96,0.2c-1.1-0.29-2.16-0.77-3.2-1.23
	c-0.35-0.15-0.65-0.47-0.89-0.78c-0.82-1.05-1.35-2.26-1.86-3.49c-0.58-1.44-0.96-2.92-0.93-4.47c0.01-1.13-0.02-2.28,0.43-3.36
	c0.13-0.28,0.11-0.63,0.15-1c-0.28,0.06-0.53,0.15-0.76,0.14c-0.33-0.01-0.43,0.16-0.48,0.43c-0.26,1.21-0.51,2.43-0.76,3.64
	c-0.42,2.1-0.18,4.17,0.4,6.21c0.25,0.86,0.61,1.67,1.09,2.43c0.09,0.15,0.13,0.33,0.19,0.49c-0.04,0.02-0.07,0.04-0.12,0.05
	c-0.71-0.54-1.12-1.3-1.48-2.1c0,0.32,0,0.63,0,0.95c-0.04,0-0.07,0.01-0.11,0.01c-0.05-0.21-0.14-0.42-0.15-0.64
	c-0.08-0.89-0.13-1.77-0.2-2.66c-0.01-0.15-0.08-0.33-0.2-0.41c-0.06-0.05-0.27,0.05-0.39,0.13c-0.49,0.33-0.57,0.91-0.79,1.41
	c-0.04,0.07,0.05,0.22,0.11,0.32c0.97,1.21,1.9,2.45,2.91,3.63c2.18,2.56,4.61,4.83,7.21,6.93c0.39,0.3,0.75,0.54,1.27,0.39
	c0.22-0.06,0.46-0.04,0.69-0.06c0.96-0.11,1.91-0.25,2.75-0.76c0.95-0.57,1.88-1.14,2.79-1.75c0.28-0.19,0.5-0.49,0.69-0.78
	c0.64-1,0.81-2.16,1.02-3.3c0.08-0.41,0.13-0.83,0.19-1.25c-0.02-0.01-0.06-0.02-0.08-0.04c-0.68,0.76-1.33,1.54-2.3,1.96
	c1.44-1.34,2.75-2.79,3.58-4.61c-0.01,0.33-0.06,0.63-0.18,0.91c-0.12,0.3-0.33,0.58-0.43,0.89c-0.09,0.27-0.2,0.58-0.14,0.84
	c0.15,0.61,0.13,1.19-0.05,1.76c-0.25,0.82-0.3,1.69-0.79,2.43c-0.42,0.62-0.82,1.26-1.32,1.81c-0.48,0.54-0.58,1.2-0.72,1.81
	c-0.15,0.69-0.05,1.42-0.04,2.14c0,0.15-0.06,0.32-0.2,0.2c-0.23-0.2-0.56-0.35-0.51-0.77c0.07-0.65,0.09-1.31,0.13-1.96
	c0.01-0.12,0-0.25,0-0.46c-1.44,0.93-3,1.42-4.59,1.87c0.05,0.06,0.06,0.09,0.08,0.12c0.57,0.4,1.12,0.81,1.69,1.19
	c8.5,5.64,17.83,8.67,28.03,9.07c4.75,0.19,9.45-0.23,14.07-1.31c8.89-2.05,16.77-6.09,23.63-12.11
	C111.14,120.91,114.22,117.4,116.83,113.48z M116.76,92.87c0.04-0.01,0.07-0.04,0.11-0.06c-0.74-2.1-1.23-4.22-0.92-6.48
	c-0.13,0-0.25,0-0.29,0c-0.08-0.16-0.09-0.32-0.19-0.4c-0.19-0.16-0.13-0.28,0.04-0.39c0.09-0.07,0.22-0.12,0.35-0.19
	c-0.15-0.91-0.36-1.8-0.25-2.71c0.05-0.42,0.04-0.84,0.02-1.26c0-0.64-0.22-1.13-0.77-1.53c-0.41-0.29-0.85-0.25-1.28-0.36
	c-0.06,0-0.2,0.15-0.21,0.23c-0.15,1.27-0.27,2.54-0.4,3.78c0,0-0.02-0.05-0.06-0.14c-0.07,0.48-0.14,0.9-0.2,1.33
	c0.21,0.09,0.42,0.19,0.62,0.27c0,0.02-0.01,0.04-0.01,0.06c-0.14-0.01-0.28-0.02-0.43-0.02c-0.02,0.11-0.05,0.21-0.07,0.3
	c-0.07,0.29-0.02,0.47,0.33,0.51c0.28,0.04,0.56,0.14,0.84,0.25c0.11,0.04,0.2,0.13,0.29,0.2c-0.32-0.01-0.6-0.11-0.86-0.19
	c-0.28-0.08-0.55-0.15-0.86-0.23c-0.04,0.34-0.07,0.67-0.11,0.97c0.18-0.02,0.28-0.04,0.4-0.05c0.06,0.54,0.48,0.28,0.74,0.29
	c0.25,0,0.48-0.12,0.72-0.18c0.01,0.02,0.02,0.06,0.04,0.08c-0.16,0.09-0.33,0.23-0.5,0.26c-0.3,0.04-0.62,0.01-0.93,0.01
	c-0.07,0.01-0.13,0.05-0.2,0.08c0.02,0.06,0.05,0.15,0.09,0.19c0.5,0.41,1.49,0.41,2,0.02c0.08-0.06,0.16-0.11,0.25-0.16
	c0.04,0.04,0.07,0.06,0.11,0.08c-0.08,0.13-0.14,0.29-0.25,0.39c-0.21,0.18-0.44,0.34-0.69,0.48c-0.16,0.09-0.16,0.19-0.09,0.34
	c0.19,0.41,0.34,0.83,0.56,1.23c0.42,0.75,0.85,1.51,1.33,2.23C116.19,92.4,116.5,92.62,116.76,92.87z M113.46,73.52
	c0.08-1.4,0.16-2.81,0.23-4.21c-0.04,0-0.08,0-0.12-0.01c-0.07,1.41-0.13,2.81-0.2,4.22C113.41,73.52,113.43,73.52,113.46,73.52z
	 M113.59,13.45c0.12-0.37-0.28-0.85-0.68-0.82c-0.32,0.01-0.63,0.07-0.95,0.04c-1.06-0.09-2.14-0.2-3.2-0.36
	c-1.32-0.2-2.64-0.42-3.89-0.91c-0.61-0.23-1.23-0.48-1.84-0.54c-1-0.11-2.02-0.12-3.02-0.07c-1.67,0.08-3.34,0.2-5.01,0.35
	c-1.59,0.15-3.17,0.34-4.71,0.83c-1.06,0.34-2.05,0.77-2.95,1.44c-2.1,1.55-3.87,3.42-5.36,5.57c-0.92,1.33-1.79,2.72-2.71,4.06
	c-0.46,0.67-0.98,1.28-1.46,1.94c-1.07,1.47-2.1,2.98-3.2,4.43c-1.26,1.69-2.57,3.34-3.85,5.01c-0.13,0.16-0.25,0.35-0.4,0.56
	c0.55-0.08,1.03-0.14,1.51-0.21c0.84-0.13,1.68-0.3,2.53-0.4c1.82-0.19,3.63-0.44,5.45-0.47c1.52-0.02,3.03,0.2,4.54,0.4
	c2.45,0.33,4.75,1.1,6.82,2.46c2.79,1.83,5.02,4.22,6.79,7.05c0.21,0.35,0.44,0.7,0.7,1.1c0.06-0.14,0.09-0.2,0.11-0.27
	c0.14-0.88,0.28-1.76,0.08-2.65c-0.2-0.89-0.32-1.86-0.76-2.6c-0.82-1.38-1.81-2.65-2.8-3.91c-1.18-1.46-2.6-2.68-4.12-3.79
	c-1.14-0.83-2.3-1.63-3.64-2.1c-1.2-0.42-2.43-0.78-3.64-1.17c-0.16-0.06-0.33-0.12-0.49-0.19c0.01-0.02,0.04-0.05,0.05-0.08
	c5.34,0.99,9.72,3.57,13.04,7.95c0.04-0.11,0.04-0.16,0.01-0.21c-0.56-1.27-0.79-2.63-0.99-3.98c-0.16-1.14-0.48-2.23-0.97-3.28
	c-0.04-0.06-0.04-0.13-0.05-0.2c0.48,0.61,0.82,1.26,0.99,2c0.23,1.04,0.47,2.08,0.68,3.13c0.28,1.44,1.06,2.66,1.7,3.94
	c0.08,0.19,0.21,0.35,0.33,0.55c0.05-0.08,0.07-0.12,0.07-0.14c0.01-0.11,0.01-0.21,0-0.32c-0.12-1.68,0.11-3.33,0.47-4.95
	c0.53-2.33,1.12-4.64,1.73-6.94c0.23-0.92,0.61-1.8,0.9-2.7c0.04-0.08,0.02-0.2-0.01-0.28c-0.16-0.36-0.36-0.71-0.51-1.09
	c-0.35-0.83-0.86-1.52-1.58-2.07c-0.36-0.28-0.72-0.58-1.18-0.95c0.58-0.01,1.06,0.04,1.39,0.42c0.63,0.75,1.23,1.52,1.83,2.3
	c0.13,0.16,0.21,0.32,0.47,0.15c1.98-1.32,3.99-2.61,5.98-3.92c0.07-0.05,0.14-0.11,0.18-0.18c0.3-0.72,0.9-1.21,1.4-1.79
	c0.2-0.22,0.48-0.37,0.71-0.56c0.04,0.04,0.06,0.07,0.09,0.11c-0.3,0.32-0.61,0.64-0.91,0.96c0.02,0.04,0.06,0.07,0.09,0.11
	c0.33-0.15,0.65-0.3,0.97-0.46c0.77-0.35,1.55-0.68,2.28-1.09C113.05,14.41,113.42,14,113.59,13.45z M113.07,71.45
	c0.05-1.18,0.15-2.37-0.18-3.52c-0.14-0.49-0.5-0.88-0.95-1.07c-0.67-0.27-1.37-0.4-2.07-0.56c-2.16-0.49-4.27-1.14-6.4-1.74
	c-0.14-0.05-0.29-0.07-0.48-0.11c0.06,0.13,0.08,0.2,0.12,0.27c0.64,1.17,1.3,2.33,1.94,3.5c1.18,2.21,2.36,4.41,3.52,6.63
	c0.21,0.41,0.37,0.84,0.58,1.32c1.12,0.25,2.36,0.51,3.62,0.79c0.02-0.19,0.04-0.33,0.05-0.46
	C112.92,74.81,113.01,73.13,113.07,71.45z M112.8,77.82c0.01-0.21-0.06-0.41-0.09-0.62c-0.42,0-0.81,0.05-1.18-0.01
	c-0.82-0.13-1.63-0.3-2.45-0.46c-0.18-0.04-0.39-0.12-0.51,0.14c0.11-0.05,0.19-0.08,0.26-0.12c0.04,0.02,0.06,0.05,0.08,0.07
	c-0.08,0.14-0.14,0.3-0.25,0.43c-1.18,1.41-2.12,3-3.65,4.12c-0.61,0.44-1.02,1.16-1.51,1.74c0.01,0.05,0.02,0.08,0.05,0.13
	c0.37-0.05,0.76-0.12,1.14-0.12c0.5,0,1,0.06,1.51,0.07c1.13,0.02,2.26,0.01,3.4,0.05c0.77,0.02,1.53,0.09,2.29,0.16
	c0.06,0,0.09,0.06,0.19,0.13c-0.2,0.04-0.34,0.05-0.48,0.07c0,0.02,0,0.04,0,0.06c0.21,0.06,0.42,0.11,0.7,0.18
	c0.06-0.46,0.13-0.89,0.16-1.33c0.07-0.81,0.11-1.62,0.18-2.43C112.68,79.33,112.76,78.57,112.8,77.82z M111.54,87.37
	c0.32-0.12,0.53-1.02,0.5-1.93c-0.14-0.07-0.28-0.13-0.41-0.2c-0.81-0.41-1.61-0.79-2.54-0.84c-0.68-0.04-1.34-0.15-2.02-0.21
	c-3.79-0.33-7.59-0.67-11.38-0.99c-0.56-0.05-1.13-0.07-1.69-0.11c0-0.02,0-0.06,0-0.08c0.36,0,0.71,0,1.06,0
	c-0.07-0.05-0.14-0.06-0.2-0.06c-2.17-0.2-4.35-0.34-6.51-0.61c-2.6-0.32-5.24-0.43-7.84-0.86c-2.15-0.35-4.34-0.51-6.51-0.74
	c-1.49-0.15-3-0.27-4.5-0.41c-1.56-0.14-3.12-0.27-4.68-0.43c-0.76-0.08-1.51-0.21-2.25-0.35c-0.33-0.07-0.63-0.28-0.96-0.33
	c-0.93-0.11-1.89-0.15-2.82-0.25c-0.85-0.09-1.68-0.22-2.52-0.34c0.3-0.04,0.61-0.01,0.91,0.01c0.32,0.04,0.63,0.05,0.95,0.07
	c0-0.02,0.01-0.05,0.01-0.07c-0.81-0.07-1.6-0.16-2.4-0.22c-1.9-0.14-3.8-0.27-5.71-0.41c-0.95-0.07-1.89-0.2-2.84-0.04
	c-0.46,0.08-0.49,0.13-0.43,0.56c0.86,0.12,1.73,0.23,2.56,0.34c-0.68,0.06-1.35,0.12-2.04,0.18c-0.16,0.01-0.34-0.02-0.5-0.04
	c-0.04,0.04-0.06,0.07-0.08,0.11c0.09,0.12,0.18,0.28,0.3,0.36c1.17,0.75,2.36,1.47,3.54,2.22c0.23,0.15,0.6,0.28,0.4,0.7
	c-0.01,0.02,0.05,0.07,0.05,0.12c0.15,0.65,0.33,1.31,0.42,1.97c0.06,0.34-0.02,0.71-0.04,1.06c0,0.11,0.01,0.22,0.08,0.29
	c0.44,0.49,0.71,1.02,0.72,1.72c0.01,0.56,0.15,1.13,0.27,1.69c0.16,0.83-0.13,1.54-0.44,2.26c-0.04,0.07-0.11,0.13-0.18,0.18
	c-0.4,0.32-0.42,0.4-0.23,0.86c0.06,0.15,0.14,0.3,0.19,0.46c0.02,0.09,0.02,0.21,0.01,0.3c-0.04,0.3-0.15,0.63-0.09,0.92
	c0.2,1.04-0.3,1.77-0.98,2.46c-0.08,0.07-0.16,0.2-0.16,0.3c-0.07,1.2-0.13,2.4-0.2,3.61c-0.01,0.25,0.05,0.54-0.35,0.55
	c-0.06,0-0.12,0.14-0.18,0.21c-0.13,0.21-0.23,0.46-0.41,0.62c-0.46,0.42-0.6,0.92-0.6,1.54c-0.01,1.59-0.11,3.16-0.16,4.74
	c-0.01,0.2,0,0.36,0.27,0.4c1.06,0.13,2.11,0.29,3.17,0.41c0.61,0.06,1.21,0.07,1.83,0.09c0-0.02,0-0.05,0-0.08
	c-0.54-0.05-1.06-0.08-1.6-0.13c0-0.05,0-0.08,0-0.12c0.28,0,0.56-0.02,0.83,0c0.9,0.08,1.8,0.2,2.7,0.25
	c2.42,0.14,4.84,0.3,7.26,0.39c2.32,0.07,4.63,0.07,6.96,0.08c0.36,0.01,0.74-0.08,1.11-0.09c0.3-0.01,0.63,0.05,0.93,0.04
	c2.05-0.06,4.1-0.12,6.15-0.21c3.51-0.14,7.04-0.3,10.56-0.47c0.02,0,0.05,0,0.12,0.01c-0.11,0.02-0.18,0.04-0.23,0.05
	c4.15,0.07,8.27-0.36,12.49-0.79c-0.37-0.48-0.25-0.96-0.15-1.42c0.15-0.82,0.33-1.62,0.47-2.44c0.11-0.61,0.19-1.21-0.27-1.76
	c-0.3-0.37-0.28-0.86-0.16-1.31c0.11-0.41,0.29-0.79,0.4-1.2c0.13-0.42,0.29-0.85,0.28-1.28c0-0.58-0.15-1.17-0.23-1.76
	c-0.01-0.06-0.02-0.12,0-0.18c0.14-0.5,0.26-1.02,0.44-1.51c0.22-0.55,0.51-1.07,0.76-1.61c0.18-0.37,0.43-0.64,0.83-0.78
	c0.11-0.05,0.21-0.16,0.25-0.27c0.32-0.89,0.62-1.76,0.91-2.66c0.23-0.72,0.67-1.25,1.4-1.51c1.72-0.61,3.49-0.92,5.25-1.28
	c0.11-0.02,0.22-0.01,0.39-0.02C111.65,87.22,111.6,87.28,111.54,87.37z M108.39,76.35c0.01-0.06,0.02-0.12,0.04-0.18
	c-1.28-0.23-2.56-0.47-3.84-0.7c-0.01,0.04-0.01,0.06-0.01,0.09C105.85,75.83,107.12,76.09,108.39,76.35z M108.32,75.98
	c-0.02-0.08-0.04-0.15-0.06-0.23c-0.29-0.93-0.98-1.7-1.16-2.68c-1.28-2.39-2.56-4.8-3.85-7.18c-0.26-0.47-0.58-0.88-0.82-1.34
	c-0.13-0.27-0.29-0.33-0.54-0.37c-1.91-0.4-3.83-0.79-5.74-1.18c-0.79-0.16-1.6-0.29-2.4-0.43c-0.02,0.02-0.05,0.05-0.07,0.07
	c2.56,3.59,4.53,7.53,6.57,11.4c0.15-0.12,0.27-0.21,0.37-0.3c0.02,0.04,0.06,0.06,0.08,0.08c-0.15,0.27-0.32,0.54-0.48,0.83
	C102.9,75.08,105.59,75.54,108.32,75.98z M108.29,76.58c-0.18-0.05-0.28-0.07-0.4-0.09c-2.31-0.41-4.63-0.78-6.94-1.23
	c-0.62-0.12-0.99,0-1.4,0.47c-1.75,1.98-3.55,3.92-5.32,5.88c-0.19,0.22-0.35,0.46-0.58,0.76c0.44,0.06,0.78,0.11,1.12,0.14
	c2.63,0.22,5.26,0.44,7.9,0.67c0.23,0.02,0.39-0.06,0.53-0.26c0.2-0.32,0.44-0.6,0.68-0.89c1.11-1.32,2.22-2.63,3.31-3.96
	C107.56,77.6,107.9,77.1,108.29,76.58z M99.64,74.56c0.27,0.05,0.44-0.08,0.36-0.25c-0.08-0.15-0.21-0.28-0.33-0.41
	c-0.18-0.2-0.42-0.36-0.56-0.6c-0.69-1.14-1.35-2.3-2.02-3.45c-1.27-2.24-2.54-4.48-3.82-6.71c-0.23-0.41-0.46-0.82-1.05-0.67
	c-0.04,0.01-0.08-0.04-0.13-0.05c-0.61-0.14-1.21-0.33-1.84-0.43c-1.55-0.25-3.12-0.47-4.68-0.69c-0.71-0.11-1.44-0.19-2.19-0.28
	c0.05,0.11,0.06,0.16,0.08,0.21c0.4,0.72,0.79,1.44,1.18,2.16c1.77,3.21,3.54,6.42,5.31,9.63c0.06,0.12,0.26,0.21,0.41,0.22
	c2.25,0.32,4.5,0.62,6.75,0.92C97.96,74.29,98.8,74.43,99.64,74.56z M98.25,76.48c0.41-0.47,0.81-0.92,1.2-1.39
	c-0.02-0.02-0.05-0.05-0.07-0.07c-0.4,0.47-0.79,0.93-1.2,1.4C98.2,76.44,98.23,76.46,98.25,76.48z M99.08,48.17
	c0.06-0.4,0.12-0.81,0.04-1.18c-0.14-0.62-0.28-1.25-0.68-1.79c-0.27-0.37-0.49-0.77-0.72-1.17c-0.98-1.62-2.14-3.1-3.51-4.4
	c-1.28-1.2-2.65-2.31-4.19-3.17c-0.62-0.34-1.24-0.69-1.89-0.93c-2.08-0.78-4.26-1.11-6.45-1.27c-1.21-0.08-2.45-0.02-3.68,0.06
	c-1.63,0.12-3.27,0.27-4.88,0.53c-1.41,0.23-2.8,0.63-4.2,0.97c-0.16,0.04-0.35,0.14-0.43,0.27c-0.62,0.95-1.21,1.91-1.81,2.87
	c-0.02,0.04-0.01,0.08-0.02,0.19c1.81-0.9,3.64-1.56,5.58-1.95c-0.08,0.09-0.19,0.14-0.29,0.18c-2.14,0.72-4.2,1.61-6.16,2.72
	c-0.21,0.12-0.48,0.28-0.56,0.49c-0.4,0.93-1.04,1.7-1.63,2.49c-0.78,1.04-1.55,2.08-2.02,3.31c-0.21,0.54-0.35,1.09-0.28,1.68
	c0.04,0.23,0.14,0.35,0.39,0.43c0.68,0.23,1.34,0.19,2-0.05c1.73-0.63,3.45-1.27,5.23-1.93c-0.22-0.09-0.44-0.16-0.64-0.27
	c-0.07-0.05-0.09-0.16-0.15-0.25c0.09-0.04,0.19-0.11,0.27-0.09c0.23,0,0.47,0.02,0.7,0.06c0.84,0.15,1.54-0.34,2.43-0.46
	c-0.29-0.23-0.49-0.4-0.7-0.58c0.78-0.32,1.48-0.67,2.23-0.88c0.75-0.22,1.53-0.29,2.3-0.43c0.13-0.02,0.25-0.05,0.46-0.08
	c-0.18-0.14-0.29-0.21-0.37-0.32c-0.09-0.11-0.15-0.23-0.23-0.36c0.14-0.07,0.27-0.21,0.41-0.22c1.47-0.05,2.94-0.19,4.39,0.26
	c0.98,0.29,1.7,0.81,2.04,1.79c0.22,0.65,0.46,1.31,0.65,1.97c0.08,0.27,0.22,0.4,0.49,0.46c2.53,0.51,4.88,1.47,7.1,2.78
	c1.07,0.64,2.15,1.27,3.01,2.22c0.4,0.46,0.4,0.42,0.97,0.26c0.84-0.25,1.34-0.15,1.84,0.55c0.56,0.78,1.2,1.52,1.8,2.28
	c0.06,0.07,0.11,0.18,0.08,0.25c-0.02,0.05-0.15,0.09-0.23,0.09c-0.41,0-0.42,0.01-0.29,0.41c0.02,0.08,0.02,0.18,0.07,0.23
	c0.06,0.07,0.16,0.14,0.23,0.13c0.47-0.07,0.78-0.4,0.81-0.88c0.05-0.81,0.09-1.61,0.08-2.42c-0.06-2.57-0.99-4.78-2.73-6.66
	c-0.47-0.49-0.98-0.93-1.47-1.4c-0.08-0.08-0.14-0.19-0.2-0.28c0.04-0.02,0.06-0.06,0.09-0.08c1.16,0.84,2.15,1.87,2.98,3.05
	c0.05-0.02,0.08-0.05,0.12-0.08c-0.34-0.6-0.69-1.2-1.03-1.81c0.05-0.02,0.09-0.04,0.14-0.06c1.42,1.67,1.83,3.76,2.37,5.81
	c0.06-0.11,0.11-0.22,0.08-0.33C98.71,50.15,98.94,49.16,99.08,48.17z M97.82,76.53c0.43-0.49,0.86-1,1.35-1.6
	c-3.2-0.46-6.28-0.91-9.38-1.33c-0.15-0.02-0.39,0.13-0.5,0.27c-1.75,2.05-3.48,4.12-5.2,6.17c-0.26,0.3-0.51,0.6-0.79,0.92
	c0.13,0.04,0.22,0.07,0.3,0.08c2.99,0.39,5.96,0.77,8.95,1.17c0.22,0.04,0.36-0.02,0.51-0.2C94.65,80.19,96.23,78.36,97.82,76.53z
	 M97.05,55.98c0.01-0.19-0.12-0.37-0.19-0.55c-0.04-0.19,0.33-0.28,0.09-0.58c-0.5-0.63-0.97-1.3-1.44-1.95
	c-0.15-0.21-0.29-0.27-0.54-0.2c-0.7,0.21-1.41,0.42-2.11,0.62c-0.21,0.07-0.41,0.13-0.68,0.21c0.25,0.29,0.44,0.5,0.63,0.72
	c0.76,0.88,1.52,1.75,2.25,2.64c0.25,0.28,0.21,0.36-0.14,0.44c0.21,0.76,0.42,1.52,0.63,2.29c0.25-0.28,0.49-0.58,0.74-0.88
	c0,0.42,0.23,0.48,0.55,0.5c0.02-0.16,0.07-0.32,0.07-0.47C96.97,57.85,97.03,56.91,97.05,55.98z M95.77,61.81
	c0-0.02,0-0.05,0.01-0.07c-0.6-0.12-1.18-0.22-1.77-0.33c0,0.04-0.01,0.08-0.01,0.12C94.58,61.63,95.17,61.72,95.77,61.81z
	 M94.67,60.17c0.34-0.26,0.46-0.56,0.41-0.95c-0.05-0.35-0.11-0.7-0.21-1.03c-0.32-0.92-0.53-1.89-1.42-2.51
	c-0.54-0.36-1-0.84-1.51-1.25c-0.2-0.16-0.42-0.16-0.61,0.02c-0.53,0.57-1.06,1.14-1.59,1.72c-0.14,0.15-0.26,0.3-0.39,0.46
	c-0.02-0.02-0.06-0.05-0.09-0.08c0.89-1.59,1.83-3.12,3.69-3.84c-0.37-0.61-0.9-0.99-1.44-1.35c-2.47-1.63-5.19-2.73-8.03-3.54
	c-0.14-0.04-0.29-0.02-0.44-0.04c-0.04,0.43,0.29,0.78,0.11,1.21c-0.12-0.06-0.2-0.11-0.29-0.15c-0.12,0.15-0.21,0.29-0.35,0.41
	c-0.12,0.09-0.28,0.21-0.4,0.2c-0.39-0.07-0.76-0.16-1.12-0.3c-0.84-0.34-1.67-0.74-2.53-1.03c-0.49-0.16-1.03-0.25-1.55-0.25
	c-0.13,0-0.25,0-0.37,0c-1.25,0.02-2.51,0.06-3.76,0.15c-1,0.06-1.94-0.07-2.77-0.68c-0.33-0.26-0.67-0.29-1.07-0.21
	c-0.5,0.08-0.88,0.34-1.2,0.67c-1.02,1.02-2.11,1.9-2.78,3.26c-0.76,1.58-1.42,3.17-1.87,4.87c-0.19,0.75-0.4,1.49-0.62,2.28
	c0.16,0.02,0.26,0.04,0.35,0.04c0.95,0,1.9,0.01,2.85,0.02c3.52,0.07,7.04,0.25,10.55,0.61c3.49,0.35,6.98,0.81,10.46,1.23
	c0.79,0.09,1.58,0.25,2.37,0.36c0.16,0.02,0.36,0.11,0.41-0.21c0.15-0.95,0.6-1.73,1.3-2.37c0.63-0.58,1.37-0.48,1.88,0.04
	c0.62,0.62,0.84,1.37,0.72,2.22c-0.05,0.33-0.13,0.65-0.2,0.98c0.32,0.16,0.53,0.14,0.74-0.15C94.11,60.66,94.38,60.39,94.67,60.17z
	 M92.79,60.89c0.27-0.79,0.34-1.58-0.09-2.33c-0.35-0.61-0.91-0.85-1.4-0.6c-0.41,0.21-0.78,0.47-1,0.91
	c-0.18,0.36-0.37,0.71-0.55,1.09c-0.25,0.55-0.2,0.65,0.39,0.65v0.13c-0.01,0.05-0.02,0.11-0.02,0.15c0.75,0.12,1.51,0.25,2.25,0.36
	c0.01-0.05,0.01-0.08,0.02-0.13c-0.23-0.04-0.48-0.08-0.71-0.13l0.01-0.09c0.29,0.06,0.57,0.11,0.85,0.14
	C92.61,61.05,92.77,60.96,92.79,60.89z M92.26,61.73c-0.56-0.14-1.11-0.27-1.66-0.41c-0.01,0.04-0.02,0.07-0.04,0.11
	C91.1,61.7,91.69,61.64,92.26,61.73z M89.86,61.33c0.01-0.05,0.02-0.09,0.04-0.13c-0.5-0.09-1-0.19-1.49-0.28
	c-0.01,0.02-0.01,0.06-0.02,0.08C88.88,61.11,89.37,61.23,89.86,61.33z M89.37,73.13c0.01-0.02,0.04-0.06,0.05-0.09
	c-0.14-0.16-0.3-0.3-0.41-0.49c-2.14-3.78-4.26-7.57-6.38-11.35c-0.11-0.2-0.25-0.28-0.47-0.3c-3.87-0.43-7.76-0.72-11.66-0.84
	c-2.95-0.09-5.91-0.13-8.87-0.2c0-0.02,0-0.04,0-0.06c4.21,0.08,8.44,0.18,12.65,0.26c-0.3-0.01-0.61-0.05-0.91-0.07
	c-3.58-0.3-7.17-0.56-10.77-0.58c-2.56-0.01-5.12,0.02-7.69,0.05c-0.16,0-0.34,0.05-0.6,0.08c0.72,0.58,1.47,0.96,1.93,1.67
	c-0.11-0.06-0.19-0.15-0.28-0.23c-0.11-0.08-0.21-0.15-0.32-0.23c1.67,2.59,2.46,5.38,2.18,8.48c0.06,0.01,0.15,0.04,0.23,0.04
	c1.02,0.08,2.04,0.13,3.05,0.23c3.62,0.37,7.22,0.75,10.83,1.18c1.37,0.16,2.71,0.51,4.07,0.7c3.61,0.5,7.22,0.97,10.83,1.45
	C87.68,72.92,88.53,73.03,89.37,73.13z M89,73.75c-0.14-0.06-0.16-0.08-0.2-0.09c-1.61-0.26-3.21-0.54-4.82-0.76
	c-3.5-0.5-7-0.98-10.5-1.46c-1.37-0.19-2.73-0.41-4.1-0.55c-1.67-0.18-3.34-0.28-5.01-0.42c-1.2-0.11-2.4-0.2-3.59-0.32
	c-1.19-0.12-2.38-0.06-3.56-0.3c-0.06,0-0.11-0.01-0.18-0.04c0.01-0.12-0.01-0.25,0.04-0.32c0.28-0.34,0.2-0.74,0.19-1.11
	c0-0.29-0.04-0.58-0.04-0.88c-0.01-1.67-0.42-3.23-1.17-4.73c-0.53-1.06-1.05-2.08-2.28-2.53c-0.77-0.28-1.52-0.47-2.33-0.26
	c-0.19,0.05-0.37,0.06-0.56,0.09c-0.01-0.01-0.01-0.04-0.01-0.05c0.25-0.08,0.49-0.16,0.75-0.25c-0.56-0.08-1.09-0.04-1.52,0.36
	c-0.54,0.47-1.04,0.97-1.56,1.46c-0.46,0.41-0.69,0.92-0.82,1.52c-0.13,0.62-0.16,1.25-0.46,1.84c-0.23,0.48-0.25,1.07-0.29,1.62
	c-0.06,0.61-0.05,1.24-0.04,1.84c0,0.33,0.11,0.64,0.11,0.97c0,0.19-0.14,0.37-0.16,0.56c-0.06,0.95-0.13,1.89-0.15,2.84
	c-0.04,1.16-0.04,2.32-0.06,3.48c-0.01,0.23,0.06,0.33,0.3,0.36c2.01,0.25,4.01,0.51,6.03,0.75c3.1,0.37,6.21,0.74,9.31,1.1
	c3.56,0.42,7.14,0.82,10.7,1.24c3.12,0.36,6.23,0.76,9.35,1.16c0.27,0.04,0.43-0.04,0.6-0.23c0.81-0.91,1.62-1.82,2.43-2.73
	c0.05-0.06,0.08-0.13,0.13-0.2c-0.01,0-0.04-0.01-0.05-0.02c-0.9,0.88-1.79,1.75-2.68,2.63c-0.02-0.02-0.05-0.05-0.07-0.07
	C84.81,78.1,86.88,75.95,89,73.75z M88.08,60.49c0-0.04,0-0.07,0-0.09c-1.33-0.2-2.67-0.39-4-0.58c0.01,0.04,0.02,0.07,0.04,0.11
	c-0.08,0.06-0.16,0.11-0.23,0.16C85.27,60.21,86.67,60.35,88.08,60.49z M85.66,81.55c0-0.02,0-0.04,0.01-0.05
	c-0.85-0.12-1.69-0.22-2.54-0.34c0,0.05-0.01,0.09-0.01,0.13C83.97,81.37,84.81,81.47,85.66,81.55z M82.3,48.7
	c0.26-0.2,0.26-0.48,0.2-0.75c-0.22-1.09-0.46-2.16-0.92-3.19c-0.39-0.85-1.03-1.39-1.9-1.56c-0.98-0.19-1.98-0.23-2.99-0.33
	c-0.32-0.02-0.64,0-0.96,0c-0.02,0.05-0.04,0.09-0.05,0.14c0.7,0.41,1.4,0.82,2.09,1.21c0,0.04-0.01,0.07-0.02,0.09
	c-2.07-0.28-4.1-0.12-6.06,0.58c-0.01,0.04-0.02,0.07-0.04,0.12c0.5,0.19,1,0.39,1.51,0.58c0,0.05-0.01,0.09-0.01,0.14
	c-1.07,0.5-2.33,0.19-3.47,0.68c0.63,0.28,1.21,0.55,1.81,0.79c0.21,0.09,0.46,0.14,0.69,0.13c1.05-0.04,2.1-0.09,3.15-0.16
	c0.29-0.02,0.58-0.08,0.91-0.13c-0.15-0.18-0.26-0.29-0.42-0.47c0.15,0,0.2-0.01,0.23,0c0.71,0.27,1.41,0.53,2.12,0.79
	c1.12,0.43,2.25,0.86,3.37,1.31C81.82,48.79,82.05,48.88,82.3,48.7z M81.83,60.76c0-0.04,0-0.06,0-0.08
	c-0.85-0.12-1.72-0.23-2.57-0.34c-0.01,0.05-0.01,0.11-0.02,0.16C80.1,60.59,80.97,60.67,81.83,60.76z M77.95,60.2
	c0.01-0.04,0.01-0.07,0.01-0.11c-1.42-0.15-2.85-0.3-4.26-0.46c-0.01,0.05-0.02,0.09-0.02,0.14C75.1,59.92,76.52,60.06,77.95,60.2z
	 M73.1,80.18c3.12,0.42,6.23,0.78,9.37,0.98C79.37,80.66,76.25,80.28,73.1,80.18z M73.87,29.44c-7.82-0.25-15.28,1.02-22.42,3.98
	c-11.48,4.77-20.39,12.56-26.54,23.36c-6.35,11.17-8.33,23.16-6.27,35.84c1,6.09,3.07,11.81,6.12,17.26
	c0.07-0.13,0.11-0.18,0.13-0.22c0.86-1.93,1.63-3.9,2.61-5.75c1.73-3.28,3.38-6.59,4.91-9.98c0.29-0.64,0.44-1.21,0.06-1.91
	c-0.23-0.42-0.65-0.96-0.25-1.53c0.02-0.02,0-0.07,0-0.11c0.01-0.15,0.01-0.32,0.06-0.46c0.35-1.2,0.72-2.39,1.06-3.59
	c0.05-0.19-0.11-0.44-0.06-0.64c0.09-0.36,0.27-0.68,0.68-0.82c0.92-0.33,1.86-0.65,2.75-1.04c0.48-0.21,0.95-0.47,1.35-0.79
	c0.82-0.68,1.3-1.59,1.67-2.57c0.41-1.1,0.79-2.22,1.21-3.33c0.09-0.23,0.29-0.43,0.41-0.61c0.04-0.36,0.02-0.71,0.11-1.04
	c0.07-0.29,0.29-0.54,0.37-0.82c0.27-1.02,0.49-2.03,0.76-3.03c0.13-0.49,0.39-0.89,0.93-0.99c0.12-0.01,0.22-0.08,0.34-0.11
	c0.36-0.08,0.47-0.29,0.49-0.67c0.11-2.17,0.05-4.35,0.6-6.48c0.16-0.64,0.51-1.12,0.86-1.62c0.16-0.22,0.4-0.4,0.62-0.55
	c0.23-0.16,0.53-0.27,0.76-0.43c1.11-0.81,2.17-1.68,3.56-1.97c0.16-0.04,0.42-0.14,0.49-0.07c0.22,0.25,0.43,0.14,0.67,0.09
	c0.25-0.04,0.49-0.06,0.74-0.07c0.46-0.04,0.92-0.06,1.38-0.09c0-0.04,0-0.06,0-0.09c-0.44,0.02-0.89,0.05-1.33,0.06
	c0-0.02,0-0.04,0-0.06c0.44-0.04,0.9-0.08,1.34-0.12c0.01-0.06,0.02-0.11,0.01-0.13c-0.22-1.68-0.48-3.36-0.65-5.04
	c-0.11-0.92-0.42-1.86,0.01-2.77c0.01-0.02,0.01-0.05,0.01-0.07c0.06-0.61,0.57-0.95,1.13-0.7c0.43,0.2,0.82,0.48,1.24,0.71
	c0.93,0.53,1.86,1.04,2.8,1.54c0.07,0.04,0.22,0.04,0.27-0.01c0.21-0.25,0.4-0.5,0.61-0.77c-0.16-0.06-0.28-0.09-0.39-0.15
	c-0.12-0.07-0.21-0.16-0.32-0.25c0.09-0.08,0.19-0.18,0.29-0.25c0.08-0.07,0.2-0.11,0.26-0.19c0.44-0.51,0.88-1.03,1.3-1.56
	c0.08-0.11,0.06-0.32,0.05-0.48c0-0.28-0.08-0.56-0.05-0.83c0.15-1.02,0.53-1.95,1.1-2.79c0.76-1.1,1.58-2.16,2.36-3.23
	c0.19-0.26,0.43-0.51,0.48-0.81c0.11-0.63,0.54-0.96,0.99-1.24c0.36-0.23,0.61-0.53,0.83-0.88c0.6-0.97,1.21-1.91,1.84-2.86
	c0.11-0.16,0.28-0.32,0.46-0.36c0.44-0.09,0.79-0.3,1.02-0.72c0.07-0.14,0.2-0.25,0.3-0.37c1.2-1.48,2.4-2.96,3.61-4.45
	C73.67,29.76,73.74,29.63,73.87,29.44z M72.59,110.13c-0.97-0.09-0.97-0.13-0.85,0.7C72.03,110.59,72.3,110.37,72.59,110.13z
	 M59.47,78.36c2.12,0.47,10.97,1.42,11.56,1.31C67.14,79.22,63.31,78.79,59.47,78.36z M70.51,80.25c0.01-0.04,0.01-0.07,0.01-0.12
	c-2.53-0.26-5.08-0.51-7.62-0.78c-0.01,0.06-0.01,0.11-0.01,0.16C65.44,79.76,67.97,80.01,70.51,80.25z M69.89,110.15
	c-0.01-0.04-0.02-0.07-0.04-0.09c-2.25,0.04-4.52,0.07-6.78,0.11c1.31,1.05,2.25,2.37,3.14,3.72
	C67.45,112.64,68.67,111.39,69.89,110.15z M82.66,59.67c-5.75-0.75-11.54-1.2-17.34-1.26C71.07,59.21,76.88,59.23,82.66,59.67z
	 M67.36,47.67c-0.01-0.05-0.04-0.09-0.06-0.13c-0.67,0.28-1.35,0.54-2.01,0.86c-1.28,0.67-2.6,0.92-3.96,0.56
	c-0.51,0.63-0.99,1.24-1.49,1.86c0.09,0.07,0.21,0.15,0.4,0.28c-0.4,0.43-0.77,0.84-1.17,1.28c0.39,0.32,0.76,0.63,1.16,0.92
	c0.39,0.27,0.69,0.55,0.49,1.09c-0.04,0.13,0,0.28-0.01,0.42c-0.04,0.88-0.14,1.75-0.54,2.56c-0.14,0.28-0.26,0.56-0.41,0.88
	c0.46,0,0.88,0.01,1.28,0c1,0,1.02,0,1.25-0.96c0.47-1.95,1.02-3.87,1.88-5.68c0.02-0.05,0.01-0.11,0.01-0.18
	c-0.46,0.29-0.89,0.57-1.34,0.86c-0.14-0.37,0.05-0.5,0.22-0.64c0.57-0.49,1.17-0.95,1.7-1.46c0.63-0.61,1.21-1.26,1.83-1.88
	C66.84,48.08,67.12,47.88,67.36,47.67z M62.42,58.77c1.56,0,3.13,0,4.35,0c-1.23-0.05-2.78-0.11-4.34-0.16
	C62.44,58.65,62.42,58.71,62.42,58.77z M61.85,58.73c0-0.02,0-0.04,0-0.05c-0.77,0-1.53,0-2.3,0c0,0.01,0,0.02,0.01,0.05
	C60.32,58.73,61.09,58.73,61.85,58.73z M61.77,58.91c0-0.01,0-0.02,0-0.05c-0.67,0-1.33,0-2.01,0c0,0.02,0,0.04,0,0.05
	C60.43,58.91,61.09,58.91,61.77,58.91z M60.2,56.55c0.44-0.85,0.3-1.72-0.01-2.53c-0.12-0.32-0.48-0.53-0.72-0.79
	c-0.47-0.5-0.99-0.9-1.62-1.2c-0.67-0.32-1.31-0.67-1.95-1.03c-0.42-0.25-0.78-0.56-1.2-0.79c-0.54-0.29-0.98-0.05-0.97,0.57
	c0.01,1.14,0.02,2.3,0.16,3.43c0.16,1.32,0.47,2.63,0.69,3.93c0.05,0.26,0.14,0.33,0.4,0.32c0.77-0.05,1.54-0.07,2.31-0.12
	c0.63-0.02,1.18-0.51,1.27-1.14c0.06-0.36,0.06-0.72,0.11-1.09c0.04-0.32-0.07-0.54-0.35-0.71c-0.07,0.35-0.65,0.5-0.93,0.26
	c0.01-0.04,0.02-0.07,0.05-0.09c0.09-0.08,0.21-0.15,0.3-0.23c0.25-0.18,0.39-0.64,0.22-0.83c-0.44-0.49-0.91-0.97-1.38-1.44
	c-0.22-0.21-0.49-0.39-0.72-0.58c0.36,0.07,0.74,0.15,1,0.36c0.92,0.74,1.68,1.63,2.17,2.72c0.27,0.57,0.37,1.18,0.11,1.8
	c-0.12,0.28-0.19,0.57-0.28,0.89c0.37,0.12,0.63,0.02,0.78-0.3C59.82,57.47,59.97,56.99,60.2,56.55z M57.52,69
	c0.21-0.89,0.11-1.76-0.12-2.68c0,0.93,0,1.81,0,2.7C57.44,69,57.49,69,57.52,69z M57.49,58.55c0-0.05,0-0.09,0-0.13
	c-0.92,0.05-1.86,0.09-2.78,0.13c0,0.05,0,0.08,0,0.13C55.64,58.63,56.57,58.58,57.49,58.55z M51.55,91.47
	c0.34-0.53,0.63-1.07,0.49-1.73c-0.19-0.84-0.4-1.66-0.57-2.5c-0.09-0.43-0.37-0.67-0.76-0.81c-0.53-0.19-1.05-0.4-1.59-0.54
	c-1.69-0.44-3.38-0.86-5.08-1.27c-0.44-0.11-0.91-0.29-1.33-0.23c-1.56,0.23-3.1,0.56-4.66,0.85c-0.21,0.04-0.41,0.07-0.62,0.09
	c-0.01-0.04-0.02-0.08-0.04-0.12c0.16-0.07,0.33-0.16,0.5-0.2c0.93-0.25,1.88-0.5,2.82-0.69c0.74-0.14,1.49-0.25,2.23-0.22
	c0.72,0.04,1.45,0.22,2.16,0.41c1.79,0.44,3.56,0.92,5.33,1.38c0.12,0.04,0.23,0.04,0.37,0.06c-0.02-0.34-0.05-0.63-0.07-0.92
	c-0.04-0.77-0.06-1.54-0.13-2.31c-0.01-0.19-0.15-0.41-0.3-0.51c-0.53-0.35-1.07-0.69-1.65-0.99c-0.79-0.42-1.62-0.78-2.42-1.21
	c-0.6-0.33-1.18-0.41-1.79-0.05c-0.13,0.07-0.28,0.11-0.51,0.19c0.13-0.32,0.22-0.5,0.3-0.7c-0.02-0.02-0.05-0.05-0.08-0.06
	c-0.07,0.08-0.14,0.16-0.21,0.25c-0.51-0.15-0.98-0.01-1.3,0.37c-0.44,0.55-0.86,1.12-1.35,1.63c-0.47,0.49-0.95,1-1.52,1.35
	c-0.67,0.42-1.42,0.71-2.16,1c-0.2,0.08-0.4,0.15-0.61,0.22c-0.71,0.26-1.45,0.5-2.17,0.76c-0.64,0.21-0.83,0.49-0.78,1.16
	c0,0.15,0,0.3,0,0.46c0.01,0.96-0.37,1.82-0.67,2.71c-0.13,0.37-0.3,0.74-0.5,1.07c-0.16,0.3-0.19,0.56-0.04,0.86
	c0.26,0.5,0.49,1.02,0.74,1.52c0.11,0.25,0.19,0.5,0.56,0.32c-0.04,0.28-0.12,0.5-0.07,0.69c0.35,1.26,0.54,2.52,0.27,3.82
	c-0.02,0.08-0.01,0.2,0.04,0.26c0.29,0.44,0.6,0.86,0.9,1.28c0.57,0.78,0.81,1.67,0.77,2.61c-0.01,0.36,0.13,0.6,0.41,0.75
	c0.4,0.2,0.82,0.4,1.25,0.53c2.12,0.64,4.26,1.26,6.4,1.91c0.44,0.13,0.86,0.14,1.24-0.11c0.67-0.44,1.33-0.88,1.95-1.38
	c0.61-0.49,1.18-1.03,1.72-1.6c0.46-0.48,0.85-1.02,0.91-1.74c0.06-0.85,0.13-1.69,0.21-2.54c0.02-0.21,0.07-0.41,0.11-0.62
	c-0.08-0.01-0.12-0.02-0.15-0.01c-0.08,0.02-0.18,0.05-0.26,0.09c-0.89,0.57-1.76,1.16-2.64,1.72c-0.57,0.36-1.14,0.71-1.72,1.06
	c-0.02-0.05-0.05-0.08-0.07-0.12c0.39-0.28,0.77-0.56,1.17-0.85c-0.09-0.09-0.15-0.14-0.25-0.22c0.19-0.12,0.35-0.21,0.5-0.3
	c1.32-0.86,2.85-1.35,4.06-2.42c0.34-0.3,0.43-0.57,0.4-0.93c-0.04-0.32-0.15-0.61-0.23-0.91c-0.02-0.13-0.11-0.32-0.06-0.36
	c0.3-0.34,0.16-0.74,0.2-1.11c0.05-0.56-0.06-0.64-0.62-0.54c-1.19,0.22-2.37,0.46-3.56,0.68c-1,0.19-2.02,0.37-3.03,0.55
	c-0.16,0.02-0.34,0-0.5,0c-0.01-0.06-0.01-0.12-0.02-0.18c0.34-0.09,0.68-0.2,1.03-0.27c2.21-0.39,4.42-0.77,6.63-1.16
	C51.29,91.62,51.48,91.57,51.55,91.47z M48.22,104.32c0-0.3,0-0.57,0-0.83c-0.27,0.29-0.53,0.57-0.81,0.88
	C47.7,104.35,47.94,104.34,48.22,104.32z M48.22,104.44c-0.63-0.01-1.1,0.11-1.21,0.29C47.74,104.77,48.14,104.68,48.22,104.44z
	 M48.21,105.17c0-0.15,0-0.27,0-0.43c-0.56,0.13-1.11,0.12-1.55,0.43C47.17,105.17,47.69,105.17,48.21,105.17z M48.16,107
	c0.02-0.22,0.16-0.49-0.14-0.49c-0.48-0.01-0.96,0.07-1.47,0.11c0.02,0.16,0.04,0.29,0.05,0.39C47.14,107,47.65,107,48.16,107z
	 M46.73,107.94c0.48,0.04,0.97,0.01,1.47,0.01c-0.01-0.14-0.01-0.26-0.02-0.37c-0.51-0.12-1.02,0.16-1.49-0.14
	c0.44-0.07,0.88-0.07,1.32-0.07c0.06-0.01,0.13-0.06,0.19-0.08c-0.06-0.05-0.13-0.13-0.19-0.13c-0.49,0.02-0.97,0.07-1.45,0.11
	C46.45,107.78,46.47,107.93,46.73,107.94z M48.19,106.36c0-0.19,0-0.33,0-0.53c-0.57,0.07-1.1,0.13-1.66,0.19
	c0.01,0.11,0.01,0.23,0.01,0.34C47.1,106.36,47.64,106.36,48.19,106.36z M48.16,108.53c0.06-0.34,0.06-0.35-0.22-0.35
	c-0.47,0-0.93,0-1.4,0c0,0.02-0.01,0.04-0.01,0.06C47.07,108.33,47.62,108.42,48.16,108.53z M47.98,105.72
	c0.08-0.01,0.16-0.16,0.25-0.25c-0.09-0.06-0.19-0.16-0.28-0.15c-0.46,0.01-0.92,0.06-1.4,0.11c0,0.11,0,0.22,0,0.41
	c0.16-0.05,0.28-0.12,0.41-0.13C47.29,105.7,47.64,105.73,47.98,105.72z M46.9,63.41c-0.02-0.02-0.05-0.05-0.06-0.06
	c-0.42,0.28-0.83,0.6-1.26,0.84c-0.23,0.13-0.33,0.27-0.28,0.62C45.86,64.32,46.38,63.87,46.9,63.41z M46.33,65.09
	c0.27-0.13,0.35-0.32,0.33-0.64c-0.39,0.28-0.72,0.53-1.06,0.77c0.29-0.54,1-0.69,1.14-1.35c-0.4,0.25-0.74,0.56-1.12,0.79
	c-0.44,0.26-0.43,0.62-0.41,1.1C45.62,65.51,45.96,65.28,46.33,65.09z M46.55,67.91c0.01-0.91,0.01-1.82,0.01-2.73
	c-0.39,0.22-0.75,0.46-1.13,0.64c-0.23,0.11-0.3,0.22-0.32,0.47c-0.02,0.76-0.07,1.52-0.12,2.28c-0.02,0.34-0.04,0.69-0.06,1.05
	c0.58-0.18,0.92-0.76,1.58-0.71c0-0.19,0-0.4,0-0.67c-0.36,0.22-0.71,0.42-1.05,0.62c0.28-0.26,0.58-0.47,0.89-0.69
	C46.44,68.09,46.55,67.99,46.55,67.91z M46.32,72.75c0.06-1.21,0.12-2.42,0.19-3.71c-0.23,0.08-0.4,0.12-0.53,0.19
	c-0.27,0.14-0.5,0.3-0.77,0.42c-0.22,0.11-0.27,0.25-0.28,0.47c-0.07,1.25-0.15,2.5-0.21,3.75c-0.07,1.41-0.12,2.81-0.18,4.27
	c0.27-0.19,0.46-0.32,0.65-0.43c0.2-0.12,0.41-0.26,0.63-0.3c0.36-0.06,0.37-0.26,0.37-0.56c-0.01-2.42-0.01-4.83-0.01-7.25
	c0.02,0,0.05,0,0.07,0c0,1.06,0,2.11,0,3.16C46.28,72.75,46.3,72.75,46.32,72.75z M46.61,110.06c0-0.4-0.06-0.72-0.43-0.93
	c-0.09-0.06-0.13-0.22-0.16-0.34c-0.06-0.18-0.09-0.37-0.15-0.63c-0.04,0.14-0.05,0.2-0.06,0.26c-0.01,0-0.04,0-0.05,0
	c0-0.89,0-1.77,0-2.59c-0.54-0.07-1.02-0.14-1.49-0.21c-0.06,0-0.12,0.01-0.18,0.01c-0.22,0-0.47,0.06-0.68,0.01
	c-1.25-0.32-2.51-0.58-3.73-0.98c-1.39-0.44-2.81-0.84-3.97-1.87c-0.29-0.27-0.37-0.54-0.48-0.85c-0.22-0.75-0.44-1.49-0.67-2.24
	c-0.05,0-0.08,0.01-0.13,0.01c-0.04,0.07-0.08,0.14-0.11,0.21c-0.57,1.54-1.19,3.06-1.7,4.61c-0.39,1.17-0.82,2.33-0.82,3.58
	c0.01,0.84,0.07,1.68,0.11,2.52c0.11,2.5,1.2,4.53,2.89,6.29c0.13,0.13,0.29,0.25,0.46,0.33c0.78,0.39,1.58,0.77,2.38,1.12
	c1.27,0.54,2.61,0.49,3.92,0.28c1.12-0.18,2.1-0.83,3.05-1.46c0.18-0.12,0.32-0.34,0.39-0.55c0.28-0.86,0.48-1.76,0.78-2.61
	C46.23,112.73,46.61,111.45,46.61,110.06z M45.72,63.07c1.06-0.61,2.05-1.3,2.64-2.42C47.36,61.32,46.28,61.92,45.72,63.07z
	 M44.22,73.09c0.05-0.72,0.07-1.45,0.11-2.21c-0.6,0.12-1.03,0.37-1.21,0.93c-0.11,0.35-0.21,0.69-0.29,1.05
	c-0.13,0.53-0.19,1.09-0.36,1.6c-0.18,0.51-0.48,0.99-0.72,1.47c0.13,0.12,0.27,0.2,0.33,0.32c0.04,0.08,0.01,0.23-0.05,0.33
	c-0.07,0.13-0.2,0.21-0.34,0.36c-0.04-0.01-0.14-0.04-0.28-0.08c-0.06,1.14-0.46,2.17-0.92,3.16s-1.04,1.94-1.58,2.91
	c0.43-0.18,0.88-0.36,1.2-0.69c0.88-0.89,1.7-1.82,2.54-2.74c0.02-0.02,0.04-0.07,0.05-0.11c-0.15-0.2-0.29-0.42-0.47-0.61
	c-0.18-0.19-0.42-0.34-0.22-0.7c0.08,0.09,0.15,0.15,0.2,0.22c0.27,0.43,0.67,0.58,1.16,0.6c0.32,0,0.44-0.07,0.47-0.4
	C43.95,76.69,44.09,74.9,44.22,73.09z M40.16,126.57c0-0.04-0.01-0.08-0.01-0.12c-0.26,0.02-0.51,0.04-0.77,0.05
	c0,0.06,0,0.11,0.01,0.15C39.64,126.63,39.9,126.59,40.16,126.57z M33.91,98.55c0-0.23,0-0.47,0-0.7c-0.04,0-0.07,0-0.11,0
	c0,0.23,0,0.47,0,0.7C33.84,98.55,33.88,98.55,33.91,98.55z M33.75,95.29c0-0.11-0.06-0.22-0.09-0.37
	c-0.08,0.07-0.13,0.08-0.16,0.12c-0.16,0.19-0.33,0.36-0.48,0.56c-1.07,1.49-1.98,3.09-2.79,4.74c-0.85,1.76-1.66,3.55-2.49,5.31
	c-0.51,1.07-1.03,2.15-1.53,3.23c-0.23,0.5-0.37,1.04-0.62,1.52c-0.19,0.36-0.21,0.62,0.02,0.96c0.51,0.77,0.99,1.56,1.49,2.36
	c0.04,0,0.07-0.01,0.11-0.01c-0.01-0.51,0.37-0.69,0.74-0.9c0.14-0.07,0.3-0.12,0.43-0.21c0.08-0.07,0.16-0.2,0.18-0.3
	c0.06-0.48,0.07-0.96,0.14-1.44c0.21-1.31,0.46-2.61,0.68-3.93c0.11-0.57,0.18-1.16,0.25-1.74c0.05-0.46,0.23-0.77,0.68-0.91
	c0.09-0.04,0.16-0.14,0.26-0.19c0.12-0.06,0.26-0.13,0.39-0.13c0.89,0,1.05-0.09,1.31-0.96c0.48-1.65,0.96-3.3,1.41-4.95
	c0.06-0.21,0.12-0.48,0.02-0.63c-0.27-0.48-0.05-0.93,0-1.39C33.7,95.78,33.74,95.54,33.75,95.29z M27.9,113.57
	c0.04-0.05-0.07-0.18-0.11-0.27c-0.07,0.06-0.18,0.09-0.21,0.18c-0.05,0.11-0.06,0.25-0.08,0.36c0.02,0.04,0.06,0.06,0.09,0.09
	C27.71,113.81,27.83,113.71,27.9,113.57z"/>
<path class="st0" d="M113.14,65.59c-0.33-0.11-0.63-0.22-0.95-0.33c-0.34-0.11-0.68-0.2-1.02-0.29c-4.19-1.12-8.43-1.98-12.67-2.81
	c-1.38-0.27-2.77-0.53-4.14-0.78c-0.08-0.01-0.15-0.05-0.29-0.08c0.3-0.41,0.58-0.78,0.86-1.14c0.11,0.13,0.19,0.33,0.28,0.33
	c0.14,0,0.29-0.13,0.41-0.23c0.12-0.11,0.23-0.25,0.29-0.39c0.13-0.3,0.32-0.36,0.62-0.27c0.53,0.14,0.6,0.14,0.72-0.39
	c0.18-0.7,0.28-1.42,0.36-2.14c0.02-0.29,0.01-0.47,0.4-0.46c0.53,0,0.97-0.37,1.02-0.9c0.07-1.03,0.11-2.05,0.12-3.08
	c0-0.4,0.14-0.65,0.44-0.89c0.08-0.07,0.14-0.22,0.13-0.33c-0.08-0.65-0.26-1.3-0.25-1.93c0.01-0.84,0.18-1.68,0.29-2.51
	c0.07-0.51-0.06-0.97-0.3-1.41c-0.11-0.2-0.15-0.47-0.12-0.7c0.12-1.07,0.36-2.16,0.19-3.24c-0.09-0.65-0.32-1.3-0.58-1.9
	c-0.26-0.55-0.14-1.07-0.14-1.62c0-0.47,0.06-0.93,0.09-1.48c5.61,3.26,10.44,7.34,14.56,12.29c4.12,4.94,7.26,10.43,9.38,16.49
	c3.31,9.43,3.96,19.05,2.01,28.84c-1.23,6.16-3.51,11.92-6.77,17.28c-0.05-0.01-0.09-0.02-0.14-0.04c0-0.99-0.01-1.98,0-2.98
	c0.01-0.15,0.09-0.36,0.21-0.46c0.19-0.18,0.23-0.36,0.23-0.6c0-0.25,0.04-0.49,0.06-0.74c0.05-0.39,0.14-0.72,0.47-1.04
	c0.32-0.3,0.46-0.77,0.64-1.1c0.19,0,0.34,0.04,0.44-0.01c0.07-0.04,0.07-0.21,0.11-0.32c0.07-0.19,0.11-0.39,0.21-0.54
	c0.33-0.46,0.67-0.9,1-1.34c0.02-0.02,0.05-0.06,0.05-0.09c0-0.33,0.01-0.67,0-0.99c-0.04-1.23-0.08-2.45-0.11-3.68
	c0-0.23,0.22-0.46,0.23-0.69c0.01-0.37-0.11-0.72-0.46-0.96c-0.69-0.47-1.33-0.99-2.04-1.44c-1.47-0.93-2.15-2.33-2.35-4
	c-0.15-1.26-0.22-2.53-0.35-3.8c-0.02-0.26-0.16-0.5-0.26-0.76c-0.02,0.01-0.05,0.02-0.08,0.04c0.06-0.12,0.13-0.22,0.19-0.34
	c0.13-0.25,0.15-0.48,0.08-0.77c-0.12-0.43-0.14-0.9-0.15-1.34c0-0.88,0.07-1.74,0.06-2.6c0-0.47-0.2-0.83-0.61-1.17
	c-0.61-0.51-1.3-0.76-2.01-0.86c0.27-3.99,0.54-7.96,0.81-11.93c-0.05,0-0.09,0-0.14,0c-0.13,2.5-0.26,4.99-0.39,7.48
	c-0.02,0-0.05,0-0.07,0c0.05-1.31,0.12-2.63,0.14-3.93c0.02-1.34,0-2.67,0-3.93c-0.12-0.07-0.19-0.09-0.22-0.14
	c-0.13-0.25-0.25-0.47-0.62-0.41c-0.16,0.02-0.36-0.13-0.54-0.23c-0.48-0.26-0.97-0.4-1.52-0.36c-0.89,0.06-1.69-0.29-2.51-0.58
	c0.09-0.01,0.18-0.02,0.29-0.04c-2.79-0.64-5.55-1.28-8.31-1.94c-0.4-0.09-0.77-0.29-1.16-0.47
	C103.95,63.37,108.59,64.26,113.14,65.59z"/>
<path d="M113.03,90.68c-0.05,0.29-0.09,0.58-0.14,0.88c-0.06,0-0.12-0.01-0.18-0.02c0.06-0.29,0.13-0.58,0.19-0.88
	C112.93,90.67,112.98,90.67,113.03,90.68z"/>
<path d="M112.1,94.82c0.02,0.93-0.29,1.79-0.62,2.63c-0.06-0.01-0.12-0.02-0.18-0.05c0.21-0.86,0.42-1.74,0.64-2.61
	C112,94.79,112.05,94.8,112.1,94.82z"/>
<path d="M109.84,108.14c-0.37,0.6-1.83,0.54-2.67-0.06C108.03,108.4,108.91,108.26,109.84,108.14z"/>
<path d="M96.27,17.76c-0.01,0.04-0.02,0.07-0.04,0.09c-0.46-0.08-0.95-0.11-1.31-0.46c0.01-0.05,0.02-0.08,0.05-0.13
	C95.4,17.43,95.84,17.6,96.27,17.76z"/>
<path d="M91.68,60.9L91.67,61c-0.51-0.08-1.03-0.16-1.54-0.26v-0.13c0.02,0,0.04,0,0.06,0s0.05-0.01,0.09-0.02
	c-0.37-0.7-0.23-1.39,0.36-1.8c0.32-0.22,0.7-0.16,0.9,0.13c0.36,0.53,0.14,1.38-0.44,1.66c-0.07,0.05-0.15,0.08-0.33,0.16
	C91.1,60.8,91.4,60.86,91.68,60.9z"/>
<path d="M83.84,53.99c0.19,0.47,0.25,0.95-0.11,1.39c-0.02-0.01-0.06-0.04-0.06-0.04c0.27-1-0.16-1.88-0.54-2.75
	c-0.23-0.51-0.49-1.02-0.72-1.52c-0.04-0.07-0.05-0.15-0.07-0.22c0.02-0.01,0.04-0.01,0.06-0.02c0.09,0.15,0.21,0.3,0.28,0.47
	C83.08,52.2,83.48,53.08,83.84,53.99z"/>
<path d="M78.48,54.83c0.16,0.91,0.29,1.82,0.16,2.75c-0.02,0.16,0,0.34,0,0.5c-0.18,0-0.35-0.01-0.53-0.02
	c-0.84-0.02-1.68,0.01-2.51-0.11c-1.23-0.19-2.37-0.67-3.44-1.26c-0.69-0.39-1.42-0.5-2.21-0.46c-1.03,0.08-2.05,0.2-3.02,0.57
	c-0.41,0.15-0.79,0.37-1.26,0.61c0.36-0.57,0.36-0.57,2.75-1.37c-0.19-0.05-0.35-0.08-0.57-0.14c0.65-0.3,1.3-0.29,1.93-0.28
	c0.62,0.01,1.25,0.12,1.9,0.19c0.01-0.15,0.05-0.36,0.05-0.57c0.05-1.24,0.58-2.26,1.42-3.15c0.16-0.19,0.41-0.33,0.63-0.43
	c0.79-0.37,1.61-0.61,2.51-0.34c0.46,0.13,0.82,0.36,1.12,0.65c0.29,0.29,0.53,0.67,0.71,1.07c0.13,0.32,0.29,0.62,0.39,0.93
	c0.06,0.18,0,0.39-0.01,0.58C78.51,54.66,78.47,54.75,78.48,54.83z M78.14,57.8c0.19,0,0.26-0.06,0.26-0.25
	c-0.05-1.14-0.05-2.29-0.34-3.41c-0.32-1.2-0.85-2.16-2.23-2.45c-0.72-0.15-1.35,0-1.9,0.35c-0.78,0.5-1.34,1.21-1.53,2.17
	c-0.08,0.39-0.2,0.75-0.3,1.12c-0.2,0.63-0.2,0.63,0.37,0.98c0.07,0.05,0.13,0.09,0.2,0.14c1.34,0.89,2.79,1.42,4.36,1.34
	C77.44,57.8,77.79,57.79,78.14,57.8z"/>
<path d="M78.59,53.04c-0.26-0.48-0.6-0.89-0.96-1.26c-0.34-0.35-0.7-0.68-1.06-1.02C77.49,51.3,78.33,51.92,78.59,53.04z"/>
<path d="M75.16,53.34c0.15,0.25,0.21,0.54,0.3,0.79c-0.2,0.69-0.4,1.32-0.82,1.84c-0.21,0.27-0.5,0.21-0.78,0.12
	c-0.75-0.26-1.05-0.79-0.88-1.55c0.15-0.6,0.5-1.06,0.97-1.44C74.42,52.73,74.85,52.83,75.16,53.34z"/>
<path class="st0" d="M51.45,33.42c7.14-2.96,14.6-4.22,22.42-3.98c-0.13,0.19-0.2,0.32-0.28,0.41c-1.2,1.48-2.4,2.96-3.61,4.45
	c-0.11,0.13-0.23,0.23-0.3,0.37c-0.22,0.42-0.57,0.63-1.02,0.72c-0.18,0.05-0.35,0.2-0.46,0.36c-0.63,0.95-1.25,1.89-1.84,2.86
	c-0.22,0.35-0.47,0.64-0.83,0.88c-0.46,0.28-0.89,0.61-0.99,1.24c-0.05,0.29-0.29,0.55-0.48,0.81c-0.78,1.07-1.6,2.14-2.36,3.23
	c-0.57,0.84-0.95,1.77-1.1,2.79c-0.04,0.27,0.05,0.55,0.05,0.83c0.01,0.16,0.04,0.37-0.05,0.48c-0.42,0.54-0.85,1.05-1.3,1.56
	c-0.06,0.08-0.18,0.12-0.26,0.19c-0.11,0.07-0.2,0.16-0.29,0.25c0.11,0.08,0.2,0.18,0.32,0.25c0.11,0.06,0.22,0.09,0.39,0.15
	c-0.21,0.27-0.4,0.53-0.61,0.77c-0.05,0.05-0.2,0.05-0.27,0.01c-0.95-0.5-1.87-1.02-2.8-1.54c-0.42-0.23-0.81-0.51-1.24-0.71
	c-0.56-0.25-1.07,0.09-1.13,0.7c0,0.02,0,0.05-0.01,0.07c-0.43,0.91-0.12,1.84-0.01,2.77c0.18,1.68,0.43,3.36,0.65,5.04
	c0.01,0.02,0,0.07-0.01,0.13c-0.44,0.04-0.9,0.08-1.34,0.12c0,0.02,0,0.04,0,0.06c0.44-0.01,0.89-0.04,1.33-0.06
	c0,0.04,0,0.06,0,0.09c-0.46,0.04-0.92,0.06-1.38,0.09c-0.25,0.01-0.49,0.04-0.74,0.07c-0.23,0.05-0.44,0.15-0.67-0.09
	c-0.07-0.07-0.33,0.04-0.49,0.07c-1.39,0.29-2.45,1.17-3.56,1.97c-0.23,0.16-0.53,0.27-0.76,0.43c-0.22,0.15-0.46,0.33-0.62,0.55
	c-0.35,0.5-0.7,0.98-0.86,1.62c-0.55,2.12-0.49,4.31-0.6,6.48c-0.02,0.37-0.13,0.58-0.49,0.67c-0.12,0.02-0.22,0.09-0.34,0.11
	c-0.55,0.11-0.81,0.5-0.93,0.99c-0.27,1-0.49,2.02-0.76,3.03c-0.08,0.28-0.3,0.53-0.37,0.82c-0.08,0.33-0.07,0.68-0.11,1.04
	c-0.12,0.18-0.32,0.37-0.41,0.61c-0.42,1.11-0.81,2.23-1.21,3.33c-0.37,0.98-0.85,1.89-1.67,2.57c-0.41,0.33-0.88,0.58-1.35,0.79
	c-0.9,0.39-1.83,0.71-2.75,1.04c-0.41,0.14-0.58,0.46-0.68,0.82c-0.05,0.2,0.11,0.46,0.06,0.64c-0.34,1.2-0.71,2.39-1.06,3.59
	c-0.05,0.14-0.05,0.3-0.06,0.46c0,0.04,0.02,0.08,0,0.11c-0.41,0.57,0.01,1.11,0.25,1.53c0.39,0.7,0.23,1.27-0.06,1.91
	c-1.53,3.38-3.19,6.7-4.91,9.98c-0.98,1.86-1.75,3.83-2.61,5.75c-0.02,0.05-0.06,0.09-0.13,0.22c-3.05-5.45-5.11-11.17-6.12-17.26
	c-2.07-12.67-0.08-24.67,6.27-35.84C31.07,45.98,39.97,38.19,51.45,33.42z"/>
<path d="M49.88,65.26c0,1.52,1.46,2.56,2.79,1.86C51.09,67.33,50.22,66.68,49.88,65.26z M54.17,63.75c0.14,0.54,0.16,1.11,0.15,1.66
	c0,0.91-0.49,1.58-1.24,2.03c-0.21,0.13-0.49,0.25-0.72,0.22c-0.58-0.07-1.17-0.16-1.72-0.34c-0.6-0.21-0.82-0.78-0.97-1.34
	c-0.29-1.16-0.33-2.29,0.28-3.38c0.36-0.64,0.81-1.02,1.47-0.95C53.09,61.7,53.79,62.22,54.17,63.75z M53.11,66.7
	c0.74-0.23,1.09-1.51,0.63-2.31C53.77,66.25,53.51,66.1,53.11,66.7z M53.73,63.84c-0.15-0.37-0.32-0.75-0.47-1.12
	c-0.05,0.02-0.08,0.04-0.12,0.05c0.16,0.37,0.32,0.75,0.47,1.12C53.66,63.88,53.7,63.87,53.73,63.84z M52.89,66.55
	c0.49-0.33,0.77-1.14,0.61-1.79c-0.71,0.53-1.45,1.06-2.17,1.59C51.78,66.73,52.47,66.81,52.89,66.55z M53.32,64.33
	c0.07-0.06,0.12-0.22,0.08-0.3c-0.21-0.5-0.39-1.03-0.68-1.48c-0.35-0.58-1-0.63-1.49-0.15c-0.49,0.47-0.88,1.03-1.07,1.69
	c-0.21,0.71-0.06,1.38,0.29,2.08c0.43-0.2,0.83-0.42,1.26-0.58C52.38,65.34,52.86,64.84,53.32,64.33z M50.82,66.54
	c0.37,0.41,1.17,0.57,1.61,0.41c-0.28-0.12-0.69-0.22-1.05-0.42C51.17,66.42,51.01,66.4,50.82,66.54z M50.25,62.47
	c0.35-0.22,0.65-0.42,1-0.64C50.77,61.82,50.49,62.06,50.25,62.47z"/>
<path d="M46.37,67.64c0.04,0.04,0.07,0.08,0.11,0.13c-0.36,0.25-0.72,0.49-1.09,0.74c-0.04-0.04-0.06-0.07-0.08-0.11
	C45.65,68.14,46.02,67.88,46.37,67.64z"/>
<path d="M41.64,99.51c0.92,0.35,1.77,0.75,2.72,0.62C43.31,100.5,41.96,100.22,41.64,99.51z"/>
<path d="M43.24,81.8c-0.01,0.3-0.04,0.61-0.05,0.91c-0.06-0.01-0.11-0.01-0.16-0.01c0.02-0.3,0.05-0.61,0.06-0.91
	C43.15,81.79,43.19,81.8,43.24,81.8z"/>
<path d="M42.97,86.02c0.2,0.92,0.06,1.84-0.04,2.75C42.74,87.85,42.67,86.94,42.97,86.02z"/>
<path d="M29.28,113.79c-0.23,0.48-0.48,0.97-0.71,1.45c-0.04-0.02-0.08-0.04-0.12-0.06c0.04-0.57,0.41-0.99,0.69-1.46
	C29.19,113.74,29.23,113.77,29.28,113.79z"/>
<g>
	<path d="M54.35,85.44l4.76,0.4l-0.02,0.94l-3.89-0.32l-0.04,2.34l3.6,0.28l-0.02,0.88l-3.6-0.27l-0.05,2.61l3.96,0.28l-0.02,0.91
		l-4.83-0.34L54.35,85.44z"/>
	<path d="M60.26,85.94L61.05,86l-0.13,7.62l-0.79-0.06L60.26,85.94z"/>
	<path d="M62.6,86.5c0.19-0.3,0.54-0.43,1.07-0.39c0.05,0,0.1,0.01,0.15,0.02c0.05,0.01,0.11,0.02,0.18,0.03l-0.01,0.84
		c-0.08-0.01-0.14-0.02-0.18-0.03c-0.03,0-0.07-0.01-0.1-0.01c-0.24-0.02-0.39,0.04-0.44,0.18c-0.05,0.14-0.08,0.51-0.09,1.11
		l0.79,0.06l-0.01,0.73L63.16,89l-0.08,4.78l-0.78-0.05l0.08-4.78l-0.65-0.05l0.01-0.73l0.65,0.05l0.02-0.87
		C62.43,86.95,62.49,86.67,62.6,86.5z"/>
	<path d="M64.68,88.39l0.79,0.06l-0.09,5.49l-0.79-0.06L64.68,88.39z M64.71,86.31l0.79,0.07l-0.02,1.05l-0.79-0.06L64.71,86.31z"/>
	<path d="M66.65,88.52l0.73,0.06l-0.01,0.78c0.22-0.3,0.46-0.52,0.7-0.64c0.25-0.12,0.52-0.17,0.81-0.14
		c0.65,0.05,1.08,0.36,1.3,0.92c0.12,0.3,0.18,0.73,0.17,1.28l-0.05,3.51l-0.78-0.05l0.05-3.45c0.01-0.33-0.03-0.6-0.11-0.82
		c-0.13-0.35-0.38-0.54-0.74-0.57c-0.18-0.01-0.33,0-0.45,0.03c-0.21,0.06-0.4,0.19-0.56,0.41c-0.13,0.17-0.22,0.35-0.26,0.54
		c-0.04,0.19-0.07,0.46-0.07,0.82l-0.05,2.88l-0.77-0.06L66.65,88.52z"/>
	<path d="M75.36,87.21l0.94,0.08l2.11,7.57l-0.9-0.06l-0.61-2.26l-2.4-0.18l-0.7,2.18l-0.86-0.06L75.36,87.21z M76.67,91.69
		l-0.9-3.35l-1.03,3.2L76.67,91.69z"/>
	<path d="M79.14,89.52l0.7,0.06l-0.01,0.93c0.06-0.18,0.2-0.38,0.43-0.63c0.23-0.24,0.49-0.35,0.78-0.33c0.01,0,0.04,0,0.07,0.01
		c0.03,0.01,0.09,0.02,0.17,0.03l-0.01,0.95c-0.04-0.01-0.08-0.02-0.12-0.03c-0.04-0.01-0.08-0.01-0.12-0.02
		c-0.37-0.03-0.66,0.09-0.86,0.37c-0.2,0.28-0.31,0.61-0.31,0.99l-0.04,3.09l-0.74-0.05L79.14,89.52z"/>
	<path d="M85.05,90.53c0.37,0.49,0.56,1.17,0.55,2.05c-0.01,0.86-0.19,1.55-0.53,2.09c-0.34,0.54-0.87,0.78-1.58,0.73
		c-0.59-0.04-1.06-0.32-1.41-0.84c-0.34-0.52-0.51-1.2-0.5-2.04c0.01-0.9,0.21-1.6,0.58-2.1c0.38-0.5,0.87-0.73,1.49-0.68
		C84.21,89.78,84.67,90.04,85.05,90.53z M84.55,94.03c0.18-0.44,0.28-0.93,0.28-1.48c0-0.5-0.05-0.9-0.18-1.23
		c-0.2-0.5-0.54-0.78-1.04-0.82c-0.44-0.03-0.76,0.15-0.97,0.55c-0.21,0.4-0.32,0.9-0.32,1.49c-0.01,0.57,0.09,1.05,0.29,1.44
		c0.2,0.39,0.51,0.6,0.95,0.64C84.04,94.67,84.37,94.46,84.55,94.03z"/>
	<path d="M87.23,90.17l-0.04,3.52c0,0.27,0.03,0.49,0.09,0.67c0.12,0.32,0.35,0.5,0.69,0.53c0.48,0.03,0.82-0.22,1-0.76
		c0.1-0.29,0.15-0.69,0.15-1.21l0.03-2.59l0.71,0.06l-0.06,5.27l-0.67-0.05l0.02-0.78c-0.09,0.19-0.21,0.36-0.35,0.48
		c-0.27,0.26-0.6,0.37-0.98,0.35c-0.6-0.04-1-0.32-1.21-0.84c-0.11-0.28-0.17-0.65-0.16-1.1l0.04-3.6L87.23,90.17z"/>
	<path d="M91.03,90.48l0.67,0.05l-0.01,0.75c0.2-0.29,0.42-0.49,0.64-0.61c0.22-0.12,0.47-0.16,0.74-0.14
		c0.59,0.05,0.99,0.34,1.19,0.87c0.11,0.29,0.16,0.7,0.16,1.23l-0.04,3.36l-0.71-0.05l0.03-3.3c0-0.32-0.03-0.58-0.1-0.78
		c-0.12-0.34-0.35-0.52-0.67-0.54c-0.17-0.01-0.3,0-0.41,0.03c-0.2,0.06-0.37,0.18-0.52,0.39c-0.12,0.16-0.2,0.34-0.23,0.52
		c-0.04,0.18-0.06,0.44-0.06,0.79l-0.03,2.75l-0.71-0.05L91.03,90.48z"/>
	<path d="M97.73,91.17c0.12,0.11,0.26,0.29,0.41,0.54l0.03-2.62l0.66,0.06l-0.07,7.13l-0.62-0.04l0.01-0.72
		c-0.16,0.31-0.35,0.53-0.58,0.65c-0.22,0.13-0.47,0.18-0.76,0.16c-0.46-0.03-0.85-0.3-1.18-0.82c-0.33-0.51-0.49-1.18-0.49-1.99
		c0.01-0.76,0.17-1.41,0.48-1.94c0.31-0.53,0.75-0.77,1.32-0.73C97.26,90.88,97.53,90.99,97.73,91.17z M96.15,94.95
		c0.18,0.39,0.48,0.6,0.89,0.63c0.32,0.02,0.58-0.13,0.79-0.47c0.21-0.33,0.32-0.82,0.32-1.47c0.01-0.66-0.09-1.15-0.3-1.48
		c-0.21-0.33-0.47-0.51-0.78-0.54c-0.35-0.03-0.63,0.12-0.85,0.44c-0.22,0.32-0.33,0.81-0.34,1.47
		C95.88,94.09,95.97,94.56,96.15,94.95z"/>
	<path d="M54.61,94.79l1.77,6.69l1.98-6.44l0.99,0.07l-2.52,7.54l-0.95-0.05l-2.27-7.88L54.61,94.79z"/>
	<path d="M59.88,97.25l0.81,0.05l-0.1,5.55l-0.81-0.04L59.88,97.25z M59.92,95.15l0.81,0.05l-0.02,1.06l-0.81-0.05L59.92,95.15z"/>
	<path d="M64.45,97.69c0.14,0.11,0.29,0.3,0.46,0.57l0.05-2.79l0.75,0.05l-0.12,7.61l-0.7-0.04l0.01-0.77
		c-0.19,0.33-0.41,0.57-0.66,0.71c-0.25,0.14-0.54,0.2-0.86,0.18c-0.52-0.03-0.97-0.31-1.34-0.86c-0.37-0.54-0.55-1.25-0.54-2.11
		c0.01-0.81,0.2-1.51,0.56-2.08c0.36-0.57,0.86-0.84,1.5-0.8C63.92,97.38,64.22,97.49,64.45,97.69z M62.63,101.74
		c0.2,0.41,0.54,0.63,1.01,0.66c0.36,0.02,0.66-0.15,0.9-0.51c0.24-0.36,0.36-0.88,0.37-1.58c0.01-0.7-0.1-1.23-0.33-1.58
		c-0.23-0.35-0.53-0.54-0.88-0.56c-0.39-0.02-0.72,0.14-0.97,0.48c-0.25,0.35-0.38,0.87-0.39,1.57
		C62.33,100.82,62.42,101.33,62.63,101.74z"/>
	<path d="M69.68,98c0.3,0.2,0.52,0.45,0.68,0.75c0.15,0.29,0.24,0.62,0.29,0.99c0.04,0.26,0.06,0.66,0.05,1.21l-3.33-0.19
		c0,0.56,0.11,1.02,0.31,1.37c0.2,0.35,0.52,0.54,0.94,0.56c0.4,0.02,0.72-0.12,0.96-0.43c0.14-0.18,0.23-0.39,0.29-0.63l0.75,0.04
		c-0.02,0.2-0.09,0.42-0.21,0.66c-0.12,0.24-0.25,0.44-0.39,0.59c-0.23,0.26-0.52,0.43-0.87,0.51c-0.19,0.04-0.4,0.06-0.63,0.05
		c-0.57-0.03-1.05-0.31-1.44-0.83c-0.39-0.52-0.58-1.24-0.56-2.14c0.01-0.89,0.23-1.59,0.63-2.12c0.41-0.53,0.93-0.77,1.58-0.73
		C69.06,97.69,69.38,97.8,69.68,98z M69.92,100.17c-0.02-0.4-0.09-0.73-0.2-0.97c-0.2-0.46-0.55-0.7-1.04-0.73
		c-0.35-0.02-0.65,0.11-0.89,0.4c-0.24,0.29-0.38,0.68-0.4,1.15L69.92,100.17z"/>
	<path d="M74.97,98.73c0.39,0.49,0.58,1.19,0.56,2.09c-0.01,0.88-0.2,1.59-0.56,2.14c-0.36,0.55-0.91,0.81-1.64,0.77
		c-0.62-0.03-1.1-0.31-1.46-0.84c-0.36-0.53-0.53-1.22-0.52-2.08c0.01-0.92,0.22-1.64,0.61-2.16c0.39-0.52,0.91-0.76,1.56-0.72
		C74.1,97.97,74.58,98.23,74.97,98.73z M74.45,102.32c0.19-0.45,0.29-0.96,0.3-1.52c0.01-0.51-0.05-0.92-0.18-1.25
		c-0.2-0.51-0.56-0.79-1.08-0.82c-0.46-0.03-0.79,0.16-1.01,0.58c-0.22,0.42-0.33,0.92-0.34,1.53c-0.01,0.58,0.09,1.07,0.29,1.47
		c0.2,0.4,0.53,0.61,0.98,0.63C73.91,102.97,74.26,102.76,74.45,102.32z"/>
	<path d="M83.22,97.25c0.4,0.52,0.63,1.09,0.66,1.71l-0.79-0.05c-0.08-0.48-0.25-0.86-0.51-1.16c-0.26-0.3-0.63-0.46-1.1-0.49
		c-0.58-0.04-1.06,0.19-1.42,0.67c-0.36,0.49-0.55,1.26-0.57,2.32c-0.01,0.87,0.14,1.58,0.46,2.14c0.32,0.56,0.79,0.85,1.44,0.89
		c0.59,0.03,1.04-0.23,1.35-0.77c0.17-0.29,0.29-0.67,0.38-1.15l0.79,0.05c-0.08,0.77-0.32,1.4-0.72,1.9
		c-0.48,0.61-1.11,0.89-1.91,0.84c-0.69-0.04-1.27-0.33-1.73-0.87c-0.61-0.73-0.91-1.81-0.89-3.25c0.02-1.09,0.26-1.97,0.74-2.64
		c0.52-0.72,1.21-1.06,2.09-1C82.23,96.45,82.81,96.74,83.22,97.25z"/>
	<path d="M87.16,101.06c0.16-0.02,0.27-0.1,0.33-0.24c0.03-0.08,0.05-0.19,0.05-0.34c0-0.3-0.08-0.53-0.25-0.68
		c-0.17-0.15-0.42-0.23-0.75-0.25c-0.38-0.02-0.65,0.09-0.8,0.33c-0.09,0.14-0.15,0.34-0.18,0.62l-0.68-0.04
		c0.02-0.66,0.2-1.11,0.53-1.34c0.34-0.24,0.72-0.34,1.16-0.32c0.5,0.03,0.91,0.18,1.22,0.44c0.31,0.26,0.46,0.64,0.45,1.14
		l-0.04,3.06c0,0.09,0.01,0.17,0.04,0.22c0.03,0.06,0.09,0.09,0.19,0.1c0.03,0,0.07,0,0.11,0c0.04,0,0.08-0.01,0.13-0.02l-0.01,0.66
		c-0.11,0.03-0.2,0.05-0.26,0.06c-0.06,0.01-0.14,0.01-0.24,0c-0.25-0.01-0.43-0.13-0.53-0.35c-0.06-0.12-0.1-0.29-0.12-0.5
		c-0.15,0.23-0.36,0.43-0.64,0.59c-0.28,0.16-0.58,0.23-0.92,0.22c-0.4-0.02-0.72-0.19-0.97-0.5c-0.25-0.31-0.37-0.7-0.37-1.15
		c0.01-0.49,0.14-0.87,0.39-1.13c0.25-0.26,0.58-0.4,0.99-0.45L87.16,101.06z M85.61,103.39c0.15,0.16,0.33,0.24,0.54,0.25
		c0.26,0.01,0.5-0.05,0.74-0.18c0.4-0.22,0.61-0.6,0.61-1.15l0.01-0.72c-0.09,0.06-0.2,0.12-0.34,0.15
		c-0.14,0.04-0.27,0.06-0.41,0.08l-0.44,0.05c-0.26,0.03-0.46,0.08-0.59,0.17c-0.23,0.14-0.34,0.38-0.35,0.73
		C85.38,103.02,85.46,103.23,85.61,103.39z"/>
	<path d="M89.46,99.1l0.68,0.04l-0.01,0.91c0.06-0.17,0.2-0.38,0.42-0.62c0.22-0.24,0.47-0.35,0.75-0.34c0.01,0,0.03,0,0.07,0.01
		c0.03,0,0.08,0.01,0.16,0.03l-0.01,0.93c-0.04-0.01-0.08-0.02-0.12-0.02c-0.04-0.01-0.07-0.01-0.11-0.01
		c-0.36-0.02-0.64,0.1-0.83,0.38c-0.2,0.28-0.3,0.6-0.3,0.98l-0.03,3.04l-0.71-0.04L89.46,99.1z"/>
	<path d="M94.42,99.58c0.12,0.11,0.26,0.29,0.41,0.54l0.03-2.64l0.67,0.05l-0.07,7.2l-0.63-0.03l0.01-0.73
		c-0.16,0.31-0.36,0.54-0.58,0.67c-0.22,0.13-0.48,0.19-0.77,0.18c-0.46-0.03-0.86-0.3-1.2-0.81c-0.33-0.51-0.5-1.18-0.49-2
		c0.01-0.77,0.17-1.42,0.49-1.97c0.32-0.54,0.76-0.79,1.34-0.76C93.95,99.3,94.21,99.4,94.42,99.58z M92.81,103.43
		c0.18,0.39,0.49,0.6,0.91,0.62c0.32,0.02,0.59-0.14,0.8-0.48c0.21-0.34,0.32-0.84,0.33-1.49c0.01-0.66-0.09-1.16-0.3-1.49
		c-0.21-0.33-0.47-0.51-0.79-0.53c-0.35-0.02-0.64,0.13-0.86,0.46c-0.22,0.33-0.34,0.82-0.34,1.48
		C92.54,102.56,92.63,103.04,92.81,103.43z"/>
	<path d="M96.93,103.16c0.02,0.29,0.08,0.52,0.17,0.68c0.17,0.29,0.48,0.45,0.92,0.47c0.26,0.01,0.49-0.04,0.69-0.17
		c0.2-0.13,0.3-0.34,0.31-0.64c0-0.22-0.08-0.4-0.23-0.52c-0.1-0.08-0.3-0.17-0.6-0.28l-0.56-0.21c-0.35-0.13-0.62-0.27-0.79-0.42
		c-0.3-0.25-0.45-0.59-0.44-1.01c0-0.49,0.15-0.88,0.44-1.17c0.29-0.29,0.67-0.41,1.15-0.38c0.63,0.04,1.07,0.3,1.35,0.77
		c0.17,0.3,0.25,0.62,0.24,0.96l-0.65-0.04c-0.01-0.2-0.07-0.38-0.16-0.55c-0.16-0.24-0.44-0.37-0.84-0.4
		c-0.27-0.02-0.47,0.03-0.61,0.15c-0.14,0.12-0.21,0.28-0.21,0.49c0,0.23,0.09,0.41,0.26,0.56c0.11,0.09,0.26,0.17,0.46,0.24
		l0.46,0.17c0.5,0.18,0.84,0.35,1.01,0.5c0.27,0.24,0.4,0.6,0.39,1.08c-0.01,0.46-0.15,0.86-0.43,1.17
		c-0.28,0.32-0.71,0.47-1.29,0.44c-0.62-0.03-1.06-0.23-1.31-0.6c-0.26-0.37-0.39-0.81-0.4-1.33L96.93,103.16z"/>
</g>
</svg>
